<?xml version="1.0" standalone="no"?>
<!DOCTYPE svg PUBLIC "-//W3C//DTD SVG 1.1//EN" "http://www.w3.org/Graphics/SVG/1.1/DTD/svg11.dtd" >
<svg xmlns="http://www.w3.org/2000/svg">
<metadata>
This is a custom SVG webfont generated by Font Squirrel.
Copyright   : Copyright  2009 2010 Andreas Seidel All Rights Reserved  DEMO VERSION  This font is for testing purpose only No commercial usage
Designer    : Andreas Seidel
Foundry     : Andreas Seidel  astype
Foundry URL : httpwwwastypede
</metadata>
<defs>
<font id="SeccaStdDemoBold" horiz-adv-x="1167" >
<font-face units-per-em="2048" ascent="1454" descent="-594" />
<missing-glyph horiz-adv-x="471" />
<glyph unicode=" "  horiz-adv-x="471" />
<glyph unicode="&#x09;" horiz-adv-x="471" />
<glyph unicode="&#xa0;" horiz-adv-x="471" />
<glyph unicode="!" horiz-adv-x="579" d="M143 137.5q0 69.5 48.5 117.5t117.5 48q72 0 120 -48t48 -117.5t-48 -119t-120 -49.5q-70 0 -118 49.5t-48 119zM158 1403h303q0 -178 -11.5 -507t-13.5 -458h-252q-2 133 -14 461t-12 504z" />
<glyph unicode="&#x22;" horiz-adv-x="919" d="M113 1421l256 6l20 -20l-37 -504h-205zM530 1421l256 6l21 -20l-37 -504h-205z" />
<glyph unicode="#" d="M94 297v182h172l43 320h-157v182h184l24 182h197l-25 -182h218l22 182h199l-25 -182h127v-182h-153l-43 -320h139v-182h-164l-25 -182h-198l26 182h-217l-24 -182h-199l27 182h-148zM463 477h217l43 324h-217z" />
<glyph unicode="$" d="M113 129l106 227q158 -137 342 -137q72 0 120 42t48 110q0 63 -59.5 111t-143.5 86t-168 85t-143 134t-59 210q0 143 84 240.5t233 124.5l-2 250h227l-2 -248q150 -18 277 -82l-99 -233q-137 86 -280 86q-72 0 -115 -33t-43 -94q0 -53 44 -97.5t109.5 -74t141.5 -70.5 t141.5 -84t109.5 -118t44 -171q0 -164 -90 -263t-240 -128l2 -256h-227l2 246q-215 18 -360 137z" />
<glyph unicode="%" horiz-adv-x="2990" d="M25 440v805h309q29 0 53.5 -2t76.5 -23.5t88 -60.5t64.5 -121t28.5 -194q0 -115 -30.5 -197t-67.5 -121t-91.5 -60.5t-80 -23.5t-53.5 -2h-297zM31 -68h26l-2 86q23 -23 45 -22q57 0 58 88q0 76 -58 76q-25 0 -45 -21l-4 17h-20v-224zM55 41v76q23 23 45 22q31 0 31 -57 q0 -63 -33 -64q-20 0 -43 23zM199 0v236h26v-236h-26zM236 625h40q31 0 49.5 4t45 22.5t40 67.5t13.5 125q0 78 -11.5 126t-36 66.5t-42 22.5t-47.5 4h-51v-438zM266 80q0 80 66 80q63 0 63 -74l-4 -12h-98q0 -55 41 -56q23 0 41 21l14 -16q-27 -27 -57 -27q-66 0 -66 84z M295 92h72q0 47 -35 47q-37 0 -37 -47zM426 43q0 35 22.5 44t71.5 11v15q0 25 -24 24q-16 0 -54 -12l-10 20q37 14 70 15q45 0 45 -47v-113h-21l-4 18h-2q-23 -23 -51 -22q-43 0 -43 47zM453 45q0 -27 18 -27q27 0 49 23v39q-57 -2 -65 -21q-2 -6 -2 -14zM584 18v5l12 16 q20 -20 45 -21q31 0 31 25q0 6 -4 11t-8.5 7t-12.5 4.5t-10 4.5q-45 18 -45 45q0 45 55 45q29 0 45 -15v-4l-10 -16q-14 14 -37 14q-29 0 -29 -20q0 -6 1 -9.5t6.5 -6.5t8.5 -5t10 -4t11 -4q43 -16 43 -43q0 -51 -57 -51q-28 -1 -55 22zM729 80q0 80 66 80q63 0 63 -74 l-4 -12h-98q0 -55 41 -56q23 0 41 21l14 -16q-27 -27 -57 -27q-66 0 -66 84zM735 440v805h479v-182q-145 0 -274 2q0 -63 -2 -131q86 2 192 2v-166h-192q2 -82 2 -147q129 2 287 2v-185h-492zM758 92h71q0 47 -34 47q-37 0 -37 -47zM958 0v233h25v-233h-25zM1036 0v156h27 v-156h-27zM1036 188v39h27v-39h-27zM1106 80q0 33 18.5 56.5t51.5 23.5q29 0 45 -17l-13 -18q-14 14 -32 14q-43 0 -43 -59q0 -61 41 -62q18 0 34 17l15 -17q-27 -23 -52 -22q-65 0 -65 84zM1247 80q0 80 66 80q63 0 63 -74l-4 -12h-98q0 -55 41 -56q23 0 41 21l14 -16 q-27 -27 -57 -27q-66 0 -66 84zM1276 92h72q0 47 -35 47q-37 0 -37 -47zM1335 440q0 6 2 207t4 400l2 198h299l89 -268q16 -51 26 -109h4q10 57 27 109l86 268h291l2 -198q0 -199 2 -400t2 -207h-217q0 381 14 580h-4q-18 -80 -51 -184l-80 -246h-168l-82 246 q-35 113 -49 184h-4q16 -268 16 -580h-211zM1415 0v156h23l2 -17q33 20 57 21q35 0 35 -45v-115h-27v115q0 23 -18 22q-16 0 -45 -18v-119h-27zM1571 18v5l12 16q20 -20 45 -21q31 0 31 25q0 16 -33 27q-47 16 -47 45q0 45 53 45q27 0 47 -15v-4l-10 -16q-14 14 -39 14 q-27 0 -26 -20q0 -12 6 -16.5t30 -12.5q43 -16 43 -43q0 -51 -57 -51q-28 -1 -55 22zM1716 80q0 80 66 80q63 0 63 -74l-4 -12h-98q0 -55 41 -56q23 0 41 21l14 -16q-27 -27 -57 -27q-66 0 -66 84zM1745 92h72q0 47 -35 47q-37 0 -37 -47zM1927 133v23h27v53h24v-53h39v-23 h-39v-88q0 -12 2 -16t15 -4h22v-25h-28q-35 0 -35 39v94h-27zM2052 0v236h27l-2 -97q33 20 57 21q35 0 35 -45v-115h-27v115q0 23 -18.5 22.5t-44.5 -18.5v-119h-27zM2210 80q0 80 65 80q63 0 64 -74l-4 -12h-99q0 -55 41 -56q23 0 41 21l15 -16q-27 -27 -58 -27 q-65 0 -65 84zM2238 92h72q0 47 -35 47q-37 0 -37 -47zM2255 856q0 184 89 298t267 114q180 0 269.5 -114t89.5 -298q0 -82 -19.5 -155.5t-59.5 -136t-112 -100.5t-168 -38q-182 0 -269 126t-87 304zM2425 133v23h24v37q0 43 43 43q20 0 35 -9l-8 -18q-8 6 -22 6 q-20 0 -21 -22v-37h41v-23h-41v-133h-27v133h-24zM2478 856q0 -244 133 -244t133 244q0 104 -27.5 162.5t-105.5 58.5q-133 0 -133 -221zM2535 80q0 35 19.5 57.5t50.5 22.5q33 0 52.5 -22.5t19.5 -57.5q0 -31 -18.5 -57.5t-53.5 -26.5t-52.5 26.5t-17.5 57.5zM2564 80 q0 -63 41 -64q45 0 45 64q0 59 -45 59q-41 0 -41 -59zM2716 0v156h22l2 -17q33 20 58 21q35 0 34 -45v-115h-26v115q0 23 -18.5 22.5t-45.5 -18.5v-119h-26zM2865 133v23h27v53h24v-53h39v-23h-39v-88q0 -12 2 -16t15 -4h22v-25h-28q-35 0 -35 39v94h-27z" />
<glyph unicode="&#x26;" horiz-adv-x="2990" d="M25 440v805h309q29 0 53.5 -2t76.5 -23.5t88 -60.5t64.5 -121t28.5 -194q0 -115 -30.5 -197t-67.5 -121t-91.5 -60.5t-80 -23.5t-53.5 -2h-297zM31 -68h26l-2 86q23 -23 45 -22q57 0 58 88q0 76 -58 76q-25 0 -45 -21l-4 17h-20v-224zM55 41v76q23 23 45 22q31 0 31 -57 q0 -63 -33 -64q-20 0 -43 23zM199 0v236h26v-236h-26zM236 625h40q31 0 49.5 4t45 22.5t40 67.5t13.5 125q0 78 -11.5 126t-36 66.5t-42 22.5t-47.5 4h-51v-438zM266 80q0 80 66 80q63 0 63 -74l-4 -12h-98q0 -55 41 -56q23 0 41 21l14 -16q-27 -27 -57 -27q-66 0 -66 84z M295 92h72q0 47 -35 47q-37 0 -37 -47zM426 43q0 35 22.5 44t71.5 11v15q0 25 -24 24q-16 0 -54 -12l-10 20q37 14 70 15q45 0 45 -47v-113h-21l-4 18h-2q-23 -23 -51 -22q-43 0 -43 47zM453 45q0 -27 18 -27q27 0 49 23v39q-57 -2 -65 -21q-2 -6 -2 -14zM584 18v5l12 16 q20 -20 45 -21q31 0 31 25q0 6 -4 11t-8.5 7t-12.5 4.5t-10 4.5q-45 18 -45 45q0 45 55 45q29 0 45 -15v-4l-10 -16q-14 14 -37 14q-29 0 -29 -20q0 -6 1 -9.5t6.5 -6.5t8.5 -5t10 -4t11 -4q43 -16 43 -43q0 -51 -57 -51q-28 -1 -55 22zM729 80q0 80 66 80q63 0 63 -74 l-4 -12h-98q0 -55 41 -56q23 0 41 21l14 -16q-27 -27 -57 -27q-66 0 -66 84zM735 440v805h479v-182q-145 0 -274 2q0 -63 -2 -131q86 2 192 2v-166h-192q2 -82 2 -147q129 2 287 2v-185h-492zM758 92h71q0 47 -34 47q-37 0 -37 -47zM958 0v233h25v-233h-25zM1036 0v156h27 v-156h-27zM1036 188v39h27v-39h-27zM1106 80q0 33 18.5 56.5t51.5 23.5q29 0 45 -17l-13 -18q-14 14 -32 14q-43 0 -43 -59q0 -61 41 -62q18 0 34 17l15 -17q-27 -23 -52 -22q-65 0 -65 84zM1247 80q0 80 66 80q63 0 63 -74l-4 -12h-98q0 -55 41 -56q23 0 41 21l14 -16 q-27 -27 -57 -27q-66 0 -66 84zM1276 92h72q0 47 -35 47q-37 0 -37 -47zM1335 440q0 6 2 207t4 400l2 198h299l89 -268q16 -51 26 -109h4q10 57 27 109l86 268h291l2 -198q0 -199 2 -400t2 -207h-217q0 381 14 580h-4q-18 -80 -51 -184l-80 -246h-168l-82 246 q-35 113 -49 184h-4q16 -268 16 -580h-211zM1415 0v156h23l2 -17q33 20 57 21q35 0 35 -45v-115h-27v115q0 23 -18 22q-16 0 -45 -18v-119h-27zM1571 18v5l12 16q20 -20 45 -21q31 0 31 25q0 16 -33 27q-47 16 -47 45q0 45 53 45q27 0 47 -15v-4l-10 -16q-14 14 -39 14 q-27 0 -26 -20q0 -12 6 -16.5t30 -12.5q43 -16 43 -43q0 -51 -57 -51q-28 -1 -55 22zM1716 80q0 80 66 80q63 0 63 -74l-4 -12h-98q0 -55 41 -56q23 0 41 21l14 -16q-27 -27 -57 -27q-66 0 -66 84zM1745 92h72q0 47 -35 47q-37 0 -37 -47zM1927 133v23h27v53h24v-53h39v-23 h-39v-88q0 -12 2 -16t15 -4h22v-25h-28q-35 0 -35 39v94h-27zM2052 0v236h27l-2 -97q33 20 57 21q35 0 35 -45v-115h-27v115q0 23 -18.5 22.5t-44.5 -18.5v-119h-27zM2210 80q0 80 65 80q63 0 64 -74l-4 -12h-99q0 -55 41 -56q23 0 41 21l15 -16q-27 -27 -58 -27 q-65 0 -65 84zM2238 92h72q0 47 -35 47q-37 0 -37 -47zM2255 856q0 184 89 298t267 114q180 0 269.5 -114t89.5 -298q0 -82 -19.5 -155.5t-59.5 -136t-112 -100.5t-168 -38q-182 0 -269 126t-87 304zM2425 133v23h24v37q0 43 43 43q20 0 35 -9l-8 -18q-8 6 -22 6 q-20 0 -21 -22v-37h41v-23h-41v-133h-27v133h-24zM2478 856q0 -244 133 -244t133 244q0 104 -27.5 162.5t-105.5 58.5q-133 0 -133 -221zM2535 80q0 35 19.5 57.5t50.5 22.5q33 0 52.5 -22.5t19.5 -57.5q0 -31 -18.5 -57.5t-53.5 -26.5t-52.5 26.5t-17.5 57.5zM2564 80 q0 -63 41 -64q45 0 45 64q0 59 -45 59q-41 0 -41 -59zM2716 0v156h22l2 -17q33 20 58 21q35 0 34 -45v-115h-26v115q0 23 -18.5 22.5t-45.5 -18.5v-119h-26zM2865 133v23h27v53h24v-53h39v-23h-39v-88q0 -12 2 -16t15 -4h22v-25h-28q-35 0 -35 39v94h-27z" />
<glyph unicode="'" horiz-adv-x="501" d="M113 1421l256 6l20 -20l-37 -504h-205z" />
<glyph unicode="(" horiz-adv-x="724" d="M117 702.5q0 544.5 309 952.5l211 -146q-227 -334 -227 -807q0 -475 227 -808l-211 -144q-309 408 -309 952.5z" />
<glyph unicode=")" horiz-adv-x="724" d="M88 -104q227 334 227 806q0 475 -227 809l211 144q309 -408 309 -952.5t-309 -952.5z" />
<glyph unicode="*" horiz-adv-x="1071" d="M31 762l59 35q43 27 124 57.5t140 38.5v10q-59 8 -140 39t-124 57l-59 35l135 236l57 -35q143 -84 223 -188l11 4q-57 147 -58 284v105h273v-105q0 -137 -58 -284l9 -4q84 106 223 188l59 35l135 -236l-59 -35q-43 -27 -124 -57.5t-140 -38.5v-10q59 -8 140 -39t124 -57 l59 -35l-135 -236l-59 35q-139 82 -223 189l-9 -5q57 -147 58 -284v-105h-273v105q0 137 58 284l-11 5q-80 -104 -223 -189l-57 -35z" />
<glyph unicode="+" d="M164 512v252h291v315h258v-315h291v-252h-291v-313h-258v313h-291z" />
<glyph unicode="," horiz-adv-x="501" d="M92 -307l29 569l266 6l21 -20l-101 -555h-215z" />
<glyph unicode="-" horiz-adv-x="737" d="M82 436v254h573v-254h-573z" />
<glyph unicode="." horiz-adv-x="501" d="M88 137q0 70 48 119t120 49q70 0 119 -49t49 -119q0 -72 -48 -120t-120 -48t-120 48t-48 120z" />
<glyph unicode="/" horiz-adv-x="794" d="M31 -334l465 1854h268l-465 -1854h-268z" />
<glyph unicode="0" d="M86 580v206q0 285 108.5 435.5t389.5 150.5q145 0 244.5 -42t153.5 -123t76.5 -182t22.5 -239v-206q0 -113 -11 -197t-43 -165t-86 -132t-144 -82t-213 -31q-154 0 -255.5 44t-152.5 132.5t-70.5 189t-19.5 241.5zM377 580q0 -72 2 -116t13 -99.5t32.5 -86t61.5 -52 t97.5 -21.5t97.5 21.5t61.5 52t32.5 86t13.5 99.5t2.5 116v206q0 72 -3.5 115t-14.5 93t-32.5 77t-60.5 45.5t-96.5 18.5t-96 -18.5t-60 -45.5t-33 -77t-14.5 -93t-3 -115v-206z" />
<glyph unicode="1" horiz-adv-x="903" d="M31 1075v29l420 244h223v-1348h-287v858l10 160l-6 2l-260 -135z" />
<glyph unicode="2" horiz-adv-x="1064" d="M74 0v213q352 356 463 481q121 135 120 264q0 82 -49 126t-123 44q-145 0 -266 -114l-129 174v29q102 80 197.5 117.5t230.5 37.5q180 0 303 -101.5t123 -285.5q0 -190 -149 -383q-74 -94 -359 -366l2 -9q205 14 529 15v-242h-893z" />
<glyph unicode="3" horiz-adv-x="1064" d="M70 59v29l67 211q152 -80 299 -80q240 0 240 191q0 172 -270 172h-89l-16 18l8 211h70q258 0 258 172q0 147 -184 147q-125 0 -238 -75l-117 182v27q188 109 412 108q184 0 292.5 -98t108.5 -230q0 -211 -188 -319v-12q229 -80 229 -340q0 -203 -136 -301.5t-351 -98.5 q-217 0 -395 86z" />
<glyph unicode="4" d="M88 244v231l291 873h305l-326 -867l2 -6q180 4 279 4v295l276 25v-320q111 2 158 2v-237q-47 0 -158 2v-246h-276v246q-250 -2 -551 -2z" />
<glyph unicode="5" horiz-adv-x="1064" d="M61 49v27l70 215q139 -72 295 -72q106 0 180 49t74 164q0 106 -99.5 153.5t-244.5 47.5q-98 0 -168 -6l-18 18l36 703h727v-242q-115 0 -487 4l-25 -258q555 -18 555 -436q0 -217 -139 -330t-371 -113q-225 0 -385 76z" />
<glyph unicode="6" d="M115 557q0 84 3 151.5t16 155.5t34.5 155.5t61.5 136.5t95.5 114t138.5 73.5t187 28.5q233 0 379 -112v-29l-131 -187q-102 82 -231 82q-78 0 -130.5 -28.5t-81 -85t-39.5 -103.5t-22 -121l6 -6q102 76 269 76q182 0 290.5 -124t108.5 -308q0 -90 -23.5 -166 t-74.5 -143.5t-146.5 -105.5t-224.5 -38q-264 0 -374.5 148.5t-110.5 435.5zM391 434q0 -29 6 -59.5t23.5 -74.5t61.5 -71.5t108 -27.5q205 0 205 217q0 225 -193 225q-72 0 -119 -21.5t-64.5 -59.5t-22.5 -64.5t-5 -63.5z" />
<glyph unicode="7" horiz-adv-x="997" d="M16 1106v242h912v-230q-193 -612 -346 -1118h-326q240 688 383 1106l-2 6q-283 -6 -621 -6z" />
<glyph unicode="8" d="M104 356q0 131 57.5 208t198.5 147v8q-197 76 -196 313q0 174 126 258t294 84t294 -84t126 -258q0 -211 -197 -301v-8q123 -51 189.5 -133t66.5 -234q0 -68 -23.5 -131t-76 -121.5t-149.5 -94.5t-230 -36t-230.5 36t-149.5 94.5t-76 121.5t-24 131zM381 383 q0 -90 54 -139t148.5 -49t149.5 49t55 139q0 84 -61 137t-156 78q-190 -74 -190 -215zM424 1008q0 -78 41 -120t131 -69q147 55 147 189q0 63 -37.5 105t-121.5 42t-122 -42t-38 -105z" />
<glyph unicode="9" d="M98 920q0 90 23.5 165.5t75 143t146.5 105.5t224 38q256 0 371 -148.5t115 -445.5q0 -119 -5.5 -201.5t-21.5 -184t-52 -169t-92.5 -129t-147.5 -91.5t-210 -30q-229 0 -374 105v28l118 197q113 -90 242 -90q63 0 109.5 18.5t72 44t43 75.5t23.5 90t14 112l-6 6 q-100 -76 -260 -76q-186 0 -297 123.5t-111 313.5zM375 922q0 -225 190 -226q211 0 211 217q0 29 -6 58.5t-23.5 71.5t-61.5 68t-107 26q-203 0 -203 -215z" />
<glyph unicode=":" horiz-adv-x="501" d="M86 137q0 70 48 119t120 49q70 0 119 -49t49 -119q0 -72 -49 -120t-119 -48q-72 0 -120 48t-48 120zM86 821q0 70 48 119t120 49q70 0 119 -49t49 -119q0 -72 -49 -120t-119 -48q-72 0 -120 48t-48 120z" />
<glyph unicode=";" horiz-adv-x="501" d="M86 -307l29 569l266 6l20 -20l-100 -555h-215zM88 821q0 70 48 119t120 49q70 0 119 -49t49 -119q0 -72 -48 -120t-120 -48t-120 48t-48 120z" />
<glyph unicode="&#x3c;" d="M152 524v230l766 362l98 -227l-539 -250l539 -250l-98 -229z" />
<glyph unicode="=" d="M164 283v252h840v-252h-840zM164 741v252h840v-252h-840z" />
<glyph unicode="&#x3e;" d="M152 387l538 252l-538 248l98 229l766 -362v-230l-766 -364z" />
<glyph unicode="?" horiz-adv-x="831" d="M27 1315v24q188 94 393 95q188 0 299.5 -96.5t111.5 -262.5q0 -61 -9 -110.5t-40.5 -99.5t-47 -71.5t-72 -83t-72.5 -79.5q-37 -41 -47.5 -65.5t-10.5 -71.5v-56h-258v66q0 125 74 219q27 35 71 85t63.5 74.5t37 63.5t17.5 80q0 72 -44 115t-128 43q-111 0 -226 -82z M238 137.5q0 69.5 48 117.5t117 48q72 0 120 -48t48 -117.5t-48 -119t-120 -49.5q-70 0 -117.5 49.5t-47.5 119z" />
<glyph unicode="@" horiz-adv-x="2990" d="M25 440v805h309q29 0 53.5 -2t76.5 -23.5t88 -60.5t64.5 -121t28.5 -194q0 -115 -30.5 -197t-67.5 -121t-91.5 -60.5t-80 -23.5t-53.5 -2h-297zM31 -68h26l-2 86q23 -23 45 -22q57 0 58 88q0 76 -58 76q-25 0 -45 -21l-4 17h-20v-224zM55 41v76q23 23 45 22q31 0 31 -57 q0 -63 -33 -64q-20 0 -43 23zM199 0v236h26v-236h-26zM236 625h40q31 0 49.5 4t45 22.5t40 67.5t13.5 125q0 78 -11.5 126t-36 66.5t-42 22.5t-47.5 4h-51v-438zM266 80q0 80 66 80q63 0 63 -74l-4 -12h-98q0 -55 41 -56q23 0 41 21l14 -16q-27 -27 -57 -27q-66 0 -66 84z M295 92h72q0 47 -35 47q-37 0 -37 -47zM426 43q0 35 22.5 44t71.5 11v15q0 25 -24 24q-16 0 -54 -12l-10 20q37 14 70 15q45 0 45 -47v-113h-21l-4 18h-2q-23 -23 -51 -22q-43 0 -43 47zM453 45q0 -27 18 -27q27 0 49 23v39q-57 -2 -65 -21q-2 -6 -2 -14zM584 18v5l12 16 q20 -20 45 -21q31 0 31 25q0 6 -4 11t-8.5 7t-12.5 4.5t-10 4.5q-45 18 -45 45q0 45 55 45q29 0 45 -15v-4l-10 -16q-14 14 -37 14q-29 0 -29 -20q0 -6 1 -9.5t6.5 -6.5t8.5 -5t10 -4t11 -4q43 -16 43 -43q0 -51 -57 -51q-28 -1 -55 22zM729 80q0 80 66 80q63 0 63 -74 l-4 -12h-98q0 -55 41 -56q23 0 41 21l14 -16q-27 -27 -57 -27q-66 0 -66 84zM735 440v805h479v-182q-145 0 -274 2q0 -63 -2 -131q86 2 192 2v-166h-192q2 -82 2 -147q129 2 287 2v-185h-492zM758 92h71q0 47 -34 47q-37 0 -37 -47zM958 0v233h25v-233h-25zM1036 0v156h27 v-156h-27zM1036 188v39h27v-39h-27zM1106 80q0 33 18.5 56.5t51.5 23.5q29 0 45 -17l-13 -18q-14 14 -32 14q-43 0 -43 -59q0 -61 41 -62q18 0 34 17l15 -17q-27 -23 -52 -22q-65 0 -65 84zM1247 80q0 80 66 80q63 0 63 -74l-4 -12h-98q0 -55 41 -56q23 0 41 21l14 -16 q-27 -27 -57 -27q-66 0 -66 84zM1276 92h72q0 47 -35 47q-37 0 -37 -47zM1335 440q0 6 2 207t4 400l2 198h299l89 -268q16 -51 26 -109h4q10 57 27 109l86 268h291l2 -198q0 -199 2 -400t2 -207h-217q0 381 14 580h-4q-18 -80 -51 -184l-80 -246h-168l-82 246 q-35 113 -49 184h-4q16 -268 16 -580h-211zM1415 0v156h23l2 -17q33 20 57 21q35 0 35 -45v-115h-27v115q0 23 -18 22q-16 0 -45 -18v-119h-27zM1571 18v5l12 16q20 -20 45 -21q31 0 31 25q0 16 -33 27q-47 16 -47 45q0 45 53 45q27 0 47 -15v-4l-10 -16q-14 14 -39 14 q-27 0 -26 -20q0 -12 6 -16.5t30 -12.5q43 -16 43 -43q0 -51 -57 -51q-28 -1 -55 22zM1716 80q0 80 66 80q63 0 63 -74l-4 -12h-98q0 -55 41 -56q23 0 41 21l14 -16q-27 -27 -57 -27q-66 0 -66 84zM1745 92h72q0 47 -35 47q-37 0 -37 -47zM1927 133v23h27v53h24v-53h39v-23 h-39v-88q0 -12 2 -16t15 -4h22v-25h-28q-35 0 -35 39v94h-27zM2052 0v236h27l-2 -97q33 20 57 21q35 0 35 -45v-115h-27v115q0 23 -18.5 22.5t-44.5 -18.5v-119h-27zM2210 80q0 80 65 80q63 0 64 -74l-4 -12h-99q0 -55 41 -56q23 0 41 21l15 -16q-27 -27 -58 -27 q-65 0 -65 84zM2238 92h72q0 47 -35 47q-37 0 -37 -47zM2255 856q0 184 89 298t267 114q180 0 269.5 -114t89.5 -298q0 -82 -19.5 -155.5t-59.5 -136t-112 -100.5t-168 -38q-182 0 -269 126t-87 304zM2425 133v23h24v37q0 43 43 43q20 0 35 -9l-8 -18q-8 6 -22 6 q-20 0 -21 -22v-37h41v-23h-41v-133h-27v133h-24zM2478 856q0 -244 133 -244t133 244q0 104 -27.5 162.5t-105.5 58.5q-133 0 -133 -221zM2535 80q0 35 19.5 57.5t50.5 22.5q33 0 52.5 -22.5t19.5 -57.5q0 -31 -18.5 -57.5t-53.5 -26.5t-52.5 26.5t-17.5 57.5zM2564 80 q0 -63 41 -64q45 0 45 64q0 59 -45 59q-41 0 -41 -59zM2716 0v156h22l2 -17q33 20 58 21q35 0 34 -45v-115h-26v115q0 23 -18.5 22.5t-45.5 -18.5v-119h-26zM2865 133v23h27v53h24v-53h39v-23h-39v-88q0 -12 2 -16t15 -4h22v-25h-28q-35 0 -35 39v94h-27z" />
<glyph unicode="A" horiz-adv-x="1249" d="M25 0q367 1208 428 1403h352q59 -190 129 -426t156 -525.5t133 -451.5h-320l-88 317h-395l-88 -317h-307zM471 539h303l-78 297q-4 20 -69 286h-6q-10 -63 -70 -286z" />
<glyph unicode="B" horiz-adv-x="1232" d="M143 0v1403h455q41 0 72.5 -2t99.5 -11.5t118 -35t102 -64.5t81 -109.5t29 -160.5q0 -186 -152 -281l-12 -6l12 -4q211 -98 211 -340q0 -111 -44 -189.5t-99 -115.5t-138 -58.5t-124 -23.5t-92 -2h-519zM418 608q2 -147 2 -366q94 2 221 2q43 0 70.5 3t71.5 18.5t67.5 55 t23.5 101.5q0 53 -18 90t-40.5 54.5t-61.5 27.5t-59.5 11t-53.5 1q-129 0 -223 2zM418 819q86 2 180 2q41 0 69.5 3t72.5 17.5t69 52.5t25 97.5t-25 96t-69 51t-72.5 17.5t-69.5 3q-92 0 -178 2q0 -195 -2 -342z" />
<glyph unicode="C" horiz-adv-x="1163" d="M74 721q0 111 21.5 213t68.5 194.5t114.5 161t166 108.5t214.5 40q238 0 426 -131l-135 -217q-119 88 -272 88q-84 0 -144.5 -41t-93 -110t-47 -144.5t-14.5 -161.5q0 -88 13.5 -169t45 -159t95 -124t151.5 -46q150 0 281 125l147 -190q-199 -184 -457 -185 q-152 0 -268.5 64.5t-182 174.5t-98 238t-32.5 271z" />
<glyph unicode="D" horiz-adv-x="1265" d="M143 0v1403h484q33 0 60.5 -2t90 -15.5t110.5 -38t108.5 -76.5t100.5 -124t67.5 -187.5t27.5 -259.5q0 -113 -17.5 -208t-44 -162.5t-68.5 -121.5t-81 -88t-89 -58.5t-87 -36t-82 -17.5t-64.5 -7t-44.5 -1h-471zM428 246h113q41 0 65.5 1t66.5 10t68.5 25.5t58 50.5 t50 81t32 119.5t13.5 166.5q0 92 -12.5 165t-29.5 120t-48 81t-56.5 51.5t-66.5 25.5t-65.5 10t-65.5 2h-123v-909z" />
<glyph unicode="E" horiz-adv-x="1091" d="M143 0v1403h838v-252q-336 0 -557 2q0 -207 -2 -319q170 2 448 2v-230q-279 0 -448 2q2 -176 2 -360q225 4 577 4v-252h-858z" />
<glyph unicode="F" horiz-adv-x="1026" d="M143 0v1403h832v-252q-330 0 -545 2q0 -199 -4 -334q166 4 444 4v-231q-291 0 -442 2q4 -446 4 -594h-289z" />
<glyph unicode="G" horiz-adv-x="1282" d="M74 721q0 317 166 517t483 200q209 0 395 -97l-117 -233q-113 70 -276 70q-352 0 -352 -457q0 -268 97 -382t282 -114q76 0 122 13q0 143 5 364q-133 -2 -181 -2q0 2 -2 117v114h453v-770q-133 -80 -406 -79q-322 0 -495.5 199.5t-173.5 539.5z" />
<glyph unicode="H" horiz-adv-x="1339" d="M143 0v1403h291q0 -393 -4 -555h479q-4 324 -4 555h291v-1403h-291q0 346 4 614h-479q4 -268 4 -614h-291z" />
<glyph unicode="I" horiz-adv-x="579" d="M143 0v1403h293v-1403h-293z" />
<glyph unicode="J" horiz-adv-x="630" d="M2 -82l39 19q96 45 129 92t35 170q0 18 -4 228t-4 232v744h290v-1202q0 -186 -56 -283.5t-216 -167.5l-104 -45z" />
<glyph unicode="K" horiz-adv-x="1286" d="M143 0v1403h291q0 -346 -4 -635h6q39 76 90 145l383 490h342l-495 -606q51 -86 135 -221.5t192.5 -308.5t167.5 -267h-340q-27 49 -167 285.5t-187 322.5q-16 -18 -60 -66t-67 -75q4 -430 4 -467h-291z" />
<glyph unicode="L" horiz-adv-x="983" d="M143 0v1403h291q0 -952 -4 -1157q223 6 498 6v-252h-785z" />
<glyph unicode="M" horiz-adv-x="1673" d="M139 0q0 8 3 358.5t6.5 696.5t3.5 348h409l232 -612q29 -78 49 -177h6q12 72 49 177l225 612h404l4 -694q4 -696 4 -709h-291q0 729 14 1094l-8 2q-49 -164 -119 -353l-180 -483h-239l-183 483q-84 217 -114 353l-8 -2q18 -481 18 -1094h-285z" />
<glyph unicode="N" horiz-adv-x="1339" d="M141 0l2 1403h303l330 -604q66 -123 152 -361l8 2q-25 248 -25 561v402h287l-4 -1403h-311l-326 604q-66 121 -151 357l-9 -3q29 -221 29 -581v-377h-285z" />
<glyph unicode="O" horiz-adv-x="1351" d="M74 721q0 309 151.5 513t448.5 204q299 0 451.5 -204t152.5 -513q0 -113 -19.5 -217.5t-65.5 -201.5t-113.5 -170t-172 -116t-233.5 -43q-127 0 -230.5 43t-171 116t-113.5 170t-65.5 201.5t-19.5 217.5zM373 721q0 -92 13 -174t45 -160t94.5 -124t148.5 -46 q88 0 151.5 46t95 124t45 160t13.5 174q0 127 -24.5 224t-95.5 169t-185 72q-84 0 -145.5 -40t-94.5 -108.5t-47 -146.5t-14 -170z" />
<glyph unicode="P" horiz-adv-x="1169" d="M143 0v1403h502q39 0 68.5 -3t93 -13.5t111 -40t96.5 -75.5t75.5 -128t26.5 -189q0 -111 -37 -196.5t-89 -131.5t-118.5 -76t-115.5 -38t-90 -8q-164 0 -242 2q6 -504 6 -506h-287zM426 731q70 2 184 2q231 0 232 213q0 59 -18.5 101.5t-41 62.5t-60.5 30.5t-59.5 12.5 t-52.5 2q-119 0 -182 2q0 -266 -2 -426z" />
<glyph unicode="Q" horiz-adv-x="1351" d="M74 721q0 309 151.5 513t448.5 204q299 0 451.5 -204t152.5 -513q0 -188 -58.5 -354t-179.5 -265q84 -72 310 -141l-111 -256q-332 104 -477 277q-35 -8 -88 -9q-127 0 -230.5 43t-171 116t-113.5 170t-65.5 201.5t-19.5 217.5zM373 721q0 -92 13 -174t45 -160t94.5 -124 t148.5 -46q88 0 151.5 46t95 124t45 160t13.5 174q0 127 -24.5 224t-95.5 169t-185 72q-84 0 -145.5 -40t-94.5 -108.5t-47 -146.5t-14 -170z" />
<glyph unicode="R" horiz-adv-x="1230" d="M143 0v1403h475q33 0 58.5 -1t80 -9.5t95.5 -21.5t91 -44t84 -72t56.5 -107.5t22.5 -150.5q0 -268 -236 -364v-6q61 -18 105.5 -89t66.5 -147l119 -391h-305l-108 387q-27 90 -70 126t-113 36q-66 0 -141 2q0 -96 2 -231.5t3 -224.5t1 -95h-287zM426 778q72 2 178 2 q41 0 67.5 4t69.5 19.5t66.5 57.5t23.5 108q0 53 -18 91t-40.5 55.5t-59.5 27.5t-57.5 11t-51.5 1q-117 0 -176 2q0 -223 -2 -379z" />
<glyph unicode="S" horiz-adv-x="1118" d="M47 127l111 240q170 -150 389 -150q84 0 139 45t55 119q0 59 -46 105t-114.5 75t-149.5 70t-149.5 86t-114.5 129t-46 194q0 180 128 289t339 109q223 0 393 -92l-96 -246q-150 90 -301 90q-80 0 -132.5 -35t-52.5 -102q0 -49 36 -90t92.5 -72t125 -62.5t136 -70.5 t124 -84t92 -115t35.5 -153q0 -217 -143 -325t-367 -108q-286 0 -483 154z" />
<glyph unicode="T" horiz-adv-x="1130" d="M33 1151v252h1050v-252q-238 0 -378 4v-1155h-291v1155q-139 -4 -381 -4z" />
<glyph unicode="U" horiz-adv-x="1318" d="M137 496v907h291v-860q0 -104 18.5 -171t55.5 -97.5t73.5 -40t94.5 -9.5q129 0 175 65.5t46 186.5v926h291v-981q0 -201 -143.5 -325t-374.5 -124q-113 0 -197 20.5t-164 73t-123 161t-43 268.5z" />
<glyph unicode="V" horiz-adv-x="1255" d="M27 1403h311l211 -690q53 -170 88 -371h10q23 162 82 371l199 690h301l-453 -1403h-297z" />
<glyph unicode="W" horiz-adv-x="1792" d="M29 1403h315l125 -541q39 -166 94 -532h10q18 219 66 463l115 610h299l123 -610q43 -215 61 -463h12q33 291 90 532l125 541h299l-354 -1403h-336l-125 625q-29 137 -49 329h-8q-14 -164 -47 -331l-123 -623h-342z" />
<glyph unicode="X" horiz-adv-x="1191" d="M12 0l404 745l-365 658h330l119 -236q86 -172 100 -202h6q37 86 101 202l127 236h305l-369 -655l412 -748h-330l-170 328q-59 115 -90 196h-8q-35 -86 -92 -196l-175 -328h-305z" />
<glyph unicode="Y" horiz-adv-x="1150" d="M6 1403h322l164 -369q74 -172 92 -262h6q23 98 92 262l164 369h299l-424 -868v-535h-291v530z" />
<glyph unicode="Z" horiz-adv-x="1083" d="M78 0v225l450 723q61 100 144 207q-231 -4 -570 -4v252h899v-223l-452 -719q-78 -125 -146 -215q225 6 594 6v-252h-919z" />
<glyph unicode="[" horiz-adv-x="724" d="M150 -242v1887h505v-201h-235v-1485h235v-201h-505z" />
<glyph unicode="\" horiz-adv-x="794" d="M31 1520h268l465 -1854h-268z" />
<glyph unicode="]" horiz-adv-x="724" d="M70 -41h235v1485h-235v201h505v-1887h-505v201z" />
<glyph unicode="^" d="M78 803l395 719h221l396 -719l-211 -111l-285 527h-21l-284 -527z" />
<glyph unicode="_" horiz-adv-x="1003" d="M0 -154h1004v-102h-1004v102z" />
<glyph unicode="`" horiz-adv-x="1060" d="M193 1397l10 28h305l231 -305h-231z" />
<glyph unicode="a" horiz-adv-x="1019" d="M70 272q0 66 17 118t42 87t72 60.5t85 40t105.5 23.5t110.5 13t121 9v63q0 113 -131 113q-137 0 -314 -68l-63 164v25q225 82 460 81q336 0 336 -303v-462q0 -113 7 -236h-230l-20 20l-25 78l-8 2q-139 -127 -307 -127q-78 0 -132.5 30t-80 79t-35.5 95t-10 95zM348 309 q0 -139 96 -139q90 0 179 90q0 6 2 103.5t2 103.5l-2 2q-72 -2 -105 -4t-75 -10.5t-57 -24.5t-27.5 -46t-12.5 -75z" />
<glyph unicode="b" horiz-adv-x="1087" d="M102 0q6 123 7 236v968q0 174 -7 236l277 8l20 -21q0 -391 -4 -528l4 -2q133 104 267 104q127 0 206.5 -68.5t109.5 -169.5t30 -237q0 -551 -353 -551q-135 0 -274 121l-8 -2l-25 -74l-20 -20h-230zM395 707q0 -23 2 -222.5t2 -205.5q37 -47 85 -78t89 -31q47 0 77 30.5 t42.5 88t15.5 101.5t3 110q0 59 -4.5 100t-17.5 89t-45 73.5t-79 25.5q-94 1 -170 -81z" />
<glyph unicode="c" horiz-adv-x="878" d="M70 496q0 231 117.5 368t349.5 137q176 0 299 -83v-25l-82 -162q-92 66 -183 66q-100 0 -148 -82t-48 -221q0 -328 178 -328q98 0 190 100l97 -145v-25q-141 -123 -332 -123q-225 0 -331.5 139.5t-106.5 383.5z" />
<glyph unicode="d" horiz-adv-x="1087" d="M76 494q0 211 89 359t265 148q145 0 258 -104l4 2q-4 160 -4 305q0 154 -8 236l278 8l21 -21v-1191q0 -113 6 -236h-229l-21 20l-26 78l-9 2q-150 -125 -276 -125q-348 1 -348 519zM377 494q0 -324 135 -324q41 0 90 30.5t86 75.5q0 10 2 214t2 217q-72 82 -162 81 q-153 1 -153 -294z" />
<glyph unicode="e" horiz-adv-x="1011" d="M66 494q0 229 110.5 368t343.5 139q225 0 327.5 -128t102.5 -343q0 -63 -20 -118q-45 0 -309.5 2t-266.5 2q2 -100 52.5 -176t160.5 -76q113 0 215 108l117 -131v-24q-164 -143 -364 -144q-238 0 -353.5 145t-115.5 376zM356 561q12 0 163 3t155 3q0 233 -154 234 q-156 0 -164 -240z" />
<glyph unicode="f" horiz-adv-x="684" d="M41 768l2 207q72 0 125 -2q0 4 -2 93t-2 91q0 164 85 241t226 77q125 0 232 -45v-31l-60 -164q-51 29 -102 29q-47 0 -70.5 -30t-23.5 -108v-88l2 -65q61 2 194 2l-2 -207q-133 0 -194 2q4 -193 4 -770h-291q0 193 6 770q-55 -2 -129 -2z" />
<glyph unicode="g" horiz-adv-x="1091" d="M76 494q0 211 89 359t265 148q145 0 272 -116l7 4l20 72l23 20l233 -6q-6 -61 -6 -187v-829q0 -199 -128 -300t-319 -101q-213 0 -382 100l73 182h25q123 -82 254 -82q90 0 139 44t49 124q0 25 10 168l-8 4q-135 -123 -268 -123q-348 1 -348 519zM377 494 q0 -324 135 -324q41 0 90 30.5t86 75.5q0 10 2 214t2 217q-72 82 -162 81q-153 1 -153 -294z" />
<glyph unicode="h" horiz-adv-x="1075" d="M102 1440l277 8l20 -21v-235q0 -8 -1 -152.5t-1 -154.5q162 115 322 114q111 0 176.5 -70.5t65.5 -219.5q0 -10 -3.5 -354.5t-3.5 -354.5h-290q0 8 4 321.5t4 323.5q0 78 -20.5 109.5t-73.5 31.5q-76 0 -181 -69l2 -717h-290v1192q-1 185 -7 248z" />
<glyph unicode="i" horiz-adv-x="534" d="M119 975l276 4l21 -21v-958h-291v739q0 113 -6 236zM125 1135v266l20 20h271v-286h-291z" />
<glyph unicode="j" horiz-adv-x="538" d="M-8 -268q88 61 112.5 108t24.5 168v731q0 113 -6 236l276 4l21 -21v-921q0 -188 -62.5 -287.5t-230.5 -202.5l-135 156v29zM129 1135v266l21 20h270v-286h-291z" />
<glyph unicode="k" horiz-adv-x="1044" d="M102 1440l275 8l20 -21q0 -565 -6 -827l10 -4q92 150 136 203l145 176l299 6l14 -27l-333 -389l382 -565h-335q-127 195 -230 389l-86 -96l4 -293h-288v1204q-1 175 -7 236z" />
<glyph unicode="l" horiz-adv-x="520" d="M102 1440l277 8l20 -21v-1191q0 -154 9 -236h-291q-8 82 -8 236v968q-1 175 -7 236z" />
<glyph unicode="m" horiz-adv-x="1589" d="M106 975l242 6l23 -20l14 -80l4 -2q147 121 316 120q143 0 198 -125q162 125 334 125q106 0 172 -70.5t66 -219.5q0 -10 -3.5 -354.5t-3.5 -354.5h-290q0 8 4 321.5t4 323.5q0 76 -21.5 108.5t-68.5 32.5q-80 0 -164 -67v-719h-283q0 8 2 321.5t2 323.5q0 76 -19.5 108.5 t-64.5 32.5q-82 0 -168 -69l2 -717h-290v723q-1 123 -7 252z" />
<glyph unicode="n" horiz-adv-x="1079" d="M106 975l242 6l23 -20l14 -80l4 -2q72 53 163 86.5t171 33.5q111 0 176.5 -70.5t65.5 -219.5q0 -10 -3.5 -354.5t-3.5 -354.5h-290q0 8 4 321.5t4 323.5q0 78 -20.5 109.5t-73.5 31.5q-76 0 -181 -69l2 -717h-290v723q-1 123 -7 252z" />
<glyph unicode="o" horiz-adv-x="1073" d="M63 492q0 229 116 369t358 140q238 0 355.5 -140t117.5 -369q0 -94 -24.5 -180.5t-76 -165t-147.5 -126t-225 -47.5q-131 0 -227.5 47.5t-147.5 126t-75 165t-24 180.5zM365 487q0 -336 172 -335.5t172 335.5q0 313 -172 314q-70 0 -110 -47t-51 -111t-11 -156z" />
<glyph unicode="p" horiz-adv-x="1091" d="M106 975l242 6l23 -20l14 -82l6 -2q111 125 279 124q127 0 206.5 -68.5t109.5 -169.5t30 -237q0 -551 -352 -551q-137 0 -267 115l-8 -2q14 -160 14 -522h-270l-20 20v1153q-1 113 -7 236zM399 707q0 -23 2 -222.5t2 -205.5q37 -47 85.5 -78t89.5 -31q47 0 76.5 30.5 t42 88t15.5 101.5t3 110q0 59 -4 100t-17.5 89t-45.5 73.5t-79 25.5q-94 1 -170 -81z" />
<glyph unicode="q" horiz-adv-x="1091" d="M76 494q0 211 89 359t265 148q145 0 272 -116l7 4l20 72l23 20l233 -6q-6 -61 -6 -187v-1202l-21 -20h-270v176q0 244 12 352l-8 4q-135 -123 -268 -123q-348 1 -348 519zM377 494q0 -324 135 -324q41 0 90 30.5t86 75.5q0 10 2 214t2 217q-72 82 -162 81 q-153 1 -153 -294z" />
<glyph unicode="r" horiz-adv-x="702" d="M106 975l228 6l22 -20q12 -131 13 -144l12 -2q43 68 112.5 117t131.5 59l22 -20l51 -205q-84 -20 -170 -70.5t-125 -115.5v-580h-290v637q-1 215 -7 338z" />
<glyph unicode="s" horiz-adv-x="870" d="M47 94v25l86 153q125 -113 250 -112q55 0 97 26.5t42 79.5q0 25 -10 43.5t-33.5 32.5t-44 23.5t-60.5 25t-65 25.5q-113 49 -173 111.5t-60 172.5q0 152 105.5 226.5t275.5 74.5q197 0 325 -83v-25l-82 -162q-96 72 -221 72q-123 0 -123 -90q0 -23 8.5 -39.5t33 -31.5 t39 -21.5t60.5 -22.5t62 -23q129 -49 189.5 -111.5t60.5 -178.5q0 -156 -108.5 -234t-286.5 -78q-207 0 -367 121z" />
<glyph unicode="t" horiz-adv-x="692" d="M37 768l2 207q59 0 123 -2q-4 225 -4 276l20 21h271q0 -141 -5 -297q72 2 189 2l-4 -207q-113 0 -185 2q2 -186 2 -444q0 -82 13.5 -102.5t79.5 -20.5h79l5 -183l-21 -20h-170q-92 0 -150.5 23.5t-84 70.5t-32.5 89t-7 108q0 287 4 479q-64 -2 -125 -2z" />
<glyph unicode="u" horiz-adv-x="1083" d="M102 264q0 10 3.5 355.5t3.5 355.5h270l20 -21q0 -10 -3 -316t-3 -321q0 -143 99 -143q45 0 100 26.5t92 65.5l-4 709h270l21 -21v-718q0 -113 6 -236h-229l-21 20l-25 82l-8 2q-139 -131 -334 -131q-119 0 -188.5 70.5t-69.5 220.5z" />
<glyph unicode="v" horiz-adv-x="993" d="M-10 975h317l109 -322q39 -119 82 -352h10q20 150 88 352l109 322h301l-375 -975h-275z" />
<glyph unicode="w" horiz-adv-x="1507" d="M6 975h311l93 -322q35 -117 67 -352h10q20 176 60 352l71 322h289l68 -322q27 -133 53 -352h10q27 186 78 352l96 322h295l-329 -975h-289l-72 279q-45 180 -63 333h-9q-29 -201 -65 -333l-76 -279h-289z" />
<glyph unicode="x" horiz-adv-x="976" d="M2 0l322 508l-306 467h324l45 -76q74 -119 111 -215h10q39 111 104 215l50 76h301l-320 -471l330 -504h-320l-57 90q-80 125 -115 221h-10q-49 -127 -104 -221l-54 -90h-311z" />
<glyph unicode="y" horiz-adv-x="1009" d="M6 975h320l104 -346q55 -174 84 -363h10q39 246 78 363l115 346h303l-369 -993q-78 -207 -193.5 -305.5t-353.5 -116.5l-51 194l10 27q125 6 197 52t113 149z" />
<glyph unicode="z" horiz-adv-x="882" d="M61 0v195l256 354q111 152 179 215l-2 8q-164 -8 -402 -8v211h713v-203l-260 -364q-86 -117 -156 -191l2 -6q338 10 428 10v-201l-20 -20h-738z" />
<glyph unicode="{" horiz-adv-x="724" d="M45 569v267h25q82 0 107.5 31.5t25.5 111.5v342q0 324 334 324h118v-195h-61q-78 0 -106.5 -30.5t-28.5 -112.5v-324q0 -102 -30 -165.5t-110 -102.5v-25q80 -39 110 -102.5t30 -165.5v-326q0 -82 28.5 -112.5t106.5 -30.5h61v-195h-118q-334 0 -334 324v344 q0 80 -25.5 111.5t-107.5 31.5h-25z" />
<glyph unicode="|" horiz-adv-x="712" d="M250 -614v2457h213v-2457h-213z" />
<glyph unicode="}" horiz-adv-x="724" d="M70 -47h61q78 0 106.5 30.5t28.5 112.5v326q0 102 30 165.5t110 102.5v25q-80 39 -110 102.5t-30 165.5v324q0 82 -28.5 112.5t-106.5 30.5h-61v195h118q334 0 334 -324v-342q0 -80 25.5 -111.5t107.5 -31.5h25v-267h-25q-82 0 -107.5 -31.5t-25.5 -111.5v-344 q0 -324 -334 -324h-118v195z" />
<glyph unicode="~" horiz-adv-x="1071" d="M27 594q129 231 323 231q86 0 197.5 -55t150.5 -55q84 0 162 110l184 -139q-129 -231 -323 -231q-86 0 -198.5 55t-151.5 55q-82 0 -160 -110z" />
<glyph unicode="&#xa1;" horiz-adv-x="579" d="M102 833.5q0 69.5 48.5 118.5t119.5 49q70 0 118 -49t48 -118.5t-48 -117.5t-118 -48q-72 0 -120 48t-48 117.5zM119 -432q0 178 11 506.5t13 457.5h252q2 -133 14.5 -460.5t12.5 -503.5h-303z" />
<glyph unicode="&#xa2;" d="M164 674q0 201 87 334t267 163l-2 252h227l-2 -249q156 -23 236 -101v-24l-156 -138q-66 70 -159 70q-197 0 -197 -311q0 -162 42 -248t148 -86q104 0 156 98l172 -100v-25q-88 -127 -242 -149l2 -250h-227l2 250q-354 55 -354 514z" />
<glyph unicode="&#xa3;" horiz-adv-x="2990" d="M25 440v805h309q29 0 53.5 -2t76.5 -23.5t88 -60.5t64.5 -121t28.5 -194q0 -115 -30.5 -197t-67.5 -121t-91.5 -60.5t-80 -23.5t-53.5 -2h-297zM31 -68h26l-2 86q23 -23 45 -22q57 0 58 88q0 76 -58 76q-25 0 -45 -21l-4 17h-20v-224zM55 41v76q23 23 45 22q31 0 31 -57 q0 -63 -33 -64q-20 0 -43 23zM199 0v236h26v-236h-26zM236 625h40q31 0 49.5 4t45 22.5t40 67.5t13.5 125q0 78 -11.5 126t-36 66.5t-42 22.5t-47.5 4h-51v-438zM266 80q0 80 66 80q63 0 63 -74l-4 -12h-98q0 -55 41 -56q23 0 41 21l14 -16q-27 -27 -57 -27q-66 0 -66 84z M295 92h72q0 47 -35 47q-37 0 -37 -47zM426 43q0 35 22.5 44t71.5 11v15q0 25 -24 24q-16 0 -54 -12l-10 20q37 14 70 15q45 0 45 -47v-113h-21l-4 18h-2q-23 -23 -51 -22q-43 0 -43 47zM453 45q0 -27 18 -27q27 0 49 23v39q-57 -2 -65 -21q-2 -6 -2 -14zM584 18v5l12 16 q20 -20 45 -21q31 0 31 25q0 6 -4 11t-8.5 7t-12.5 4.5t-10 4.5q-45 18 -45 45q0 45 55 45q29 0 45 -15v-4l-10 -16q-14 14 -37 14q-29 0 -29 -20q0 -6 1 -9.5t6.5 -6.5t8.5 -5t10 -4t11 -4q43 -16 43 -43q0 -51 -57 -51q-28 -1 -55 22zM729 80q0 80 66 80q63 0 63 -74 l-4 -12h-98q0 -55 41 -56q23 0 41 21l14 -16q-27 -27 -57 -27q-66 0 -66 84zM735 440v805h479v-182q-145 0 -274 2q0 -63 -2 -131q86 2 192 2v-166h-192q2 -82 2 -147q129 2 287 2v-185h-492zM758 92h71q0 47 -34 47q-37 0 -37 -47zM958 0v233h25v-233h-25zM1036 0v156h27 v-156h-27zM1036 188v39h27v-39h-27zM1106 80q0 33 18.5 56.5t51.5 23.5q29 0 45 -17l-13 -18q-14 14 -32 14q-43 0 -43 -59q0 -61 41 -62q18 0 34 17l15 -17q-27 -23 -52 -22q-65 0 -65 84zM1247 80q0 80 66 80q63 0 63 -74l-4 -12h-98q0 -55 41 -56q23 0 41 21l14 -16 q-27 -27 -57 -27q-66 0 -66 84zM1276 92h72q0 47 -35 47q-37 0 -37 -47zM1335 440q0 6 2 207t4 400l2 198h299l89 -268q16 -51 26 -109h4q10 57 27 109l86 268h291l2 -198q0 -199 2 -400t2 -207h-217q0 381 14 580h-4q-18 -80 -51 -184l-80 -246h-168l-82 246 q-35 113 -49 184h-4q16 -268 16 -580h-211zM1415 0v156h23l2 -17q33 20 57 21q35 0 35 -45v-115h-27v115q0 23 -18 22q-16 0 -45 -18v-119h-27zM1571 18v5l12 16q20 -20 45 -21q31 0 31 25q0 16 -33 27q-47 16 -47 45q0 45 53 45q27 0 47 -15v-4l-10 -16q-14 14 -39 14 q-27 0 -26 -20q0 -12 6 -16.5t30 -12.5q43 -16 43 -43q0 -51 -57 -51q-28 -1 -55 22zM1716 80q0 80 66 80q63 0 63 -74l-4 -12h-98q0 -55 41 -56q23 0 41 21l14 -16q-27 -27 -57 -27q-66 0 -66 84zM1745 92h72q0 47 -35 47q-37 0 -37 -47zM1927 133v23h27v53h24v-53h39v-23 h-39v-88q0 -12 2 -16t15 -4h22v-25h-28q-35 0 -35 39v94h-27zM2052 0v236h27l-2 -97q33 20 57 21q35 0 35 -45v-115h-27v115q0 23 -18.5 22.5t-44.5 -18.5v-119h-27zM2210 80q0 80 65 80q63 0 64 -74l-4 -12h-99q0 -55 41 -56q23 0 41 21l15 -16q-27 -27 -58 -27 q-65 0 -65 84zM2238 92h72q0 47 -35 47q-37 0 -37 -47zM2255 856q0 184 89 298t267 114q180 0 269.5 -114t89.5 -298q0 -82 -19.5 -155.5t-59.5 -136t-112 -100.5t-168 -38q-182 0 -269 126t-87 304zM2425 133v23h24v37q0 43 43 43q20 0 35 -9l-8 -18q-8 6 -22 6 q-20 0 -21 -22v-37h41v-23h-41v-133h-27v133h-24zM2478 856q0 -244 133 -244t133 244q0 104 -27.5 162.5t-105.5 58.5q-133 0 -133 -221zM2535 80q0 35 19.5 57.5t50.5 22.5q33 0 52.5 -22.5t19.5 -57.5q0 -31 -18.5 -57.5t-53.5 -26.5t-52.5 26.5t-17.5 57.5zM2564 80 q0 -63 41 -64q45 0 45 64q0 59 -45 59q-41 0 -41 -59zM2716 0v156h22l2 -17q33 20 58 21q35 0 34 -45v-115h-26v115q0 23 -18.5 22.5t-45.5 -18.5v-119h-26zM2865 133v23h27v53h24v-53h39v-23h-39v-88q0 -12 2 -16t15 -4h22v-25h-28q-35 0 -35 39v94h-27z" />
<glyph unicode="&#xa4;" d="M78 301l166 150q-35 84 -35 217q0 115 33 198l-164 150l160 162l157 -152q80 35 189 35q111 0 186 -35l160 152l160 -162l-166 -150q35 -82 34 -198q0 -127 -34 -217l166 -150l-160 -162l-160 150q-68 -33 -186 -33q-117 0 -189 33l-157 -150zM442 668q0 -80 6.5 -126 t39 -85t96 -39t96.5 39t39 85t6 126q0 57 -4 92t-17.5 69.5t-43 51t-76.5 16.5t-77 -16.5t-43 -51t-17.5 -69.5t-4.5 -92z" />
<glyph unicode="&#xa5;" d="M25 1393h315l158 -367q61 -139 92 -266h10q25 109 90 266l158 367h295l-277 -570h205v-168h-283l-63 -127v-34h336v-168h-334v-326h-287v326h-334v168h336v30l-65 131h-281v168h203z" />
<glyph unicode="&#xa6;" horiz-adv-x="712" d="M250 383h213v-997h-213v997zM250 846v997h213v-997h-213z" />
<glyph unicode="&#xa7;" horiz-adv-x="2990" d="M25 440v805h309q29 0 53.5 -2t76.5 -23.5t88 -60.5t64.5 -121t28.5 -194q0 -115 -30.5 -197t-67.5 -121t-91.5 -60.5t-80 -23.5t-53.5 -2h-297zM31 -68h26l-2 86q23 -23 45 -22q57 0 58 88q0 76 -58 76q-25 0 -45 -21l-4 17h-20v-224zM55 41v76q23 23 45 22q31 0 31 -57 q0 -63 -33 -64q-20 0 -43 23zM199 0v236h26v-236h-26zM236 625h40q31 0 49.5 4t45 22.5t40 67.5t13.5 125q0 78 -11.5 126t-36 66.5t-42 22.5t-47.5 4h-51v-438zM266 80q0 80 66 80q63 0 63 -74l-4 -12h-98q0 -55 41 -56q23 0 41 21l14 -16q-27 -27 -57 -27q-66 0 -66 84z M295 92h72q0 47 -35 47q-37 0 -37 -47zM426 43q0 35 22.5 44t71.5 11v15q0 25 -24 24q-16 0 -54 -12l-10 20q37 14 70 15q45 0 45 -47v-113h-21l-4 18h-2q-23 -23 -51 -22q-43 0 -43 47zM453 45q0 -27 18 -27q27 0 49 23v39q-57 -2 -65 -21q-2 -6 -2 -14zM584 18v5l12 16 q20 -20 45 -21q31 0 31 25q0 6 -4 11t-8.5 7t-12.5 4.5t-10 4.5q-45 18 -45 45q0 45 55 45q29 0 45 -15v-4l-10 -16q-14 14 -37 14q-29 0 -29 -20q0 -6 1 -9.5t6.5 -6.5t8.5 -5t10 -4t11 -4q43 -16 43 -43q0 -51 -57 -51q-28 -1 -55 22zM729 80q0 80 66 80q63 0 63 -74 l-4 -12h-98q0 -55 41 -56q23 0 41 21l14 -16q-27 -27 -57 -27q-66 0 -66 84zM735 440v805h479v-182q-145 0 -274 2q0 -63 -2 -131q86 2 192 2v-166h-192q2 -82 2 -147q129 2 287 2v-185h-492zM758 92h71q0 47 -34 47q-37 0 -37 -47zM958 0v233h25v-233h-25zM1036 0v156h27 v-156h-27zM1036 188v39h27v-39h-27zM1106 80q0 33 18.5 56.5t51.5 23.5q29 0 45 -17l-13 -18q-14 14 -32 14q-43 0 -43 -59q0 -61 41 -62q18 0 34 17l15 -17q-27 -23 -52 -22q-65 0 -65 84zM1247 80q0 80 66 80q63 0 63 -74l-4 -12h-98q0 -55 41 -56q23 0 41 21l14 -16 q-27 -27 -57 -27q-66 0 -66 84zM1276 92h72q0 47 -35 47q-37 0 -37 -47zM1335 440q0 6 2 207t4 400l2 198h299l89 -268q16 -51 26 -109h4q10 57 27 109l86 268h291l2 -198q0 -199 2 -400t2 -207h-217q0 381 14 580h-4q-18 -80 -51 -184l-80 -246h-168l-82 246 q-35 113 -49 184h-4q16 -268 16 -580h-211zM1415 0v156h23l2 -17q33 20 57 21q35 0 35 -45v-115h-27v115q0 23 -18 22q-16 0 -45 -18v-119h-27zM1571 18v5l12 16q20 -20 45 -21q31 0 31 25q0 16 -33 27q-47 16 -47 45q0 45 53 45q27 0 47 -15v-4l-10 -16q-14 14 -39 14 q-27 0 -26 -20q0 -12 6 -16.5t30 -12.5q43 -16 43 -43q0 -51 -57 -51q-28 -1 -55 22zM1716 80q0 80 66 80q63 0 63 -74l-4 -12h-98q0 -55 41 -56q23 0 41 21l14 -16q-27 -27 -57 -27q-66 0 -66 84zM1745 92h72q0 47 -35 47q-37 0 -37 -47zM1927 133v23h27v53h24v-53h39v-23 h-39v-88q0 -12 2 -16t15 -4h22v-25h-28q-35 0 -35 39v94h-27zM2052 0v236h27l-2 -97q33 20 57 21q35 0 35 -45v-115h-27v115q0 23 -18.5 22.5t-44.5 -18.5v-119h-27zM2210 80q0 80 65 80q63 0 64 -74l-4 -12h-99q0 -55 41 -56q23 0 41 21l15 -16q-27 -27 -58 -27 q-65 0 -65 84zM2238 92h72q0 47 -35 47q-37 0 -37 -47zM2255 856q0 184 89 298t267 114q180 0 269.5 -114t89.5 -298q0 -82 -19.5 -155.5t-59.5 -136t-112 -100.5t-168 -38q-182 0 -269 126t-87 304zM2425 133v23h24v37q0 43 43 43q20 0 35 -9l-8 -18q-8 6 -22 6 q-20 0 -21 -22v-37h41v-23h-41v-133h-27v133h-24zM2478 856q0 -244 133 -244t133 244q0 104 -27.5 162.5t-105.5 58.5q-133 0 -133 -221zM2535 80q0 35 19.5 57.5t50.5 22.5q33 0 52.5 -22.5t19.5 -57.5q0 -31 -18.5 -57.5t-53.5 -26.5t-52.5 26.5t-17.5 57.5zM2564 80 q0 -63 41 -64q45 0 45 64q0 59 -45 59q-41 0 -41 -59zM2716 0v156h22l2 -17q33 20 58 21q35 0 34 -45v-115h-26v115q0 23 -18.5 22.5t-45.5 -18.5v-119h-26zM2865 133v23h27v53h24v-53h39v-23h-39v-88q0 -12 2 -16t15 -4h22v-25h-28q-35 0 -35 39v94h-27z" />
<glyph unicode="&#xa8;" horiz-adv-x="1060" d="M184 1143v250l21 20h227v-270h-248zM629 1143v250l20 20h228v-270h-248z" />
<glyph unicode="&#xa9;" horiz-adv-x="2990" d="M25 440v805h309q29 0 53.5 -2t76.5 -23.5t88 -60.5t64.5 -121t28.5 -194q0 -115 -30.5 -197t-67.5 -121t-91.5 -60.5t-80 -23.5t-53.5 -2h-297zM31 -68h26l-2 86q23 -23 45 -22q57 0 58 88q0 76 -58 76q-25 0 -45 -21l-4 17h-20v-224zM55 41v76q23 23 45 22q31 0 31 -57 q0 -63 -33 -64q-20 0 -43 23zM199 0v236h26v-236h-26zM236 625h40q31 0 49.5 4t45 22.5t40 67.5t13.5 125q0 78 -11.5 126t-36 66.5t-42 22.5t-47.5 4h-51v-438zM266 80q0 80 66 80q63 0 63 -74l-4 -12h-98q0 -55 41 -56q23 0 41 21l14 -16q-27 -27 -57 -27q-66 0 -66 84z M295 92h72q0 47 -35 47q-37 0 -37 -47zM426 43q0 35 22.5 44t71.5 11v15q0 25 -24 24q-16 0 -54 -12l-10 20q37 14 70 15q45 0 45 -47v-113h-21l-4 18h-2q-23 -23 -51 -22q-43 0 -43 47zM453 45q0 -27 18 -27q27 0 49 23v39q-57 -2 -65 -21q-2 -6 -2 -14zM584 18v5l12 16 q20 -20 45 -21q31 0 31 25q0 6 -4 11t-8.5 7t-12.5 4.5t-10 4.5q-45 18 -45 45q0 45 55 45q29 0 45 -15v-4l-10 -16q-14 14 -37 14q-29 0 -29 -20q0 -6 1 -9.5t6.5 -6.5t8.5 -5t10 -4t11 -4q43 -16 43 -43q0 -51 -57 -51q-28 -1 -55 22zM729 80q0 80 66 80q63 0 63 -74 l-4 -12h-98q0 -55 41 -56q23 0 41 21l14 -16q-27 -27 -57 -27q-66 0 -66 84zM735 440v805h479v-182q-145 0 -274 2q0 -63 -2 -131q86 2 192 2v-166h-192q2 -82 2 -147q129 2 287 2v-185h-492zM758 92h71q0 47 -34 47q-37 0 -37 -47zM958 0v233h25v-233h-25zM1036 0v156h27 v-156h-27zM1036 188v39h27v-39h-27zM1106 80q0 33 18.5 56.5t51.5 23.5q29 0 45 -17l-13 -18q-14 14 -32 14q-43 0 -43 -59q0 -61 41 -62q18 0 34 17l15 -17q-27 -23 -52 -22q-65 0 -65 84zM1247 80q0 80 66 80q63 0 63 -74l-4 -12h-98q0 -55 41 -56q23 0 41 21l14 -16 q-27 -27 -57 -27q-66 0 -66 84zM1276 92h72q0 47 -35 47q-37 0 -37 -47zM1335 440q0 6 2 207t4 400l2 198h299l89 -268q16 -51 26 -109h4q10 57 27 109l86 268h291l2 -198q0 -199 2 -400t2 -207h-217q0 381 14 580h-4q-18 -80 -51 -184l-80 -246h-168l-82 246 q-35 113 -49 184h-4q16 -268 16 -580h-211zM1415 0v156h23l2 -17q33 20 57 21q35 0 35 -45v-115h-27v115q0 23 -18 22q-16 0 -45 -18v-119h-27zM1571 18v5l12 16q20 -20 45 -21q31 0 31 25q0 16 -33 27q-47 16 -47 45q0 45 53 45q27 0 47 -15v-4l-10 -16q-14 14 -39 14 q-27 0 -26 -20q0 -12 6 -16.5t30 -12.5q43 -16 43 -43q0 -51 -57 -51q-28 -1 -55 22zM1716 80q0 80 66 80q63 0 63 -74l-4 -12h-98q0 -55 41 -56q23 0 41 21l14 -16q-27 -27 -57 -27q-66 0 -66 84zM1745 92h72q0 47 -35 47q-37 0 -37 -47zM1927 133v23h27v53h24v-53h39v-23 h-39v-88q0 -12 2 -16t15 -4h22v-25h-28q-35 0 -35 39v94h-27zM2052 0v236h27l-2 -97q33 20 57 21q35 0 35 -45v-115h-27v115q0 23 -18.5 22.5t-44.5 -18.5v-119h-27zM2210 80q0 80 65 80q63 0 64 -74l-4 -12h-99q0 -55 41 -56q23 0 41 21l15 -16q-27 -27 -58 -27 q-65 0 -65 84zM2238 92h72q0 47 -35 47q-37 0 -37 -47zM2255 856q0 184 89 298t267 114q180 0 269.5 -114t89.5 -298q0 -82 -19.5 -155.5t-59.5 -136t-112 -100.5t-168 -38q-182 0 -269 126t-87 304zM2425 133v23h24v37q0 43 43 43q20 0 35 -9l-8 -18q-8 6 -22 6 q-20 0 -21 -22v-37h41v-23h-41v-133h-27v133h-24zM2478 856q0 -244 133 -244t133 244q0 104 -27.5 162.5t-105.5 58.5q-133 0 -133 -221zM2535 80q0 35 19.5 57.5t50.5 22.5q33 0 52.5 -22.5t19.5 -57.5q0 -31 -18.5 -57.5t-53.5 -26.5t-52.5 26.5t-17.5 57.5zM2564 80 q0 -63 41 -64q45 0 45 64q0 59 -45 59q-41 0 -41 -59zM2716 0v156h22l2 -17q33 20 58 21q35 0 34 -45v-115h-26v115q0 23 -18.5 22.5t-45.5 -18.5v-119h-26zM2865 133v23h27v53h24v-53h39v-23h-39v-88q0 -12 2 -16t15 -4h22v-25h-28q-35 0 -35 39v94h-27z" />
<glyph unicode="&#xaa;" horiz-adv-x="2990" d="M25 440v805h309q29 0 53.5 -2t76.5 -23.5t88 -60.5t64.5 -121t28.5 -194q0 -115 -30.5 -197t-67.5 -121t-91.5 -60.5t-80 -23.5t-53.5 -2h-297zM31 -68h26l-2 86q23 -23 45 -22q57 0 58 88q0 76 -58 76q-25 0 -45 -21l-4 17h-20v-224zM55 41v76q23 23 45 22q31 0 31 -57 q0 -63 -33 -64q-20 0 -43 23zM199 0v236h26v-236h-26zM236 625h40q31 0 49.5 4t45 22.5t40 67.5t13.5 125q0 78 -11.5 126t-36 66.5t-42 22.5t-47.5 4h-51v-438zM266 80q0 80 66 80q63 0 63 -74l-4 -12h-98q0 -55 41 -56q23 0 41 21l14 -16q-27 -27 -57 -27q-66 0 -66 84z M295 92h72q0 47 -35 47q-37 0 -37 -47zM426 43q0 35 22.5 44t71.5 11v15q0 25 -24 24q-16 0 -54 -12l-10 20q37 14 70 15q45 0 45 -47v-113h-21l-4 18h-2q-23 -23 -51 -22q-43 0 -43 47zM453 45q0 -27 18 -27q27 0 49 23v39q-57 -2 -65 -21q-2 -6 -2 -14zM584 18v5l12 16 q20 -20 45 -21q31 0 31 25q0 6 -4 11t-8.5 7t-12.5 4.5t-10 4.5q-45 18 -45 45q0 45 55 45q29 0 45 -15v-4l-10 -16q-14 14 -37 14q-29 0 -29 -20q0 -6 1 -9.5t6.5 -6.5t8.5 -5t10 -4t11 -4q43 -16 43 -43q0 -51 -57 -51q-28 -1 -55 22zM729 80q0 80 66 80q63 0 63 -74 l-4 -12h-98q0 -55 41 -56q23 0 41 21l14 -16q-27 -27 -57 -27q-66 0 -66 84zM735 440v805h479v-182q-145 0 -274 2q0 -63 -2 -131q86 2 192 2v-166h-192q2 -82 2 -147q129 2 287 2v-185h-492zM758 92h71q0 47 -34 47q-37 0 -37 -47zM958 0v233h25v-233h-25zM1036 0v156h27 v-156h-27zM1036 188v39h27v-39h-27zM1106 80q0 33 18.5 56.5t51.5 23.5q29 0 45 -17l-13 -18q-14 14 -32 14q-43 0 -43 -59q0 -61 41 -62q18 0 34 17l15 -17q-27 -23 -52 -22q-65 0 -65 84zM1247 80q0 80 66 80q63 0 63 -74l-4 -12h-98q0 -55 41 -56q23 0 41 21l14 -16 q-27 -27 -57 -27q-66 0 -66 84zM1276 92h72q0 47 -35 47q-37 0 -37 -47zM1335 440q0 6 2 207t4 400l2 198h299l89 -268q16 -51 26 -109h4q10 57 27 109l86 268h291l2 -198q0 -199 2 -400t2 -207h-217q0 381 14 580h-4q-18 -80 -51 -184l-80 -246h-168l-82 246 q-35 113 -49 184h-4q16 -268 16 -580h-211zM1415 0v156h23l2 -17q33 20 57 21q35 0 35 -45v-115h-27v115q0 23 -18 22q-16 0 -45 -18v-119h-27zM1571 18v5l12 16q20 -20 45 -21q31 0 31 25q0 16 -33 27q-47 16 -47 45q0 45 53 45q27 0 47 -15v-4l-10 -16q-14 14 -39 14 q-27 0 -26 -20q0 -12 6 -16.5t30 -12.5q43 -16 43 -43q0 -51 -57 -51q-28 -1 -55 22zM1716 80q0 80 66 80q63 0 63 -74l-4 -12h-98q0 -55 41 -56q23 0 41 21l14 -16q-27 -27 -57 -27q-66 0 -66 84zM1745 92h72q0 47 -35 47q-37 0 -37 -47zM1927 133v23h27v53h24v-53h39v-23 h-39v-88q0 -12 2 -16t15 -4h22v-25h-28q-35 0 -35 39v94h-27zM2052 0v236h27l-2 -97q33 20 57 21q35 0 35 -45v-115h-27v115q0 23 -18.5 22.5t-44.5 -18.5v-119h-27zM2210 80q0 80 65 80q63 0 64 -74l-4 -12h-99q0 -55 41 -56q23 0 41 21l15 -16q-27 -27 -58 -27 q-65 0 -65 84zM2238 92h72q0 47 -35 47q-37 0 -37 -47zM2255 856q0 184 89 298t267 114q180 0 269.5 -114t89.5 -298q0 -82 -19.5 -155.5t-59.5 -136t-112 -100.5t-168 -38q-182 0 -269 126t-87 304zM2425 133v23h24v37q0 43 43 43q20 0 35 -9l-8 -18q-8 6 -22 6 q-20 0 -21 -22v-37h41v-23h-41v-133h-27v133h-24zM2478 856q0 -244 133 -244t133 244q0 104 -27.5 162.5t-105.5 58.5q-133 0 -133 -221zM2535 80q0 35 19.5 57.5t50.5 22.5q33 0 52.5 -22.5t19.5 -57.5q0 -31 -18.5 -57.5t-53.5 -26.5t-52.5 26.5t-17.5 57.5zM2564 80 q0 -63 41 -64q45 0 45 64q0 59 -45 59q-41 0 -41 -59zM2716 0v156h22l2 -17q33 20 58 21q35 0 34 -45v-115h-26v115q0 23 -18.5 22.5t-45.5 -18.5v-119h-26zM2865 133v23h27v53h24v-53h39v-23h-39v-88q0 -12 2 -16t15 -4h22v-25h-28q-35 0 -35 39v94h-27z" />
<glyph unicode="&#xab;" horiz-adv-x="1050" d="M78 483l295 457l182 -106l-207 -351l207 -352l-182 -104zM506 483l280 432l185 -104l-193 -328l193 -329l-185 -105z" />
<glyph unicode="&#xac;" d="M164 541v252h840v-523h-259l3 275z" />
<glyph unicode="&#xad;" horiz-adv-x="737" d="M82 436v254h573v-254h-573z" />
<glyph unicode="&#xae;" horiz-adv-x="2990" d="M25 440v805h309q29 0 53.5 -2t76.5 -23.5t88 -60.5t64.5 -121t28.5 -194q0 -115 -30.5 -197t-67.5 -121t-91.5 -60.5t-80 -23.5t-53.5 -2h-297zM31 -68h26l-2 86q23 -23 45 -22q57 0 58 88q0 76 -58 76q-25 0 -45 -21l-4 17h-20v-224zM55 41v76q23 23 45 22q31 0 31 -57 q0 -63 -33 -64q-20 0 -43 23zM199 0v236h26v-236h-26zM236 625h40q31 0 49.5 4t45 22.5t40 67.5t13.5 125q0 78 -11.5 126t-36 66.5t-42 22.5t-47.5 4h-51v-438zM266 80q0 80 66 80q63 0 63 -74l-4 -12h-98q0 -55 41 -56q23 0 41 21l14 -16q-27 -27 -57 -27q-66 0 -66 84z M295 92h72q0 47 -35 47q-37 0 -37 -47zM426 43q0 35 22.5 44t71.5 11v15q0 25 -24 24q-16 0 -54 -12l-10 20q37 14 70 15q45 0 45 -47v-113h-21l-4 18h-2q-23 -23 -51 -22q-43 0 -43 47zM453 45q0 -27 18 -27q27 0 49 23v39q-57 -2 -65 -21q-2 -6 -2 -14zM584 18v5l12 16 q20 -20 45 -21q31 0 31 25q0 6 -4 11t-8.5 7t-12.5 4.5t-10 4.5q-45 18 -45 45q0 45 55 45q29 0 45 -15v-4l-10 -16q-14 14 -37 14q-29 0 -29 -20q0 -6 1 -9.5t6.5 -6.5t8.5 -5t10 -4t11 -4q43 -16 43 -43q0 -51 -57 -51q-28 -1 -55 22zM729 80q0 80 66 80q63 0 63 -74 l-4 -12h-98q0 -55 41 -56q23 0 41 21l14 -16q-27 -27 -57 -27q-66 0 -66 84zM735 440v805h479v-182q-145 0 -274 2q0 -63 -2 -131q86 2 192 2v-166h-192q2 -82 2 -147q129 2 287 2v-185h-492zM758 92h71q0 47 -34 47q-37 0 -37 -47zM958 0v233h25v-233h-25zM1036 0v156h27 v-156h-27zM1036 188v39h27v-39h-27zM1106 80q0 33 18.5 56.5t51.5 23.5q29 0 45 -17l-13 -18q-14 14 -32 14q-43 0 -43 -59q0 -61 41 -62q18 0 34 17l15 -17q-27 -23 -52 -22q-65 0 -65 84zM1247 80q0 80 66 80q63 0 63 -74l-4 -12h-98q0 -55 41 -56q23 0 41 21l14 -16 q-27 -27 -57 -27q-66 0 -66 84zM1276 92h72q0 47 -35 47q-37 0 -37 -47zM1335 440q0 6 2 207t4 400l2 198h299l89 -268q16 -51 26 -109h4q10 57 27 109l86 268h291l2 -198q0 -199 2 -400t2 -207h-217q0 381 14 580h-4q-18 -80 -51 -184l-80 -246h-168l-82 246 q-35 113 -49 184h-4q16 -268 16 -580h-211zM1415 0v156h23l2 -17q33 20 57 21q35 0 35 -45v-115h-27v115q0 23 -18 22q-16 0 -45 -18v-119h-27zM1571 18v5l12 16q20 -20 45 -21q31 0 31 25q0 16 -33 27q-47 16 -47 45q0 45 53 45q27 0 47 -15v-4l-10 -16q-14 14 -39 14 q-27 0 -26 -20q0 -12 6 -16.5t30 -12.5q43 -16 43 -43q0 -51 -57 -51q-28 -1 -55 22zM1716 80q0 80 66 80q63 0 63 -74l-4 -12h-98q0 -55 41 -56q23 0 41 21l14 -16q-27 -27 -57 -27q-66 0 -66 84zM1745 92h72q0 47 -35 47q-37 0 -37 -47zM1927 133v23h27v53h24v-53h39v-23 h-39v-88q0 -12 2 -16t15 -4h22v-25h-28q-35 0 -35 39v94h-27zM2052 0v236h27l-2 -97q33 20 57 21q35 0 35 -45v-115h-27v115q0 23 -18.5 22.5t-44.5 -18.5v-119h-27zM2210 80q0 80 65 80q63 0 64 -74l-4 -12h-99q0 -55 41 -56q23 0 41 21l15 -16q-27 -27 -58 -27 q-65 0 -65 84zM2238 92h72q0 47 -35 47q-37 0 -37 -47zM2255 856q0 184 89 298t267 114q180 0 269.5 -114t89.5 -298q0 -82 -19.5 -155.5t-59.5 -136t-112 -100.5t-168 -38q-182 0 -269 126t-87 304zM2425 133v23h24v37q0 43 43 43q20 0 35 -9l-8 -18q-8 6 -22 6 q-20 0 -21 -22v-37h41v-23h-41v-133h-27v133h-24zM2478 856q0 -244 133 -244t133 244q0 104 -27.5 162.5t-105.5 58.5q-133 0 -133 -221zM2535 80q0 35 19.5 57.5t50.5 22.5q33 0 52.5 -22.5t19.5 -57.5q0 -31 -18.5 -57.5t-53.5 -26.5t-52.5 26.5t-17.5 57.5zM2564 80 q0 -63 41 -64q45 0 45 64q0 59 -45 59q-41 0 -41 -59zM2716 0v156h22l2 -17q33 20 58 21q35 0 34 -45v-115h-26v115q0 23 -18.5 22.5t-45.5 -18.5v-119h-26zM2865 133v23h27v53h24v-53h39v-23h-39v-88q0 -12 2 -16t15 -4h22v-25h-28q-35 0 -35 39v94h-27z" />
<glyph unicode="&#xaf;" horiz-adv-x="1060" d="M213 1180v180l35 20h600v-180l-21 -20h-614z" />
<glyph unicode="&#xb0;" horiz-adv-x="675" d="M61 1196q0 131 76 212t221.5 81t221 -81t75.5 -212q0 -74 -24.5 -138.5t-95 -114.5t-177 -50t-177 50t-95.5 114.5t-25 138.5zM233 1188q0 -88 35 -134t88 -46q55 0 91 46t36 134q0 82 -34.5 126t-92 44t-90.5 -44t-33 -126z" />
<glyph unicode="&#xb1;" d="M164 57v252h840v-252h-840zM205 690v248l254 -2l-2 256h254l-2 -256l254 2v-248l-254 2l2 -258h-254l2 258z" />
<glyph unicode="&#xb2;" horiz-adv-x="716" d="M92 907v142q20 20 107.5 101t144.5 142q59 63 59 115q0 80 -84 80q-74 0 -135 -57l-88 118v15q109 88 242 88q117 0 188.5 -56.5t71.5 -167.5q0 -96 -70 -184q-16 -20 -39.5 -42.5t-39 -37t-58.5 -50.5t-57 -48l2 -6q80 8 272 8v-160h-516z" />
<glyph unicode="&#xb3;" horiz-adv-x="716" d="M92 942v14l45 146q98 -43 168 -43q115 0 115 76q0 70 -129 69h-51l-13 10l2 146h50q123 0 122 65q0 63 -90 64q-66 0 -127 -37l-78 127v14q100 57 234 58q121 0 182.5 -53.5t61.5 -135.5q0 -109 -99 -162v-8q115 -47 115 -180q0 -115 -75.5 -168t-198.5 -53 q-125 0 -234 51z" />
<glyph unicode="&#xb4;" horiz-adv-x="1060" d="M322 1120l231 305h305l10 -28l-315 -277h-231z" />
<glyph unicode="&#xb5;" horiz-adv-x="2990" d="M25 440v805h309q29 0 53.5 -2t76.5 -23.5t88 -60.5t64.5 -121t28.5 -194q0 -115 -30.5 -197t-67.5 -121t-91.5 -60.5t-80 -23.5t-53.5 -2h-297zM31 -68h26l-2 86q23 -23 45 -22q57 0 58 88q0 76 -58 76q-25 0 -45 -21l-4 17h-20v-224zM55 41v76q23 23 45 22q31 0 31 -57 q0 -63 -33 -64q-20 0 -43 23zM199 0v236h26v-236h-26zM236 625h40q31 0 49.5 4t45 22.5t40 67.5t13.5 125q0 78 -11.5 126t-36 66.5t-42 22.5t-47.5 4h-51v-438zM266 80q0 80 66 80q63 0 63 -74l-4 -12h-98q0 -55 41 -56q23 0 41 21l14 -16q-27 -27 -57 -27q-66 0 -66 84z M295 92h72q0 47 -35 47q-37 0 -37 -47zM330 1606q0 33 14 58.5t43 25.5q10 0 41 -19l6 17h21v-164q0 -61 -64 -62q-35 0 -53 17l8 20q23 -14 45 -14q35 0 35 35l2 26q-25 -20 -45 -20q-53 0 -53 80zM356 1606q0 -57 29 -57.5t43 24.5v72q-18 23 -41 22q-31 0 -31 -61z M426 43q0 35 22.5 44t71.5 11v15q0 25 -24 24q-16 0 -54 -12l-10 20q37 14 70 15q45 0 45 -47v-113h-21l-4 18h-2q-23 -23 -51 -22q-43 0 -43 47zM453 45q0 -27 18 -27q27 0 49 23v39q-57 -2 -65 -21q-2 -6 -2 -14zM494 1610q0 80 65 80q63 0 64 -74l-5 -12h-98 q0 -55 41 -56q23 0 41 21l14 -17q-27 -27 -57 -26q-65 0 -65 84zM522 1622h72q0 47 -35 47q-37 0 -37 -47zM584 18v5l12 16q20 -20 45 -21q31 0 31 25q0 6 -4 11t-8.5 7t-12.5 4.5t-10 4.5q-45 18 -45 45q0 45 55 45q29 0 45 -15v-4l-10 -16q-14 14 -37 14q-29 0 -29 -20 q0 -6 1 -9.5t6.5 -6.5t8.5 -5t10 -4t11 -4q43 -16 43 -43q0 -51 -57 -51q-28 -1 -55 22zM655 1686h25q2 -27 2 -35q16 29 47 37l6 -23q-37 -14 -53 -41v-94h-25v102q0 46 -2 54zM729 80q0 80 66 80q63 0 63 -74l-4 -12h-98q0 -55 41 -56q23 0 41 21l14 -16q-27 -27 -57 -27 q-66 0 -66 84zM735 440v805h479v-182q-145 0 -274 2q0 -63 -2 -131q86 2 192 2v-166h-192q2 -82 2 -147q129 2 287 2v-185h-492zM758 92h71q0 47 -34 47q-37 0 -37 -47zM764 1530v156h22l2 -17q35 20 52 21q20 0 28 -19q29 18 52 19q35 0 34 -45v-115h-26v115q0 23 -19 22 q-14 0 -35 -16v-121h-26v115q0 23 -19 22q-20 0 -38 -18v-119h-27zM958 0v233h25v-233h-25zM991 1573q0 35 22.5 44t71.5 11v14q0 25 -24 25q-16 0 -53 -12l-11 20q37 14 70 15q45 0 45 -48v-112h-20l-5 18h-2q-23 -23 -51 -22q-43 0 -43 47zM1018 1575q0 -27 18 -27 q27 0 49 23v39q-57 -2 -65 -21q-2 -6 -2 -14zM1036 0v156h27v-156h-27zM1036 188v39h27v-39h-27zM1106 80q0 33 18.5 56.5t51.5 23.5q29 0 45 -17l-13 -18q-14 14 -32 14q-43 0 -43 -59q0 -61 41 -62q18 0 34 17l15 -17q-27 -23 -52 -22q-65 0 -65 84zM1159 1530v156h23 l2 -17q33 20 57 21q35 0 35 -45v-115h-27v115q0 23 -18.5 22.5t-44.5 -18.5v-119h-27zM1247 80q0 80 66 80q63 0 63 -74l-4 -12h-98q0 -55 41 -56q23 0 41 21l14 -16q-27 -27 -57 -27q-66 0 -66 84zM1276 92h72q0 47 -35 47q-37 0 -37 -47zM1305 1663v23h26v53h25v-53h39 v-23h-39v-88q0 -14 2 -17.5t14 -3.5h23v-24h-29q-35 0 -35 39v94h-26zM1335 440q0 6 2 207t4 400l2 198h299l89 -268q16 -51 26 -109h4q10 57 27 109l86 268h291l2 -198q0 -199 2 -400t2 -207h-217q0 381 14 580h-4q-18 -80 -51 -184l-80 -246h-168l-82 246q-35 113 -49 184 h-4q16 -268 16 -580h-211zM1415 0v156h23l2 -17q33 20 57 21q35 0 35 -45v-115h-27v115q0 23 -18 22q-16 0 -45 -18v-119h-27zM1417 1679h29q33 -106 39 -129h2q6 27 43 129h26l-65 -170q-16 -43 -66 -45l-4 17l2 4q33 2 47 39zM1571 18v5l12 16q20 -20 45 -21q31 0 31 25 q0 16 -33 27q-47 16 -47 45q0 45 53 45q27 0 47 -15v-4l-10 -16q-14 14 -39 14q-27 0 -26 -20q0 -12 6 -16.5t30 -12.5q43 -16 43 -43q0 -51 -57 -51q-28 -1 -55 22zM1583 1462h25v86q23 -23 45 -22q57 0 57 88q0 76 -57 76q-25 0 -45 -21l-4 17h-21v-224zM1608 1571v76 q23 23 45 22q31 0 30 -57q0 -63 -32 -64q-20 0 -43 23zM1716 80q0 80 66 80q63 0 63 -74l-4 -12h-98q0 -55 41 -56q23 0 41 21l14 -16q-27 -27 -57 -27q-66 0 -66 84zM1741 1610q0 80 65 80q63 0 64 -74l-4 -12h-99q0 -55 41 -56q23 0 41 21l15 -17q-27 -27 -58 -26 q-65 0 -65 84zM1745 92h72q0 47 -35 47q-37 0 -37 -47zM1769 1622h72q0 47 -35 47q-37 0 -37 -47zM1919 1546q0 23 23 23q25 0 24 -23q0 -25 -24 -24q-23 -1 -23 24zM1927 133v23h27v53h24v-53h39v-23h-39v-88q0 -12 2 -16t15 -4h22v-25h-28q-35 0 -35 39v94h-27zM2007 1610 q0 33 18.5 56.5t51.5 23.5q29 0 45 -17l-13 -18q-14 14 -32 14q-43 0 -43 -59q0 -61 41 -62q18 0 34 17l15 -17q-27 -23 -51 -22q-66 0 -66 84zM2052 0v236h27l-2 -97q33 20 57 21q35 0 35 -45v-115h-27v115q0 23 -18.5 22.5t-44.5 -18.5v-119h-27zM2144 1610 q0 35 19.5 57.5t50.5 22.5q33 0 52.5 -22.5t19.5 -57.5q0 -31 -18.5 -57.5t-53.5 -26.5t-52.5 26.5t-17.5 57.5zM2173 1610q0 -63 41 -64q45 0 45 64q0 59 -45 59q-41 0 -41 -59zM2210 80q0 80 65 80q63 0 64 -74l-4 -12h-99q0 -55 41 -56q23 0 41 21l15 -16 q-27 -27 -58 -27q-65 0 -65 84zM2238 92h72q0 47 -35 47q-37 0 -37 -47zM2255 856q0 184 89 298t267 114q180 0 269.5 -114t89.5 -298q0 -82 -19.5 -155.5t-59.5 -136t-112 -100.5t-168 -38q-182 0 -269 126t-87 304zM2318 1530v156h23l2 -17q37 20 51 21q18 0 29 -19 q29 18 51 19q35 0 35 -45v-115h-27v115q0 23 -18 22q-14 0 -35 -16v-121h-27v115q0 23 -18 22q-20 0 -39 -18v-119h-27zM2425 133v23h24v37q0 43 43 43q20 0 35 -9l-8 -18q-8 6 -22 6q-20 0 -21 -22v-37h41v-23h-41v-133h-27v133h-24zM2478 856q0 -244 133 -244t133 244 q0 104 -27.5 162.5t-105.5 58.5q-133 0 -133 -221zM2535 80q0 35 19.5 57.5t50.5 22.5q33 0 52.5 -22.5t19.5 -57.5q0 -31 -18.5 -57.5t-53.5 -26.5t-52.5 26.5t-17.5 57.5zM2564 80q0 -63 41 -64q45 0 45 64q0 59 -45 59q-41 0 -41 -59zM2716 0v156h22l2 -17q33 20 58 21 q35 0 34 -45v-115h-26v115q0 23 -18.5 22.5t-45.5 -18.5v-119h-26zM2865 133v23h27v53h24v-53h39v-23h-39v-88q0 -12 2 -16t15 -4h22v-25h-28q-35 0 -35 39v94h-27z" />
<glyph unicode="&#xb6;" horiz-adv-x="1505" d="M-86 874q0 109 27.5 196t66.5 141.5t99.5 93t109.5 57t113.5 29t93.5 11.5t68 1h808v-1874h-290v1593h-232v-1593h-291v813h-38q-63 0 -126 10t-140 45t-134 90.5t-96 155.5t-39 231z" />
<glyph unicode="&#xb7;" horiz-adv-x="501" d="M84 651q0 70 48 119t120 49q70 0 119 -49t49 -118.5t-48 -119t-120 -49.5t-120 48t-48 120z" />
<glyph unicode="&#xb8;" horiz-adv-x="1060" d="M299 -430l53 139h25q39 -43 115 -43q82 0 81 68q0 47 -36.5 69.5t-112.5 40.5l45 164l27 19l118 -25l-22 -70q170 -74 170 -219q0 -94 -70.5 -147t-179.5 -53q-127 0 -213 57z" />
<glyph unicode="&#xb9;" horiz-adv-x="716" d="M98 1481v14l236 139h149v-573q6 0 74 -3t72 -3v-148h-490v148q4 0 75 3t77 3v229l8 117l-6 2l-127 -61z" />
<glyph unicode="&#xba;" horiz-adv-x="675" d="M70 465v151h585v-151h-585zM70 1034q0 139 70.5 224t222 85t222 -84.5t70.5 -224.5q0 -127 -68.5 -220t-224 -93t-224 92t-68.5 221zM270 1030q0 -193 92.5 -192.5t92.5 192.5q0 180 -92.5 180t-92.5 -180z" />
<glyph unicode="&#xbb;" horiz-adv-x="1050" d="M80 156l192 327l-192 330l184 105l281 -435l-281 -432zM496 133l206 350l-206 353l182 104l295 -457l-295 -456z" />
<glyph unicode="&#xbc;" horiz-adv-x="1597" d="M98 1262v14l236 139h149v-573q6 0 74 -3t72 -3v-148h-490v148q4 0 75 3t77 3v229l8 117l-6 2l-127 -62zM225 -37l973 1489h174l-973 -1489h-174zM956 119v155l134 453h206l-159 -451l2 -4q68 2 116 2v144l185 20v-164q57 2 80 2v-157h-15q-12 0 -31.5 1t-33.5 1v-121 h-185v121q-135 -2 -299 -2z" />
<glyph unicode="&#xbd;" horiz-adv-x="1597" d="M98 1262v14l236 139h149v-573q6 0 74 -3t72 -3v-148h-490v148q4 0 75 3t77 3v229l8 117l-6 2l-127 -62zM225 -37l973 1489h174l-973 -1489h-174zM973 0v141q20 20 107 101.5t145 142.5q59 63 59 115q0 80 -84 80q-74 0 -135 -58l-88 119v14q109 88 242 88 q117 0 188.5 -56t71.5 -167q0 -98 -70 -184q-16 -20 -39.5 -43t-39 -37t-58.5 -50t-58 -48l3 -6q80 8 272 8v-160h-516z" />
<glyph unicode="&#xbe;" horiz-adv-x="1597" d="M92 723v14l45 146q98 -43 168 -43q115 0 115 75q0 70 -129 70h-51l-13 10l2 146h50q123 0 122 65q0 63 -90 64q-66 0 -127 -37l-78 127v14q100 57 234 58q121 0 182.5 -53.5t61.5 -135.5q0 -109 -99 -162v-8q115 -47 115 -180q0 -115 -75.5 -168t-198.5 -53 q-125 0 -234 51zM225 -37l973 1489h174l-973 -1489h-174zM956 119v155l134 453h206l-159 -451l2 -4q68 2 116 2v144l185 20v-164q57 2 80 2v-157h-15q-12 0 -31.5 1t-33.5 1v-121h-185v121q-135 -2 -299 -2z" />
<glyph unicode="&#xbf;" horiz-adv-x="831" d="M0 -104q0 61 9 110t41 99.5t47.5 72t71.5 83t73 79.5q37 41 47 65.5t10 71.5v55h258v-65q0 -125 -74 -219q-27 -35 -70.5 -85t-63 -75t-37 -63.5t-17.5 -79.5q0 -72 44 -115t128 -43q111 0 225 82l113 -213v-25q-188 -94 -393 -94q-188 0 -300 96.5t-112 262.5z M260 833.5q0 69.5 48 118.5t120 49q70 0 118 -49t48 -118.5t-48 -117.5t-118 -48q-72 0 -120 48t-48 117.5z" />
<glyph unicode="&#xc0;" horiz-adv-x="1249" d="M25 0q367 1208 428 1403h352q59 -190 129 -426t156 -525.5t133 -451.5h-320l-88 317h-395l-88 -317h-307zM215 1786l10 29h305l232 -295h-234zM471 539h303l-78 297q-4 20 -69 286h-6q-10 -63 -70 -286z" />
<glyph unicode="&#xc1;" horiz-adv-x="1249" d="M25 0q367 1208 428 1403h352q59 -190 129 -426t156 -525.5t133 -451.5h-320l-88 317h-395l-88 -317h-307zM471 539h303l-78 297q-4 20 -69 286h-6q-10 -63 -70 -286zM500 1520l231 295h305l11 -29l-314 -266h-233z" />
<glyph unicode="&#xc2;" horiz-adv-x="1249" d="M25 0q367 1208 428 1403h352q59 -190 129 -426t156 -525.5t133 -451.5h-320l-88 317h-395l-88 -317h-307zM270 1520l240 301h242l239 -301h-203l-153 133h-10l-156 -133h-199zM471 539h303l-78 297q-4 20 -69 286h-6q-10 -63 -70 -286z" />
<glyph unicode="&#xc3;" horiz-adv-x="1249" d="M25 0q367 1208 428 1403h352q59 -190 129 -426t156 -525.5t133 -451.5h-320l-88 317h-395l-88 -317h-307zM244 1622q100 188 260 188q47 0 139 -36.5t121 -36.5q23 0 41 9t31.5 22.5t48.5 50.5l123 -86q-100 -190 -258 -191q-47 0 -139.5 37t-121.5 37q-33 0 -55 -15.5 t-65 -64.5zM471 539h303l-78 297q-4 20 -69 286h-6q-10 -63 -70 -286z" />
<glyph unicode="&#xc4;" horiz-adv-x="1249" d="M25 0q367 1208 428 1403h352q59 -190 129 -426t156 -525.5t133 -451.5h-320l-88 317h-395l-88 -317h-307zM281 1532v250l20 20h227v-270h-247zM471 539h303l-78 297q-4 20 -69 286h-6q-10 -63 -70 -286zM725 1532v250l20 20h228v-270h-248z" />
<glyph unicode="&#xc5;" horiz-adv-x="1249" d="M25 0q367 1208 428 1403h352q59 -190 129 -426t156 -525.5t133 -451.5h-320l-88 317h-395l-88 -317h-307zM365 1690q0 195 260 194.5t260 -194.5q0 -92 -73 -138.5t-187.5 -46.5t-187 45.5t-72.5 139.5zM471 539h303l-78 297q-4 20 -69 286h-6q-10 -63 -70 -286z M553 1690q0 -86 71.5 -86t71.5 86q0 96 -71.5 96t-71.5 -96z" />
<glyph unicode="&#xc6;" horiz-adv-x="1814" d="M4 0l772 1403h928v-252q-315 0 -537 2q0 -207 -4 -319q172 2 430 2v-230q-258 0 -430 2q4 -176 4 -360q225 4 557 4v-252h-837v287h-410l-149 -287h-324zM590 508h297q0 350 2 584h-6q-31 -82 -115 -242z" />
<glyph unicode="&#xc7;" horiz-adv-x="1163" d="M74 721q0 111 21.5 213t68.5 194.5t114.5 161t166 108.5t214.5 40q238 0 426 -131l-135 -217q-119 88 -272 88q-84 0 -144.5 -41t-93 -110t-47 -144.5t-14.5 -161.5q0 -88 13.5 -169t45 -159t95 -124t151.5 -46q150 0 281 125l147 -190q-178 -160 -383 -181l-14 -45 q170 -74 170 -219q0 -94 -71 -147t-179 -53q-127 0 -213 57l53 139h25q39 -43 114 -43q82 0 82 68q0 47 -36.5 69.5t-112.5 40.5l37 136q-133 12 -234.5 81.5t-160 175t-87 228.5t-28.5 256z" />
<glyph unicode="&#xc8;" horiz-adv-x="1091" d="M143 0v1403h838v-252q-336 0 -557 2q0 -207 -2 -319q170 2 448 2v-230q-279 0 -448 2q2 -176 2 -360q225 4 577 4v-252h-858zM213 1786l10 29h305l232 -295h-234z" />
<glyph unicode="&#xc9;" horiz-adv-x="1091" d="M143 0v1403h838v-252q-336 0 -557 2q0 -207 -2 -319q170 2 448 2v-230q-279 0 -448 2q2 -176 2 -360q225 4 577 4v-252h-858zM373 1520l231 295h305l11 -29l-314 -266h-233z" />
<glyph unicode="&#xca;" horiz-adv-x="1091" d="M143 0v1403h838v-252q-336 0 -557 2q0 -207 -2 -319q170 2 448 2v-230q-279 0 -448 2q2 -176 2 -360q225 4 577 4v-252h-858zM215 1520l240 301h241l240 -301h-203l-153 133h-11l-155 -133h-199z" />
<glyph unicode="&#xcb;" horiz-adv-x="1091" d="M143 0v1403h838v-252q-336 0 -557 2q0 -207 -2 -319q170 2 448 2v-230q-279 0 -448 2q2 -176 2 -360q225 4 577 4v-252h-858zM221 1532v250l21 20h227v-270h-248zM666 1532v250l20 20h227v-270h-247z" />
<glyph unicode="&#xcc;" horiz-adv-x="579" d="M-61 1786l10 29h293l176 -295h-234zM143 0v1403h293v-1403h-293z" />
<glyph unicode="&#xcd;" horiz-adv-x="579" d="M143 0v1403h293v-1403h-293zM162 1520l176 295h293l10 -29l-246 -266h-233z" />
<glyph unicode="&#xce;" horiz-adv-x="579" d="M-31 1520l201 301h242l198 -301h-200l-117 133h-8l-119 -133h-197zM143 0v1403h293v-1403h-293z" />
<glyph unicode="&#xcf;" horiz-adv-x="579" d="M-2 1532v250l20 20h205v-270h-225zM143 0v1403h293v-1403h-293zM356 1532v250l21 20h205v-270h-226z" />
<glyph unicode="&#xd0;" horiz-adv-x="1265" d="M12 612v217h133q0 47 -1 185.5t-1 260.5v128h484q33 0 60.5 -2t90 -15.5t110.5 -38t108.5 -76.5t100.5 -124t67.5 -187.5t27.5 -259.5q0 -113 -17.5 -208t-44 -162.5t-68.5 -121.5t-81 -88t-89 -58.5t-87 -36t-82 -17.5t-64.5 -7t-44.5 -1h-471v137q0 131 1 279.5 t1 195.5h-133zM426 612q0 -49 1 -206.5t1 -159.5h113q41 0 65.5 1t66.5 10t68.5 25.5t58 50.5t50 81t32 119.5t13.5 166.5q0 92 -12.5 165t-29.5 120t-48 81t-56.5 51.5t-66.5 25.5t-65.5 10t-65.5 2h-123q0 -2 -1 -139t-1 -187h233v-217h-233z" />
<glyph unicode="&#xd1;" horiz-adv-x="1339" d="M141 0l2 1403h303l330 -604q66 -123 152 -361l8 2q-25 248 -25 561v402h287l-4 -1403h-311l-326 604q-66 121 -151 357l-9 -3q29 -221 29 -581v-377h-285zM301 1622q100 188 260 188q47 0 139.5 -36.5t120.5 -36.5q23 0 41.5 9t31.5 22.5t48 50.5l123 -86 q-100 -190 -258 -191q-47 0 -139.5 37t-120.5 37q-33 0 -55.5 -15.5t-65.5 -64.5z" />
<glyph unicode="&#xd2;" horiz-adv-x="1351" d="M74 721q0 309 151.5 513t448.5 204q299 0 451.5 -204t152.5 -513q0 -113 -19.5 -217.5t-65.5 -201.5t-113.5 -170t-172 -116t-233.5 -43q-127 0 -230.5 43t-171 116t-113.5 170t-65.5 201.5t-19.5 217.5zM268 1786l11 29h305l231 -295h-233zM373 721q0 -92 13 -174 t45 -160t94.5 -124t148.5 -46q88 0 151.5 46t95 124t45 160t13.5 174q0 127 -24.5 224t-95.5 169t-185 72q-84 0 -145.5 -40t-94.5 -108.5t-47 -146.5t-14 -170z" />
<glyph unicode="&#xd3;" horiz-adv-x="1351" d="M74 721q0 309 151.5 513t448.5 204q299 0 451.5 -204t152.5 -513q0 -113 -19.5 -217.5t-65.5 -201.5t-113.5 -170t-172 -116t-233.5 -43q-127 0 -230.5 43t-171 116t-113.5 170t-65.5 201.5t-19.5 217.5zM373 721q0 -92 13 -174t45 -160t94.5 -124t148.5 -46 q88 0 151.5 46t95 124t45 160t13.5 174q0 127 -24.5 224t-95.5 169t-185 72q-84 0 -145.5 -40t-94.5 -108.5t-47 -146.5t-14 -170zM537 1520l231 295h305l10 -29l-313 -266h-233z" />
<glyph unicode="&#xd4;" horiz-adv-x="1351" d="M74 721q0 309 151.5 513t448.5 204q299 0 451.5 -204t152.5 -513q0 -113 -19.5 -217.5t-65.5 -201.5t-113.5 -170t-172 -116t-233.5 -43q-127 0 -230.5 43t-171 116t-113.5 170t-65.5 201.5t-19.5 217.5zM315 1520l240 301h242l239 -301h-202l-154 133h-10l-156 -133 h-199zM373 721q0 -92 13 -174t45 -160t94.5 -124t148.5 -46q88 0 151.5 46t95 124t45 160t13.5 174q0 127 -24.5 224t-95.5 169t-185 72q-84 0 -145.5 -40t-94.5 -108.5t-47 -146.5t-14 -170z" />
<glyph unicode="&#xd5;" horiz-adv-x="1351" d="M74 721q0 309 151.5 513t448.5 204q299 0 451.5 -204t152.5 -513q0 -113 -19.5 -217.5t-65.5 -201.5t-113.5 -170t-172 -116t-233.5 -43q-127 0 -230.5 43t-171 116t-113.5 170t-65.5 201.5t-19.5 217.5zM293 1622q100 188 260 188q47 0 139 -36.5t121 -36.5q23 0 41 9 t31.5 22.5t48.5 50.5l123 -86q-100 -190 -258 -191q-47 0 -139.5 37t-120.5 37q-33 0 -55.5 -15.5t-65.5 -64.5zM373 721q0 -92 13 -174t45 -160t94.5 -124t148.5 -46q88 0 151.5 46t95 124t45 160t13.5 174q0 127 -24.5 224t-95.5 169t-185 72q-84 0 -145.5 -40 t-94.5 -108.5t-47 -146.5t-14 -170z" />
<glyph unicode="&#xd6;" horiz-adv-x="1351" d="M74 721q0 309 151.5 513t448.5 204q299 0 451.5 -204t152.5 -513q0 -113 -19.5 -217.5t-65.5 -201.5t-113.5 -170t-172 -116t-233.5 -43q-127 0 -230.5 43t-171 116t-113.5 170t-65.5 201.5t-19.5 217.5zM330 1532v250l20 20h228v-270h-248zM373 721q0 -92 13 -174 t45 -160t94.5 -124t148.5 -46q88 0 151.5 46t95 124t45 160t13.5 174q0 127 -24.5 224t-95.5 169t-185 72q-84 0 -145.5 -40t-94.5 -108.5t-47 -146.5t-14 -170zM774 1532v250l21 20h227v-270h-248z" />
<glyph unicode="&#xd7;" d="M160 367l256 272l-256 272l180 168l244 -262l243 262l181 -168l-256 -272l256 -272l-181 -168l-243 260l-244 -260z" />
<glyph unicode="&#xd8;" horiz-adv-x="1351" d="M74 721q0 309 151.5 513t448.5 204q203 0 346 -105l70 105h165l-135 -201q158 -190 158 -516q0 -113 -19.5 -217.5t-65.5 -201.5t-113.5 -170t-172 -116t-233.5 -43q-201 0 -340 107l-72 -107h-166l140 203q-162 205 -162 545zM373 721q0 -170 41 -287l452 676 q-76 76 -192 76q-84 0 -145.5 -40t-94.5 -108.5t-47 -146.5t-14 -170zM485 301q74 -84 189 -84q88 0 151.5 46t95 124t45 160t13.5 174q0 152 -37 256z" />
<glyph unicode="&#xd9;" horiz-adv-x="1318" d="M137 496v907h291v-860q0 -104 18.5 -171t55.5 -97.5t73.5 -40t94.5 -9.5q129 0 175 65.5t46 186.5v926h291v-981q0 -201 -143.5 -325t-374.5 -124q-113 0 -197 20.5t-164 73t-123 161t-43 268.5zM272 1786l11 29h305l231 -295h-233z" />
<glyph unicode="&#xda;" horiz-adv-x="1318" d="M137 496v907h291v-860q0 -104 18.5 -171t55.5 -97.5t73.5 -40t94.5 -9.5q129 0 175 65.5t46 186.5v926h291v-981q0 -201 -143.5 -325t-374.5 -124q-113 0 -197 20.5t-164 73t-123 161t-43 268.5zM500 1520l231 295h305l11 -29l-314 -266h-233z" />
<glyph unicode="&#xdb;" horiz-adv-x="1318" d="M137 496v907h291v-860q0 -104 18.5 -171t55.5 -97.5t73.5 -40t94.5 -9.5q129 0 175 65.5t46 186.5v926h291v-981q0 -201 -143.5 -325t-374.5 -124q-113 0 -197 20.5t-164 73t-123 161t-43 268.5zM301 1520l240 301h241l240 -301h-203l-153 133h-11l-155 -133h-199z" />
<glyph unicode="&#xdc;" horiz-adv-x="1318" d="M137 496v907h291v-860q0 -104 18.5 -171t55.5 -97.5t73.5 -40t94.5 -9.5q129 0 175 65.5t46 186.5v926h291v-981q0 -201 -143.5 -325t-374.5 -124q-113 0 -197 20.5t-164 73t-123 161t-43 268.5zM315 1532v250l21 20h227v-270h-248zM760 1532v250l20 20h228v-270h-248z " />
<glyph unicode="&#xdd;" horiz-adv-x="1150" d="M6 1403h322l164 -369q74 -172 92 -262h6q23 98 92 262l164 369h299l-424 -868v-535h-291v530zM428 1520l231 295h306l10 -29l-313 -266h-234z" />
<glyph unicode="&#xde;" horiz-adv-x="1169" d="M143 0v1403h287q0 -2 -2 -103.5t-2 -150.5q76 2 219 2q39 0 68.5 -3t93 -13.5t111 -40t96.5 -75.5t75.5 -128t26.5 -189q0 -111 -37 -196.5t-89 -131.5t-118.5 -76t-115.5 -38t-90 -8q-162 0 -240 2q0 -49 2 -150.5t2 -103.5h-287zM426 479q70 2 184 2q231 0 232 213 q0 59 -18.5 101.5t-41 63t-60.5 30.5t-59.5 12t-52.5 2q-119 0 -182 2q0 -266 -2 -426z" />
<glyph unicode="&#xdf;" horiz-adv-x="1261" d="M109 0v1012q0 92 18 164.5t47 121t73 82t85 52t94 28.5t89 12.5t81 2.5q135 0 234.5 -31t152.5 -83t77.5 -110.5t24.5 -126.5q0 -121 -34.5 -178t-116.5 -115q-6 -4 -23.5 -15t-23.5 -16t-18.5 -16.5t-18.5 -20.5t-10 -23.5t-4 -30.5q0 -18 7 -36t16 -28t29.5 -24.5 t33 -20.5t42 -21.5t42.5 -21.5q102 -55 148 -115.5t46 -160.5q0 -150 -99.5 -229t-271.5 -79q-182 0 -333 101v24l84 156q111 -94 211 -94q51 0 86.5 24.5t35.5 71.5q0 20 -7 37.5t-15 29t-26.5 24.5t-31 19.5t-38 18.5t-35.5 18q-66 35 -105 65t-69.5 89t-30.5 143 q0 80 29.5 136.5t58.5 78t90 60.5q41 27 58.5 57.5t17.5 87.5q0 20 -6 41t-24.5 47.5t-62.5 43t-108 16.5q-45 0 -75.5 -7.5t-64.5 -32t-51.5 -78.5t-17.5 -138v-1012h-290z" />
<glyph unicode="&#xe0;" horiz-adv-x="1019" d="M70 272q0 66 17 118t42 87t72 60.5t85 40t105.5 23.5t110.5 13t121 9v63q0 113 -131 113q-137 0 -314 -68l-63 164v25q225 82 460 81q336 0 336 -303v-462q0 -113 7 -236h-230l-20 20l-25 78l-8 2q-139 -127 -307 -127q-78 0 -132.5 30t-80 79t-35.5 95t-10 95zM176 1397 l10 28h306l231 -305h-231zM348 309q0 -139 96 -139q90 0 179 90q0 6 2 103.5t2 103.5l-2 2q-72 -2 -105 -4t-75 -10.5t-57 -24.5t-27.5 -46t-12.5 -75z" />
<glyph unicode="&#xe1;" horiz-adv-x="1019" d="M70 272q0 66 17 118t42 87t72 60.5t85 40t105.5 23.5t110.5 13t121 9v63q0 113 -131 113q-137 0 -314 -68l-63 164v25q225 82 460 81q336 0 336 -303v-462q0 -113 7 -236h-230l-20 20l-25 78l-8 2q-139 -127 -307 -127q-78 0 -132.5 30t-80 79t-35.5 95t-10 95zM336 1120 l231 305h305l11 -28l-316 -277h-231zM348 309q0 -139 96 -139q90 0 179 90q0 6 2 103.5t2 103.5l-2 2q-72 -2 -105 -4t-75 -10.5t-57 -24.5t-27.5 -46t-12.5 -75z" />
<glyph unicode="&#xe2;" horiz-adv-x="1019" d="M70 272q0 66 17 118t42 87t72 60.5t85 40t105.5 23.5t110.5 13t121 9v63q0 113 -131 113q-137 0 -314 -68l-63 164v25q225 82 460 81q336 0 336 -303v-462q0 -113 7 -236h-230l-20 20l-25 78l-8 2q-139 -127 -307 -127q-78 0 -132.5 30t-80 79t-35.5 95t-10 95zM154 1120 l239 310h242l239 -310h-202l-154 144h-10l-156 -144h-198zM348 309q0 -139 96 -139q90 0 179 90q0 6 2 103.5t2 103.5l-2 2q-72 -2 -105 -4t-75 -10.5t-57 -24.5t-27.5 -46t-12.5 -75z" />
<glyph unicode="&#xe3;" horiz-adv-x="1019" d="M70 272q0 66 17 118t42 87t72 60.5t85 40t105.5 23.5t110.5 13t121 9v63q0 113 -131 113q-137 0 -314 -68l-63 164v25q225 82 460 81q336 0 336 -303v-462q0 -113 7 -236h-230l-20 20l-25 78l-8 2q-139 -127 -307 -127q-78 0 -132.5 30t-80 79t-35.5 95t-10 95zM131 1233 q100 188 260 188q47 0 139.5 -36.5t120.5 -36.5q23 0 41.5 9t31.5 22.5t48 50.5l123 -89q-100 -188 -258 -188q-47 0 -139 37t-121 37q-33 0 -55.5 -15.5t-65.5 -64.5zM348 309q0 -139 96 -139q90 0 179 90q0 6 2 103.5t2 103.5l-2 2q-72 -2 -105 -4t-75 -10.5t-57 -24.5 t-27.5 -46t-12.5 -75z" />
<glyph unicode="&#xe4;" horiz-adv-x="1019" d="M70 272q0 66 17 118t42 87t72 60.5t85 40t105.5 23.5t110.5 13t121 9v63q0 113 -131 113q-137 0 -314 -68l-63 164v25q225 82 460 81q336 0 336 -303v-462q0 -113 7 -236h-230l-20 20l-25 78l-8 2q-139 -127 -307 -127q-78 0 -132.5 30t-80 79t-35.5 95t-10 95zM166 1143 v250l20 20h228v-270h-248zM348 309q0 -139 96 -139q90 0 179 90q0 6 2 103.5t2 103.5l-2 2q-72 -2 -105 -4t-75 -10.5t-57 -24.5t-27.5 -46t-12.5 -75zM610 1143v250l21 20h227v-270h-248z" />
<glyph unicode="&#xe5;" horiz-adv-x="1019" d="M70 272q0 66 17 118t42 87t72 60.5t85 40t105.5 23.5t110.5 13t121 9v63q0 113 -131 113q-137 0 -314 -68l-63 164v25q225 82 460 81q336 0 336 -303v-462q0 -113 7 -236h-230l-20 20l-25 78l-8 2q-139 -127 -307 -127q-78 0 -132.5 30t-80 79t-35.5 95t-10 95zM254 1296 q0 199 260 199t260 -199q0 -96 -72.5 -143t-187.5 -47t-187.5 47t-72.5 143zM348 309q0 -139 96 -139q90 0 179 90q0 6 2 103.5t2 103.5l-2 2q-72 -2 -105 -4t-75 -10.5t-57 -24.5t-27.5 -46t-12.5 -75zM442 1296q0 -90 72 -90t72 90q0 100 -72 100t-72 -100z" />
<glyph unicode="&#xe6;" horiz-adv-x="1544" d="M70 272q0 66 17 118t42 87t72 60.5t86 40t107.5 23.5t113.5 13t127 9v63q0 113 -143 113q-137 0 -314 -68l-63 164v25q225 82 460 81q162 0 230 -96q100 96 254 96q219 0 321.5 -128t102.5 -334q0 -70 -21 -127q-45 0 -302 2t-261 2q2 -100 50 -176t157 -76 q106 0 209 108l117 -131v-24q-164 -143 -359 -144q-221 0 -338 150q-170 -150 -395 -150q-82 0 -139.5 30t-84 80t-36.5 95t-10 94zM348 309q0 -139 96 -139q106 0 213 113q-25 92 -24 186q-76 -2 -108.5 -4t-75.5 -10.5t-59.5 -24.5t-29 -46t-12.5 -75zM899 561 q12 0 157.5 3t149.5 3q0 233 -147 234q-152 0 -160 -240z" />
<glyph unicode="&#xe7;" horiz-adv-x="878" d="M70 496q0 231 117.5 368t349.5 137q176 0 299 -83v-25l-82 -162q-92 66 -183 66q-100 0 -148 -82t-48 -221q0 -328 178 -328q98 0 190 100l97 -145v-25q-113 -98 -252 -116l-15 -48q170 -74 170 -219q0 -94 -70.5 -147t-178.5 -53q-127 0 -213 57l53 139h24 q39 -43 115 -43q82 0 82 68q0 47 -37 69.5t-112 40.5l36 133q-190 18 -281 156t-91 363z" />
<glyph unicode="&#xe8;" horiz-adv-x="1011" d="M66 494q0 229 110.5 368t343.5 139q225 0 327.5 -128t102.5 -343q0 -63 -20 -118q-45 0 -309.5 2t-266.5 2q2 -100 52.5 -176t160.5 -76q113 0 215 108l117 -131v-24q-164 -143 -364 -144q-238 0 -353.5 145t-115.5 376zM139 1397l11 28h305l231 -305h-231zM356 561 q12 0 163 3t155 3q0 233 -154 234q-156 0 -164 -240z" />
<glyph unicode="&#xe9;" horiz-adv-x="1011" d="M66 494q0 229 110.5 368t343.5 139q225 0 327.5 -128t102.5 -343q0 -63 -20 -118q-45 0 -309.5 2t-266.5 2q2 -100 52.5 -176t160.5 -76q113 0 215 108l117 -131v-24q-164 -143 -364 -144q-238 0 -353.5 145t-115.5 376zM356 561q12 0 163 3t155 3q0 233 -154 234 q-156 0 -164 -240zM369 1120l231 305h305l10 -28l-315 -277h-231z" />
<glyph unicode="&#xea;" horiz-adv-x="1011" d="M66 494q0 229 110.5 368t343.5 139q225 0 327.5 -128t102.5 -343q0 -63 -20 -118q-45 0 -309.5 2t-266.5 2q2 -100 52.5 -176t160.5 -76q113 0 215 108l117 -131v-24q-164 -143 -364 -144q-238 0 -353.5 145t-115.5 376zM160 1120l239 310h242l240 -310h-203l-154 144 h-10l-156 -144h-198zM356 561q12 0 163 3t155 3q0 233 -154 234q-156 0 -164 -240z" />
<glyph unicode="&#xeb;" horiz-adv-x="1011" d="M66 494q0 229 110.5 368t343.5 139q225 0 327.5 -128t102.5 -343q0 -63 -20 -118q-45 0 -309.5 2t-266.5 2q2 -100 52.5 -176t160.5 -76q113 0 215 108l117 -131v-24q-164 -143 -364 -144q-238 0 -353.5 145t-115.5 376zM172 1143v250l21 20h227v-270h-248zM356 561 q12 0 163 3t155 3q0 233 -154 234q-156 0 -164 -240zM616 1143v250l21 20h227v-270h-248z" />
<glyph unicode="&#xec;" horiz-adv-x="534" d="M-57 1397l10 28h287l168 -305h-232zM119 975l276 4l21 -21v-958h-291v739q0 113 -6 236z" />
<glyph unicode="&#xed;" horiz-adv-x="534" d="M119 975l276 4l21 -21v-958h-291v739q0 113 -6 236zM131 1120l166 305h289l10 -28l-234 -277h-231z" />
<glyph unicode="&#xee;" horiz-adv-x="534" d="M-51 1120l198 310h242l197 -310h-199l-115 144h-10l-117 -144h-196zM119 975l276 4l21 -21v-958h-291v739q0 113 -6 236z" />
<glyph unicode="&#xef;" horiz-adv-x="534" d="M-20 1143v250l20 20h213v-270h-233zM119 975l276 4l21 -21v-958h-291v739q0 113 -6 236zM322 1143v250l20 20h213v-270h-233z" />
<glyph unicode="&#xf0;" horiz-adv-x="1073" d="M63 485q0 217 113 356.5t285 139.5q117 0 201 -82l6 4q-59 145 -160 240l-217 -127l-64 106l176 103q-66 41 -182 90l90 198q172 -59 305 -159l236 139l61 -109l-196 -112q293 -276 293 -713q0 -115 -24.5 -213t-76 -185t-147.5 -137.5t-225 -50.5q-131 0 -227.5 47.5 t-147.5 126t-75 162.5t-24 176zM362 483q0 -332 175 -331q172 0 172 331q0 307 -172 308q-175 -1 -175 -308z" />
<glyph unicode="&#xf1;" horiz-adv-x="1079" d="M106 975l242 6l23 -20l14 -80l4 -2q72 53 163 86.5t171 33.5q111 0 176.5 -70.5t65.5 -219.5q0 -10 -3.5 -354.5t-3.5 -354.5h-290q0 8 4 321.5t4 323.5q0 78 -20.5 109.5t-73.5 31.5q-76 0 -181 -69l2 -717h-290v723q-1 123 -7 252zM164 1233q100 188 260 188 q47 0 139 -36.5t121 -36.5q23 0 41 9t31.5 22.5t48.5 50.5l123 -89q-100 -188 -258 -188q-47 0 -139.5 37t-120.5 37q-33 0 -55.5 -15.5t-65.5 -64.5z" />
<glyph unicode="&#xf2;" horiz-adv-x="1073" d="M63 492q0 229 116 369t358 140q238 0 355.5 -140t117.5 -369q0 -94 -24.5 -180.5t-76 -165t-147.5 -126t-225 -47.5q-131 0 -227.5 47.5t-147.5 126t-75 165t-24 180.5zM139 1397l11 28h305l231 -305h-231zM365 487q0 -336 172 -335.5t172 335.5q0 313 -172 314 q-70 0 -110 -47t-51 -111t-11 -156z" />
<glyph unicode="&#xf3;" horiz-adv-x="1073" d="M63 492q0 229 116 369t358 140q238 0 355.5 -140t117.5 -369q0 -94 -24.5 -180.5t-76 -165t-147.5 -126t-225 -47.5q-131 0 -227.5 47.5t-147.5 126t-75 165t-24 180.5zM365 487q0 -336 172 -335.5t172 335.5q0 313 -172 314q-70 0 -110 -47t-51 -111t-11 -156zM397 1120 l232 305h305l10 -28l-315 -277h-232z" />
<glyph unicode="&#xf4;" horiz-adv-x="1073" d="M63 492q0 229 116 369t358 140q238 0 355.5 -140t117.5 -369q0 -94 -24.5 -180.5t-76 -165t-147.5 -126t-225 -47.5q-131 0 -227.5 47.5t-147.5 126t-75 165t-24 180.5zM176 1120l240 310h241l240 -310h-203l-153 144h-11l-155 -144h-199zM365 487q0 -336 172 -335.5 t172 335.5q0 313 -172 314q-70 0 -110 -47t-51 -111t-11 -156z" />
<glyph unicode="&#xf5;" horiz-adv-x="1073" d="M63 492q0 229 116 369t358 140q238 0 355.5 -140t117.5 -369q0 -94 -24.5 -180.5t-76 -165t-147.5 -126t-225 -47.5q-131 0 -227.5 47.5t-147.5 126t-75 165t-24 180.5zM158 1233q100 188 260 188q47 0 139 -36.5t121 -36.5q23 0 41 9t31.5 22.5t48.5 50.5l123 -89 q-100 -188 -258 -188q-47 0 -139.5 37t-121.5 37q-33 0 -55 -15.5t-65 -64.5zM365 487q0 -336 172 -335.5t172 335.5q0 313 -172 314q-70 0 -110 -47t-51 -111t-11 -156z" />
<glyph unicode="&#xf6;" horiz-adv-x="1073" d="M63 492q0 229 116 369t358 140q238 0 355.5 -140t117.5 -369q0 -94 -24.5 -180.5t-76 -165t-147.5 -126t-225 -47.5q-131 0 -227.5 47.5t-147.5 126t-75 165t-24 180.5zM190 1143v250l21 20h227v-270h-248zM365 487q0 -336 172 -335.5t172 335.5q0 313 -172 314 q-70 0 -110 -47t-51 -111t-11 -156zM635 1143v250l20 20h228v-270h-248z" />
<glyph unicode="&#xf7;" d="M164 512v252h840v-252h-840zM428 206.5q0 65.5 45 110.5t110.5 45t110.5 -45t45 -110.5t-45 -111.5t-110.5 -46t-110.5 46t-45 111.5zM428 1073.5q0 65.5 45 110.5t110.5 45t110.5 -45t45 -110.5t-45 -112t-110.5 -46.5t-110.5 46.5t-45 112z" />
<glyph unicode="&#xf8;" horiz-adv-x="1073" d="M63 492q0 229 116 369t358 140q135 0 237 -51l57 82h144l-103 -151q137 -135 138 -389q0 -94 -24.5 -180.5t-76 -165t-147.5 -126t-225 -47.5q-137 0 -238 54l-57 -84h-146l107 155q-140 140 -140 394zM365 487q0 -68 8 -141l272 410q-41 45 -108 45q-70 0 -110 -47 t-51 -111t-11 -156zM422 211q41 -59 115 -59q172 0 172 335q0 90 -11 140z" />
<glyph unicode="&#xf9;" horiz-adv-x="1083" d="M102 264q0 10 3.5 355.5t3.5 355.5h270l20 -21q0 -10 -3 -316t-3 -321q0 -143 99 -143q45 0 100 26.5t92 65.5l-4 709h270l21 -21v-718q0 -113 6 -236h-229l-21 20l-25 82l-8 2q-139 -131 -334 -131q-119 0 -188.5 70.5t-69.5 220.5zM168 1397l10 28h305l232 -305h-232z " />
<glyph unicode="&#xfa;" horiz-adv-x="1083" d="M102 264q0 10 3.5 355.5t3.5 355.5h270l20 -21q0 -10 -3 -316t-3 -321q0 -143 99 -143q45 0 100 26.5t92 65.5l-4 709h270l21 -21v-718q0 -113 6 -236h-229l-21 20l-25 82l-8 2q-139 -131 -334 -131q-119 0 -188.5 70.5t-69.5 220.5zM373 1120l231 305h305l11 -28 l-316 -277h-231z" />
<glyph unicode="&#xfb;" horiz-adv-x="1083" d="M102 264q0 10 3.5 355.5t3.5 355.5h270l20 -21q0 -10 -3 -316t-3 -321q0 -143 99 -143q45 0 100 26.5t92 65.5l-4 709h270l21 -21v-718q0 -113 6 -236h-229l-21 20l-25 82l-8 2q-139 -131 -334 -131q-119 0 -188.5 70.5t-69.5 220.5zM184 1120l240 310h242l239 -310h-203 l-153 144h-10l-156 -144h-199z" />
<glyph unicode="&#xfc;" horiz-adv-x="1083" d="M102 264q0 10 3.5 355.5t3.5 355.5h270l20 -21q0 -10 -3 -316t-3 -321q0 -143 99 -143q45 0 100 26.5t92 65.5l-4 709h270l21 -21v-718q0 -113 6 -236h-229l-21 20l-25 82l-8 2q-139 -131 -334 -131q-119 0 -188.5 70.5t-69.5 220.5zM199 1143v250l20 20h227v-270h-247z M643 1143v250l21 20h227v-270h-248z" />
<glyph unicode="&#xfd;" horiz-adv-x="1009" d="M6 975h320l104 -346q55 -174 84 -363h10q39 246 78 363l115 346h303l-369 -993q-78 -207 -193.5 -305.5t-353.5 -116.5l-51 194l10 27q125 6 197 52t113 149zM336 1120l231 305h305l11 -28l-316 -277h-231z" />
<glyph unicode="&#xfe;" horiz-adv-x="1087" d="M102 1440l277 8l20 -21q0 -391 -4 -528l4 -2q133 104 267 104q127 0 206.5 -68.5t109.5 -169.5t30 -237q0 -551 -353 -551q-137 0 -266 115l-8 -2q14 -160 14 -522h-270l-20 20v1618q-1 175 -7 236zM395 707q0 -23 2 -222.5t2 -205.5q37 -47 85 -78t89 -31q47 0 77 30.5 t42.5 88t15.5 101.5t3 110q0 59 -4.5 100t-17.5 89t-45 73.5t-79 25.5q-94 1 -170 -81z" />
<glyph unicode="&#xff;" horiz-adv-x="1009" d="M6 975h320l104 -346q55 -174 84 -363h10q39 246 78 363l115 346h303l-369 -993q-78 -207 -193.5 -305.5t-353.5 -116.5l-51 194l10 27q125 6 197 52t113 149zM170 1143v250l20 20h228v-270h-248zM614 1143v250l21 20h227v-270h-248z" />
<glyph unicode="&#x152;" horiz-adv-x="1808" d="M74 721q0 311 150.5 514t434.5 203q133 0 244 -35h795v-252q-315 0 -537 2q0 -207 -2 -319q170 2 428 2v-230q-258 0 -428 2q2 -176 2 -360q193 4 557 4v-252h-835q-119 -27 -221 -27q-154 0 -271 64.5t-183.5 173t-100 238t-33.5 272.5zM373 721q0 -129 23.5 -234.5 t95 -187.5t186.5 -82q109 0 205 35v895q-86 39 -203 39q-86 0 -148.5 -39t-95.5 -107.5t-48 -146.5t-15 -172z" />
<glyph unicode="&#x153;" horiz-adv-x="1640" d="M63 492q0 229 115 369t354 140q207 0 324 -143q111 143 297 143q219 0 322.5 -128t103.5 -334q0 -74 -20 -127q-45 0 -302.5 2t-261.5 2q2 -100 50.5 -176t156.5 -76q106 0 209 108l117 -131v-24q-164 -143 -359 -144q-205 0 -313 140q-115 -139 -324 -140 q-104 0 -187 32t-135 83t-86 121t-47.5 139.5t-13.5 143.5zM365 487q0 -336 167.5 -335.5t167.5 335.5q0 313 -167.5 313t-167.5 -313zM997 561q10 0 155.5 3t150.5 3q0 233 -148 234q-150 0 -158 -240z" />
<glyph unicode="&#x178;" horiz-adv-x="1150" d="M6 1403h322l164 -369q74 -172 92 -262h6q23 98 92 262l164 369h299l-424 -868v-535h-291v530zM229 1532v250l21 20h227v-270h-248zM674 1532v250l20 20h228v-270h-248z" />
<glyph unicode="&#x2c6;" horiz-adv-x="1060" d="M170 1120l240 310h241l240 -310h-203l-153 144h-11l-155 -144h-199z" />
<glyph unicode="&#x2dc;" horiz-adv-x="1060" d="M147 1233q100 188 261 188q47 0 139 -36.5t121 -36.5q23 0 41 9t31.5 22.5t47.5 50.5l123 -89q-100 -188 -258 -188q-47 0 -139 37t-121 37q-33 0 -55.5 -15.5t-65.5 -64.5z" />
<glyph unicode="&#x2000;" horiz-adv-x="942" />
<glyph unicode="&#x2001;" horiz-adv-x="1884" />
<glyph unicode="&#x2002;" horiz-adv-x="942" />
<glyph unicode="&#x2003;" horiz-adv-x="1884" />
<glyph unicode="&#x2004;" horiz-adv-x="626" />
<glyph unicode="&#x2005;" horiz-adv-x="471" />
<glyph unicode="&#x2006;" horiz-adv-x="313" />
<glyph unicode="&#x2007;" horiz-adv-x="313" />
<glyph unicode="&#x2008;" horiz-adv-x="235" />
<glyph unicode="&#x2009;" horiz-adv-x="376" />
<glyph unicode="&#x200a;" horiz-adv-x="104" />
<glyph unicode="&#x2010;" horiz-adv-x="737" d="M82 436v254h573v-254h-573z" />
<glyph unicode="&#x2011;" horiz-adv-x="737" d="M82 436v254h573v-254h-573z" />
<glyph unicode="&#x2012;" horiz-adv-x="737" d="M82 436v254h573v-254h-573z" />
<glyph unicode="&#x2013;" horiz-adv-x="2990" d="M25 440v805h309q29 0 53.5 -2t76.5 -23.5t88 -60.5t64.5 -121t28.5 -194q0 -115 -30.5 -197t-67.5 -121t-91.5 -60.5t-80 -23.5t-53.5 -2h-297zM31 -68h26l-2 86q23 -23 45 -22q57 0 58 88q0 76 -58 76q-25 0 -45 -21l-4 17h-20v-224zM55 41v76q23 23 45 22q31 0 31 -57 q0 -63 -33 -64q-20 0 -43 23zM199 0v236h26v-236h-26zM236 625h40q31 0 49.5 4t45 22.5t40 67.5t13.5 125q0 78 -11.5 126t-36 66.5t-42 22.5t-47.5 4h-51v-438zM266 80q0 80 66 80q63 0 63 -74l-4 -12h-98q0 -55 41 -56q23 0 41 21l14 -16q-27 -27 -57 -27q-66 0 -66 84z M295 92h72q0 47 -35 47q-37 0 -37 -47zM426 43q0 35 22.5 44t71.5 11v15q0 25 -24 24q-16 0 -54 -12l-10 20q37 14 70 15q45 0 45 -47v-113h-21l-4 18h-2q-23 -23 -51 -22q-43 0 -43 47zM453 45q0 -27 18 -27q27 0 49 23v39q-57 -2 -65 -21q-2 -6 -2 -14zM584 18v5l12 16 q20 -20 45 -21q31 0 31 25q0 6 -4 11t-8.5 7t-12.5 4.5t-10 4.5q-45 18 -45 45q0 45 55 45q29 0 45 -15v-4l-10 -16q-14 14 -37 14q-29 0 -29 -20q0 -6 1 -9.5t6.5 -6.5t8.5 -5t10 -4t11 -4q43 -16 43 -43q0 -51 -57 -51q-28 -1 -55 22zM729 80q0 80 66 80q63 0 63 -74 l-4 -12h-98q0 -55 41 -56q23 0 41 21l14 -16q-27 -27 -57 -27q-66 0 -66 84zM735 440v805h479v-182q-145 0 -274 2q0 -63 -2 -131q86 2 192 2v-166h-192q2 -82 2 -147q129 2 287 2v-185h-492zM758 92h71q0 47 -34 47q-37 0 -37 -47zM958 0v233h25v-233h-25zM1036 0v156h27 v-156h-27zM1036 188v39h27v-39h-27zM1106 80q0 33 18.5 56.5t51.5 23.5q29 0 45 -17l-13 -18q-14 14 -32 14q-43 0 -43 -59q0 -61 41 -62q18 0 34 17l15 -17q-27 -23 -52 -22q-65 0 -65 84zM1247 80q0 80 66 80q63 0 63 -74l-4 -12h-98q0 -55 41 -56q23 0 41 21l14 -16 q-27 -27 -57 -27q-66 0 -66 84zM1276 92h72q0 47 -35 47q-37 0 -37 -47zM1335 440q0 6 2 207t4 400l2 198h299l89 -268q16 -51 26 -109h4q10 57 27 109l86 268h291l2 -198q0 -199 2 -400t2 -207h-217q0 381 14 580h-4q-18 -80 -51 -184l-80 -246h-168l-82 246 q-35 113 -49 184h-4q16 -268 16 -580h-211zM1415 0v156h23l2 -17q33 20 57 21q35 0 35 -45v-115h-27v115q0 23 -18 22q-16 0 -45 -18v-119h-27zM1571 18v5l12 16q20 -20 45 -21q31 0 31 25q0 16 -33 27q-47 16 -47 45q0 45 53 45q27 0 47 -15v-4l-10 -16q-14 14 -39 14 q-27 0 -26 -20q0 -12 6 -16.5t30 -12.5q43 -16 43 -43q0 -51 -57 -51q-28 -1 -55 22zM1716 80q0 80 66 80q63 0 63 -74l-4 -12h-98q0 -55 41 -56q23 0 41 21l14 -16q-27 -27 -57 -27q-66 0 -66 84zM1745 92h72q0 47 -35 47q-37 0 -37 -47zM1927 133v23h27v53h24v-53h39v-23 h-39v-88q0 -12 2 -16t15 -4h22v-25h-28q-35 0 -35 39v94h-27zM2052 0v236h27l-2 -97q33 20 57 21q35 0 35 -45v-115h-27v115q0 23 -18.5 22.5t-44.5 -18.5v-119h-27zM2210 80q0 80 65 80q63 0 64 -74l-4 -12h-99q0 -55 41 -56q23 0 41 21l15 -16q-27 -27 -58 -27 q-65 0 -65 84zM2238 92h72q0 47 -35 47q-37 0 -37 -47zM2255 856q0 184 89 298t267 114q180 0 269.5 -114t89.5 -298q0 -82 -19.5 -155.5t-59.5 -136t-112 -100.5t-168 -38q-182 0 -269 126t-87 304zM2425 133v23h24v37q0 43 43 43q20 0 35 -9l-8 -18q-8 6 -22 6 q-20 0 -21 -22v-37h41v-23h-41v-133h-27v133h-24zM2478 856q0 -244 133 -244t133 244q0 104 -27.5 162.5t-105.5 58.5q-133 0 -133 -221zM2535 80q0 35 19.5 57.5t50.5 22.5q33 0 52.5 -22.5t19.5 -57.5q0 -31 -18.5 -57.5t-53.5 -26.5t-52.5 26.5t-17.5 57.5zM2564 80 q0 -63 41 -64q45 0 45 64q0 59 -45 59q-41 0 -41 -59zM2716 0v156h22l2 -17q33 20 58 21q35 0 34 -45v-115h-26v115q0 23 -18.5 22.5t-45.5 -18.5v-119h-26zM2865 133v23h27v53h24v-53h39v-23h-39v-88q0 -12 2 -16t15 -4h22v-25h-28q-35 0 -35 39v94h-27z" />
<glyph unicode="&#x2014;" horiz-adv-x="2990" d="M25 440v805h309q29 0 53.5 -2t76.5 -23.5t88 -60.5t64.5 -121t28.5 -194q0 -115 -30.5 -197t-67.5 -121t-91.5 -60.5t-80 -23.5t-53.5 -2h-297zM31 -68h26l-2 86q23 -23 45 -22q57 0 58 88q0 76 -58 76q-25 0 -45 -21l-4 17h-20v-224zM55 41v76q23 23 45 22q31 0 31 -57 q0 -63 -33 -64q-20 0 -43 23zM199 0v236h26v-236h-26zM236 625h40q31 0 49.5 4t45 22.5t40 67.5t13.5 125q0 78 -11.5 126t-36 66.5t-42 22.5t-47.5 4h-51v-438zM266 80q0 80 66 80q63 0 63 -74l-4 -12h-98q0 -55 41 -56q23 0 41 21l14 -16q-27 -27 -57 -27q-66 0 -66 84z M295 92h72q0 47 -35 47q-37 0 -37 -47zM426 43q0 35 22.5 44t71.5 11v15q0 25 -24 24q-16 0 -54 -12l-10 20q37 14 70 15q45 0 45 -47v-113h-21l-4 18h-2q-23 -23 -51 -22q-43 0 -43 47zM453 45q0 -27 18 -27q27 0 49 23v39q-57 -2 -65 -21q-2 -6 -2 -14zM584 18v5l12 16 q20 -20 45 -21q31 0 31 25q0 6 -4 11t-8.5 7t-12.5 4.5t-10 4.5q-45 18 -45 45q0 45 55 45q29 0 45 -15v-4l-10 -16q-14 14 -37 14q-29 0 -29 -20q0 -6 1 -9.5t6.5 -6.5t8.5 -5t10 -4t11 -4q43 -16 43 -43q0 -51 -57 -51q-28 -1 -55 22zM729 80q0 80 66 80q63 0 63 -74 l-4 -12h-98q0 -55 41 -56q23 0 41 21l14 -16q-27 -27 -57 -27q-66 0 -66 84zM735 440v805h479v-182q-145 0 -274 2q0 -63 -2 -131q86 2 192 2v-166h-192q2 -82 2 -147q129 2 287 2v-185h-492zM758 92h71q0 47 -34 47q-37 0 -37 -47zM958 0v233h25v-233h-25zM1036 0v156h27 v-156h-27zM1036 188v39h27v-39h-27zM1106 80q0 33 18.5 56.5t51.5 23.5q29 0 45 -17l-13 -18q-14 14 -32 14q-43 0 -43 -59q0 -61 41 -62q18 0 34 17l15 -17q-27 -23 -52 -22q-65 0 -65 84zM1247 80q0 80 66 80q63 0 63 -74l-4 -12h-98q0 -55 41 -56q23 0 41 21l14 -16 q-27 -27 -57 -27q-66 0 -66 84zM1276 92h72q0 47 -35 47q-37 0 -37 -47zM1335 440q0 6 2 207t4 400l2 198h299l89 -268q16 -51 26 -109h4q10 57 27 109l86 268h291l2 -198q0 -199 2 -400t2 -207h-217q0 381 14 580h-4q-18 -80 -51 -184l-80 -246h-168l-82 246 q-35 113 -49 184h-4q16 -268 16 -580h-211zM1415 0v156h23l2 -17q33 20 57 21q35 0 35 -45v-115h-27v115q0 23 -18 22q-16 0 -45 -18v-119h-27zM1571 18v5l12 16q20 -20 45 -21q31 0 31 25q0 16 -33 27q-47 16 -47 45q0 45 53 45q27 0 47 -15v-4l-10 -16q-14 14 -39 14 q-27 0 -26 -20q0 -12 6 -16.5t30 -12.5q43 -16 43 -43q0 -51 -57 -51q-28 -1 -55 22zM1716 80q0 80 66 80q63 0 63 -74l-4 -12h-98q0 -55 41 -56q23 0 41 21l14 -16q-27 -27 -57 -27q-66 0 -66 84zM1745 92h72q0 47 -35 47q-37 0 -37 -47zM1927 133v23h27v53h24v-53h39v-23 h-39v-88q0 -12 2 -16t15 -4h22v-25h-28q-35 0 -35 39v94h-27zM2052 0v236h27l-2 -97q33 20 57 21q35 0 35 -45v-115h-27v115q0 23 -18.5 22.5t-44.5 -18.5v-119h-27zM2210 80q0 80 65 80q63 0 64 -74l-4 -12h-99q0 -55 41 -56q23 0 41 21l15 -16q-27 -27 -58 -27 q-65 0 -65 84zM2238 92h72q0 47 -35 47q-37 0 -37 -47zM2255 856q0 184 89 298t267 114q180 0 269.5 -114t89.5 -298q0 -82 -19.5 -155.5t-59.5 -136t-112 -100.5t-168 -38q-182 0 -269 126t-87 304zM2425 133v23h24v37q0 43 43 43q20 0 35 -9l-8 -18q-8 6 -22 6 q-20 0 -21 -22v-37h41v-23h-41v-133h-27v133h-24zM2478 856q0 -244 133 -244t133 244q0 104 -27.5 162.5t-105.5 58.5q-133 0 -133 -221zM2535 80q0 35 19.5 57.5t50.5 22.5q33 0 52.5 -22.5t19.5 -57.5q0 -31 -18.5 -57.5t-53.5 -26.5t-52.5 26.5t-17.5 57.5zM2564 80 q0 -63 41 -64q45 0 45 64q0 59 -45 59q-41 0 -41 -59zM2716 0v156h22l2 -17q33 20 58 21q35 0 34 -45v-115h-26v115q0 23 -18.5 22.5t-45.5 -18.5v-119h-26zM2865 133v23h27v53h24v-53h39v-23h-39v-88q0 -12 2 -16t15 -4h22v-25h-28q-35 0 -35 39v94h-27z" />
<glyph unicode="&#x2018;" horiz-adv-x="501" d="M98 924l97 503h206l-28 -518l-254 -6z" />
<glyph unicode="&#x2019;" horiz-adv-x="501" d="M98 903l29 518l254 6l20 -20l-96 -504h-207z" />
<glyph unicode="&#x201a;" horiz-adv-x="501" d="M98 -256l29 518l254 6l20 -20l-96 -504h-207z" />
<glyph unicode="&#x201c;" horiz-adv-x="919" d="M98 924l97 503h206l-28 -518l-254 -6zM516 924l96 503h207l-28 -518l-254 -6z" />
<glyph unicode="&#x201d;" horiz-adv-x="919" d="M98 903l29 518l254 6l20 -20l-96 -504h-207zM516 903l29 518l254 6l20 -20l-96 -504h-207z" />
<glyph unicode="&#x201e;" horiz-adv-x="919" d="M98 -256l29 518l254 6l20 -20l-96 -504h-207zM516 -256l29 518l254 6l20 -20l-96 -504h-207z" />
<glyph unicode="&#x2022;" horiz-adv-x="808" d="M139 680q0 115 73 193.5t191 78.5q121 0 194 -77.5t73 -194.5q0 -115 -73 -192.5t-193.5 -77.5t-192.5 77.5t-72 192.5z" />
<glyph unicode="&#x2026;" horiz-adv-x="2007" d="M166 137q0 70 48 119t120 49q70 0 119 -49t49 -119q0 -72 -48 -120t-120 -48t-120 48t-48 120zM836 137q0 70 48 119t120 49q70 0 118.5 -49t48.5 -119q0 -72 -49 -120t-118 -48q-72 0 -120 48t-48 120zM1503 137q0 70 48 119t120 49q70 0 119 -49t49 -119 q0 -72 -49 -120t-119 -48q-72 0 -120 48t-48 120z" />
<glyph unicode="&#x202f;" horiz-adv-x="376" />
<glyph unicode="&#x2039;" horiz-adv-x="634" d="M78 483l295 457l182 -106l-207 -351l207 -352l-182 -104z" />
<glyph unicode="&#x203a;" horiz-adv-x="634" d="M80 133l207 350l-207 353l182 104l295 -457l-295 -456z" />
<glyph unicode="&#x205f;" horiz-adv-x="471" />
<glyph unicode="&#x20ac;" horiz-adv-x="2990" d="M25 440v805h309q29 0 53.5 -2t76.5 -23.5t88 -60.5t64.5 -121t28.5 -194q0 -115 -30.5 -197t-67.5 -121t-91.5 -60.5t-80 -23.5t-53.5 -2h-297zM31 -68h26l-2 86q23 -23 45 -22q57 0 58 88q0 76 -58 76q-25 0 -45 -21l-4 17h-20v-224zM55 41v76q23 23 45 22q31 0 31 -57 q0 -63 -33 -64q-20 0 -43 23zM199 0v236h26v-236h-26zM236 625h40q31 0 49.5 4t45 22.5t40 67.5t13.5 125q0 78 -11.5 126t-36 66.5t-42 22.5t-47.5 4h-51v-438zM266 80q0 80 66 80q63 0 63 -74l-4 -12h-98q0 -55 41 -56q23 0 41 21l14 -16q-27 -27 -57 -27q-66 0 -66 84z M295 92h72q0 47 -35 47q-37 0 -37 -47zM426 43q0 35 22.5 44t71.5 11v15q0 25 -24 24q-16 0 -54 -12l-10 20q37 14 70 15q45 0 45 -47v-113h-21l-4 18h-2q-23 -23 -51 -22q-43 0 -43 47zM453 45q0 -27 18 -27q27 0 49 23v39q-57 -2 -65 -21q-2 -6 -2 -14zM584 18v5l12 16 q20 -20 45 -21q31 0 31 25q0 6 -4 11t-8.5 7t-12.5 4.5t-10 4.5q-45 18 -45 45q0 45 55 45q29 0 45 -15v-4l-10 -16q-14 14 -37 14q-29 0 -29 -20q0 -6 1 -9.5t6.5 -6.5t8.5 -5t10 -4t11 -4q43 -16 43 -43q0 -51 -57 -51q-28 -1 -55 22zM729 80q0 80 66 80q63 0 63 -74 l-4 -12h-98q0 -55 41 -56q23 0 41 21l14 -16q-27 -27 -57 -27q-66 0 -66 84zM735 440v805h479v-182q-145 0 -274 2q0 -63 -2 -131q86 2 192 2v-166h-192q2 -82 2 -147q129 2 287 2v-185h-492zM758 92h71q0 47 -34 47q-37 0 -37 -47zM958 0v233h25v-233h-25zM1036 0v156h27 v-156h-27zM1036 188v39h27v-39h-27zM1106 80q0 33 18.5 56.5t51.5 23.5q29 0 45 -17l-13 -18q-14 14 -32 14q-43 0 -43 -59q0 -61 41 -62q18 0 34 17l15 -17q-27 -23 -52 -22q-65 0 -65 84zM1247 80q0 80 66 80q63 0 63 -74l-4 -12h-98q0 -55 41 -56q23 0 41 21l14 -16 q-27 -27 -57 -27q-66 0 -66 84zM1276 92h72q0 47 -35 47q-37 0 -37 -47zM1335 440q0 6 2 207t4 400l2 198h299l89 -268q16 -51 26 -109h4q10 57 27 109l86 268h291l2 -198q0 -199 2 -400t2 -207h-217q0 381 14 580h-4q-18 -80 -51 -184l-80 -246h-168l-82 246 q-35 113 -49 184h-4q16 -268 16 -580h-211zM1415 0v156h23l2 -17q33 20 57 21q35 0 35 -45v-115h-27v115q0 23 -18 22q-16 0 -45 -18v-119h-27zM1571 18v5l12 16q20 -20 45 -21q31 0 31 25q0 16 -33 27q-47 16 -47 45q0 45 53 45q27 0 47 -15v-4l-10 -16q-14 14 -39 14 q-27 0 -26 -20q0 -12 6 -16.5t30 -12.5q43 -16 43 -43q0 -51 -57 -51q-28 -1 -55 22zM1716 80q0 80 66 80q63 0 63 -74l-4 -12h-98q0 -55 41 -56q23 0 41 21l14 -16q-27 -27 -57 -27q-66 0 -66 84zM1745 92h72q0 47 -35 47q-37 0 -37 -47zM1927 133v23h27v53h24v-53h39v-23 h-39v-88q0 -12 2 -16t15 -4h22v-25h-28q-35 0 -35 39v94h-27zM2052 0v236h27l-2 -97q33 20 57 21q35 0 35 -45v-115h-27v115q0 23 -18.5 22.5t-44.5 -18.5v-119h-27zM2210 80q0 80 65 80q63 0 64 -74l-4 -12h-99q0 -55 41 -56q23 0 41 21l15 -16q-27 -27 -58 -27 q-65 0 -65 84zM2238 92h72q0 47 -35 47q-37 0 -37 -47zM2255 856q0 184 89 298t267 114q180 0 269.5 -114t89.5 -298q0 -82 -19.5 -155.5t-59.5 -136t-112 -100.5t-168 -38q-182 0 -269 126t-87 304zM2425 133v23h24v37q0 43 43 43q20 0 35 -9l-8 -18q-8 6 -22 6 q-20 0 -21 -22v-37h41v-23h-41v-133h-27v133h-24zM2478 856q0 -244 133 -244t133 244q0 104 -27.5 162.5t-105.5 58.5q-133 0 -133 -221zM2535 80q0 35 19.5 57.5t50.5 22.5q33 0 52.5 -22.5t19.5 -57.5q0 -31 -18.5 -57.5t-53.5 -26.5t-52.5 26.5t-17.5 57.5zM2564 80 q0 -63 41 -64q45 0 45 64q0 59 -45 59q-41 0 -41 -59zM2716 0v156h22l2 -17q33 20 58 21q35 0 34 -45v-115h-26v115q0 23 -18.5 22.5t-45.5 -18.5v-119h-26zM2865 133v23h27v53h24v-53h39v-23h-39v-88q0 -12 2 -16t15 -4h22v-25h-28q-35 0 -35 39v94h-27z" />
<glyph unicode="&#x2122;" horiz-adv-x="2990" d="M25 440v805h309q29 0 53.5 -2t76.5 -23.5t88 -60.5t64.5 -121t28.5 -194q0 -115 -30.5 -197t-67.5 -121t-91.5 -60.5t-80 -23.5t-53.5 -2h-297zM31 -68h26l-2 86q23 -23 45 -22q57 0 58 88q0 76 -58 76q-25 0 -45 -21l-4 17h-20v-224zM55 41v76q23 23 45 22q31 0 31 -57 q0 -63 -33 -64q-20 0 -43 23zM199 0v236h26v-236h-26zM236 625h40q31 0 49.5 4t45 22.5t40 67.5t13.5 125q0 78 -11.5 126t-36 66.5t-42 22.5t-47.5 4h-51v-438zM266 80q0 80 66 80q63 0 63 -74l-4 -12h-98q0 -55 41 -56q23 0 41 21l14 -16q-27 -27 -57 -27q-66 0 -66 84z M295 92h72q0 47 -35 47q-37 0 -37 -47zM426 43q0 35 22.5 44t71.5 11v15q0 25 -24 24q-16 0 -54 -12l-10 20q37 14 70 15q45 0 45 -47v-113h-21l-4 18h-2q-23 -23 -51 -22q-43 0 -43 47zM453 45q0 -27 18 -27q27 0 49 23v39q-57 -2 -65 -21q-2 -6 -2 -14zM584 18v5l12 16 q20 -20 45 -21q31 0 31 25q0 6 -4 11t-8.5 7t-12.5 4.5t-10 4.5q-45 18 -45 45q0 45 55 45q29 0 45 -15v-4l-10 -16q-14 14 -37 14q-29 0 -29 -20q0 -6 1 -9.5t6.5 -6.5t8.5 -5t10 -4t11 -4q43 -16 43 -43q0 -51 -57 -51q-28 -1 -55 22zM729 80q0 80 66 80q63 0 63 -74 l-4 -12h-98q0 -55 41 -56q23 0 41 21l14 -16q-27 -27 -57 -27q-66 0 -66 84zM735 440v805h479v-182q-145 0 -274 2q0 -63 -2 -131q86 2 192 2v-166h-192q2 -82 2 -147q129 2 287 2v-185h-492zM758 92h71q0 47 -34 47q-37 0 -37 -47zM958 0v233h25v-233h-25zM1036 0v156h27 v-156h-27zM1036 188v39h27v-39h-27zM1106 80q0 33 18.5 56.5t51.5 23.5q29 0 45 -17l-13 -18q-14 14 -32 14q-43 0 -43 -59q0 -61 41 -62q18 0 34 17l15 -17q-27 -23 -52 -22q-65 0 -65 84zM1247 80q0 80 66 80q63 0 63 -74l-4 -12h-98q0 -55 41 -56q23 0 41 21l14 -16 q-27 -27 -57 -27q-66 0 -66 84zM1276 92h72q0 47 -35 47q-37 0 -37 -47zM1335 440q0 6 2 207t4 400l2 198h299l89 -268q16 -51 26 -109h4q10 57 27 109l86 268h291l2 -198q0 -199 2 -400t2 -207h-217q0 381 14 580h-4q-18 -80 -51 -184l-80 -246h-168l-82 246 q-35 113 -49 184h-4q16 -268 16 -580h-211zM1415 0v156h23l2 -17q33 20 57 21q35 0 35 -45v-115h-27v115q0 23 -18 22q-16 0 -45 -18v-119h-27zM1571 18v5l12 16q20 -20 45 -21q31 0 31 25q0 16 -33 27q-47 16 -47 45q0 45 53 45q27 0 47 -15v-4l-10 -16q-14 14 -39 14 q-27 0 -26 -20q0 -12 6 -16.5t30 -12.5q43 -16 43 -43q0 -51 -57 -51q-28 -1 -55 22zM1716 80q0 80 66 80q63 0 63 -74l-4 -12h-98q0 -55 41 -56q23 0 41 21l14 -16q-27 -27 -57 -27q-66 0 -66 84zM1745 92h72q0 47 -35 47q-37 0 -37 -47zM1927 133v23h27v53h24v-53h39v-23 h-39v-88q0 -12 2 -16t15 -4h22v-25h-28q-35 0 -35 39v94h-27zM2052 0v236h27l-2 -97q33 20 57 21q35 0 35 -45v-115h-27v115q0 23 -18.5 22.5t-44.5 -18.5v-119h-27zM2210 80q0 80 65 80q63 0 64 -74l-4 -12h-99q0 -55 41 -56q23 0 41 21l15 -16q-27 -27 -58 -27 q-65 0 -65 84zM2238 92h72q0 47 -35 47q-37 0 -37 -47zM2255 856q0 184 89 298t267 114q180 0 269.5 -114t89.5 -298q0 -82 -19.5 -155.5t-59.5 -136t-112 -100.5t-168 -38q-182 0 -269 126t-87 304zM2425 133v23h24v37q0 43 43 43q20 0 35 -9l-8 -18q-8 6 -22 6 q-20 0 -21 -22v-37h41v-23h-41v-133h-27v133h-24zM2478 856q0 -244 133 -244t133 244q0 104 -27.5 162.5t-105.5 58.5q-133 0 -133 -221zM2535 80q0 35 19.5 57.5t50.5 22.5q33 0 52.5 -22.5t19.5 -57.5q0 -31 -18.5 -57.5t-53.5 -26.5t-52.5 26.5t-17.5 57.5zM2564 80 q0 -63 41 -64q45 0 45 64q0 59 -45 59q-41 0 -41 -59zM2716 0v156h22l2 -17q33 20 58 21q35 0 34 -45v-115h-26v115q0 23 -18.5 22.5t-45.5 -18.5v-119h-26zM2865 133v23h27v53h24v-53h39v-23h-39v-88q0 -12 2 -16t15 -4h22v-25h-28q-35 0 -35 39v94h-27z" />
<glyph unicode="&#xe000;" horiz-adv-x="975" d="M0 975h975v-975h-975v975z" />
<glyph unicode="&#xfb01;" horiz-adv-x="1218" d="M41 768l2 207q72 0 125 -2q0 4 -2 93t-2 91q0 164 85 241t226 77q125 0 232 -45v-31l-60 -164q-51 29 -102 29q-47 0 -70.5 -30t-23.5 -108v-88l2 -65q61 2 194 2l-2 -207q-133 0 -194 2q4 -193 4 -770h-291q0 193 6 770q-55 -2 -129 -2zM803 975l276 4l21 -21v-958h-291 v739q0 113 -6 236zM809 1135v266l20 20h271v-286h-291z" />
<glyph unicode="&#xfb02;" horiz-adv-x="1204" d="M41 768l2 207q72 0 125 -2q0 4 -2 93t-2 91q0 164 85 241t226 77q125 0 232 -45v-31l-60 -164q-51 29 -102 29q-47 0 -70.5 -30t-23.5 -108v-88l2 -65q61 2 194 2l-2 -207q-133 0 -194 2q4 -193 4 -770h-291q0 193 6 770q-55 -2 -129 -2zM786 1440l277 8l20 -21v-1191 q0 -154 9 -236h-291q-8 82 -8 236v968q-1 175 -7 236z" />
<glyph unicode="&#xfb03;" horiz-adv-x="1902" d="M1487 975l276 4l21 -21v-958h-291v739q0 113 -6 236zM1493 1135v266l20 20h271v-286h-291zM725 768l2 207q72 0 125 -2q0 4 -2 93t-2 91q0 164 85 241t226 77q125 0 232 -45v-31l-60 -164q-51 29 -102 29q-47 0 -70.5 -30t-23.5 -108v-88l2 -65q61 2 194 2l-2 -207 q-133 0 -194 2q4 -193 4 -770h-291q0 193 6 770q-55 -2 -129 -2zM41 768l2 207q72 0 125 -2q0 4 -2 93t-2 91q0 164 85 241t226 77q125 0 232 -45v-31l-60 -164q-51 29 -102 29q-47 0 -70.5 -30t-23.5 -108v-88l2 -65q61 2 194 2l-2 -207q-133 0 -194 2q4 -193 4 -770h-291 q0 193 6 770q-55 -2 -129 -2z" />
<glyph unicode="&#xfb04;" horiz-adv-x="1888" d="M1470 1440l277 8l20 -21v-1191q0 -154 9 -236h-291q-8 82 -8 236v968q-1 175 -7 236zM725 768l2 207q72 0 125 -2q0 4 -2 93t-2 91q0 164 85 241t226 77q125 0 232 -45v-31l-60 -164q-51 29 -102 29q-47 0 -70.5 -30t-23.5 -108v-88l2 -65q61 2 194 2l-2 -207 q-133 0 -194 2q4 -193 4 -770h-291q0 193 6 770q-55 -2 -129 -2zM41 768l2 207q72 0 125 -2q0 4 -2 93t-2 91q0 164 85 241t226 77q125 0 232 -45v-31l-60 -164q-51 29 -102 29q-47 0 -70.5 -30t-23.5 -108v-88l2 -65q61 2 194 2l-2 -207q-133 0 -194 2q4 -193 4 -770h-291 q0 193 6 770q-55 -2 -129 -2z" />
</font>
</defs>
</svg>
