<?xml version="1.0" standalone="no"?>
<!DOCTYPE svg PUBLIC "-//W3C//DTD SVG 1.1//EN" "http://www.w3.org/Graphics/SVG/1.1/DTD/svg11.dtd" >
<svg xmlns="http://www.w3.org/2000/svg">
<metadata>
This is a custom SVG webfont generated by Font Squirrel.
Copyright   : Copyright  2009 2010 Andreas Seidel All Rights Reserved  DEMO VERSION  This font is for testing purpose only No commercial usage
Designer    : Andreas Seidel
Foundry     : Andreas Seidel  astype
Foundry URL : httpwwwastypede
</metadata>
<defs>
<font id="SeccaStdDemoRegular" horiz-adv-x="1167" >
<font-face units-per-em="2048" ascent="1454" descent="-594" />
<missing-glyph horiz-adv-x="471" />
<glyph unicode=" "  horiz-adv-x="471" />
<glyph unicode="&#x09;" horiz-adv-x="471" />
<glyph unicode="&#xa0;" horiz-adv-x="471" />
<glyph unicode="!" horiz-adv-x="534" d="M184 98q0 51 35 88t86 37t87 -36.5t36 -88.5q0 -49 -36 -86t-87 -37t-86 37t-35 86zM215 1393h180q0 -172 -4 -497t-4 -495h-162q0 170 -5 495t-5 497z" />
<glyph unicode="&#x22;" horiz-adv-x="815" d="M137 1409l168 6l21 -20l-37 -426h-117zM489 1409l168 6l21 -20l-37 -426h-117z" />
<glyph unicode="#" d="M139 317v134h172l51 362h-165v133h184l27 203h145l-29 -203h224l26 203h146l-29 -203h137v-133h-156l-49 -362h148v-134h-166l-27 -202h-145l31 202h-226l-26 -202h-146l29 202h-156zM457 451h221l49 364h-219z" />
<glyph unicode="$" d="M143 141l90 129q156 -139 351 -139q92 0 162.5 63.5t70.5 163.5q0 80 -65.5 138.5t-157.5 99.5t-185.5 89t-159 135t-65.5 210q0 133 92.5 222t233.5 108l-4 242h156l-5 -242q176 -18 289 -92l-82 -135q-135 88 -278 88q-102 0 -166 -49.5t-64 -143.5q0 -59 35 -107.5 t91.5 -81t125 -63.5t137 -65.5t125 -77.5t91 -108.5t34.5 -149.5q0 -160 -94 -258.5t-244 -122.5l5 -244h-156l4 240q-213 16 -367 151z" />
<glyph unicode="%" horiz-adv-x="1597" d="M82 995v113q0 154 60.5 233.5t216 79.5t216 -79.5t60.5 -233.5v-113q0 -160 -57.5 -243.5t-219.5 -83.5q-160 0 -218 84.5t-58 242.5zM225 -35l985 1477h162l-985 -1477h-162zM229 995q0 -66 6.5 -104.5t36 -71.5t86.5 -33q45 0 72 15.5t39 49.5t15 64.5t3 79.5v113 q0 98 -23.5 145t-105.5 47t-105.5 -47t-23.5 -145v-113zM963 313v113q0 154 60 233.5t216 79.5t216.5 -79.5t60.5 -233.5v-113q0 -160 -57.5 -243.5t-219.5 -83.5q-160 0 -218 84.5t-58 242.5zM1110 313q0 -66 6 -104.5t36 -71.5t87 -33q45 0 71.5 15.5t39 49.5t15.5 64.5 t3 79.5v113q0 98 -23.5 145t-105.5 47t-105.5 -47t-23.5 -145v-113z" />
<glyph unicode="&#x26;" horiz-adv-x="1198" d="M100 350q0 215 281 379q-106 190 -107 346q0 127 74 209t225 82q137 0 219 -67.5t82 -196.5v-47l-20 -21h-149q2 20 2 39q0 154 -138 154q-125 0 -125 -148q0 -201 203 -462t502 -488v-29l-100 -108q-109 84 -201 172q-143 -188 -363 -189q-160 0 -272.5 104.5 t-112.5 270.5zM270 369q0 -106 69 -186.5t175 -80.5q135 0 246 146q-195 195 -314 377q-176 -98 -176 -256z" />
<glyph unicode="'" horiz-adv-x="462" d="M137 1409l168 6l21 -20l-37 -426h-117z" />
<glyph unicode="(" horiz-adv-x="659" d="M162 696q0 541 309 940l125 -82q-262 -354 -262 -858q0 -502 262 -856l-125 -82q-309 399 -309 938z" />
<glyph unicode=")" horiz-adv-x="659" d="M63 -160q262 354 263 858q0 502 -263 856l125 82q309 -399 310 -938q0 -541 -310 -940z" />
<glyph unicode="*" horiz-adv-x="1026" d="M55 739l119 70q35 20 116 51t140 45v4q-59 14 -140 45t-116 52l-119 69l84 146l119 -70q129 -80 211 -174l4 2q-43 158 -43 270v178h166v-178q0 -113 -43 -270l4 -2q86 100 213 174l119 70l82 -146l-119 -69q-104 -59 -254 -97v-4q162 -43 254 -96l119 -70l-82 -145 l-119 70q-115 63 -213 172l-4 -2q43 -158 43 -269v-180h-166v180q0 111 43 269l-4 2q-94 -104 -211 -172l-119 -70z" />
<glyph unicode="+" d="M164 596v154h340v364h160v-364h340v-154h-340v-363h-160v363h-340z" />
<glyph unicode="," horiz-adv-x="462" d="M106 -307l46 483l174 6l20 -20l-115 -469h-125z" />
<glyph unicode="-" horiz-adv-x="686" d="M80 451v149h526v-149h-526z" />
<glyph unicode="." horiz-adv-x="462" d="M117 100q0 53 36.5 90t88 37t87.5 -36.5t36 -90.5q0 -51 -36 -88t-87 -37q-53 0 -89 37t-36 88z" />
<glyph unicode="/" horiz-adv-x="741" d="M59 -324l463 1833h160l-463 -1833h-160z" />
<glyph unicode="0" d="M109 573v209q0 281 102 428.5t373 147.5q268 0 371.5 -147.5t103.5 -428.5v-209q0 -139 -18.5 -238t-67.5 -185.5t-146.5 -130.5t-242.5 -44q-119 0 -205 31t-137.5 81t-82 130t-40.5 162.5t-10 193.5zM285 573q0 -84 3 -136t19.5 -118.5t47 -104.5t89 -65.5t140.5 -27.5 t140 27.5t89 65.5t47.5 104.5t19.5 118.5t3 136v209q0 82 -4.5 135.5t-21.5 114t-48 95t-87 58t-138 23.5t-138.5 -23.5t-87 -58t-48 -95t-21.5 -114t-4 -135.5v-209z" />
<glyph unicode="1" horiz-adv-x="882" d="M63 1083v29l410 221h135v-1333h-172v1057l6 78h-2l-315 -166z" />
<glyph unicode="2" horiz-adv-x="1064" d="M113 0v137q299 309 485 529q145 170 145 325q0 109 -59 162t-154 53q-160 0 -301 -121l-88 103v29q197 141 391 141q166 0 279 -94.5t113 -264.5q0 -197 -199 -428q-115 -137 -389 -415l2 -4q231 10 606 10v-162h-831z" />
<glyph unicode="3" horiz-adv-x="1064" d="M104 49v29l39 127q143 -76 316 -76q295 0 295 262q0 236 -351 236h-71l-17 18l17 129h43q53 0 102 9.5t103.5 33t87 75.5t32.5 128q0 90 -60 139t-157 49q-137 0 -268 -86l-80 103v28q176 104 373 105q174 0 271.5 -95.5t97.5 -215.5q0 -217 -215 -326v-10 q139 -29 205.5 -119t66.5 -221q0 -201 -134 -298.5t-341 -97.5q-187 0 -355 74z" />
<glyph unicode="4" d="M102 279v147l385 907h183l-396 -897l2 -6q289 4 412 4v344h170v-344q131 2 191 2v-157q-59 0 -191 2v-281h-170v281q-267 -2 -586 -2z" />
<glyph unicode="5" horiz-adv-x="1064" d="M106 39v29l39 127q147 -66 277 -66q143 0 238.5 70.5t95.5 218.5q0 262 -412 262q-70 0 -147 -6l-19 18l37 641h680v-155q-4 0 -99.5 1t-223.5 2t-214 1l-26 -351q182 -2 309 -41.5t187.5 -108.5t84 -135.5t23.5 -144.5q0 -211 -146.5 -318.5t-363.5 -107.5 q-175 1 -320 64z" />
<glyph unicode="6" d="M150 543q0 90 3 159.5t14 158.5t30.5 154.5t56.5 133.5t87 111t126 70.5t170 27.5q203 0 330 -105v-28l-82 -105q-104 86 -244 86q-63 0 -112.5 -17.5t-82 -53t-54 -72.5t-35 -97.5t-20.5 -103.5t-13 -110l6 -7q102 109 319 109q182 0 285.5 -126t103.5 -314 q0 -184 -105.5 -311.5t-338.5 -127.5q-242 0 -343 149t-101 419zM322 432q0 -35 8 -77t32.5 -101t84 -97t147.5 -38q270 0 270 293q0 33 -3 61.5t-16.5 75.5t-39 80t-75.5 57.5t-118 24.5q-82 0 -140 -22.5t-86 -50.5t-44 -73t-18 -70.5t-2 -62.5z" />
<glyph unicode="7" horiz-adv-x="964" d="M31 1178v155h848v-143q-190 -582 -385 -1190h-199q385 1100 412 1180l-2 4q-307 -6 -674 -6z" />
<glyph unicode="8" d="M139 354q0 123 62.5 203t212.5 148v4q-205 78 -205 323q0 166 112.5 247t262.5 81q94 0 175 -31t140 -107.5t59 -189.5q0 -215 -204 -311v-4q127 -51 200.5 -135t73.5 -228q0 -150 -105.5 -264.5t-339 -114.5t-339 114.5t-105.5 264.5zM309 356q0 -109 74 -173t201 -64 t200.5 64.5t73.5 172.5q0 106 -81 174t-206 99q-262 -97 -262 -273zM373 1028q0 -102 49 -155.5t174 -90.5q113 45 156 102.5t43 143.5q0 188 -211 189q-111 0 -161 -53.5t-50 -135.5z" />
<glyph unicode="9" d="M129 918q0 86 22.5 160.5t71.5 139t139.5 102.5t210.5 38q233 0 339 -143.5t106 -423.5q0 -100 -3 -173t-14.5 -163t-31 -154.5t-55 -129.5t-86 -104.5t-126 -65.5t-170.5 -26q-201 0 -331 105v29l82 104q113 -94 243 -94q76 0 130.5 24.5t87 60.5t53 101.5t30 123.5 t17.5 149l-6 4q-104 -106 -318 -107q-182 0 -286.5 126.5t-104.5 316.5zM303 915q0 -41 6 -78.5t27.5 -93t78 -89t140.5 -33.5q291 0 291 292q0 37 -8.5 76t-32 94.5t-83.5 91t-149 35.5q-270 0 -270 -295z" />
<glyph unicode=":" horiz-adv-x="462" d="M109 100q0 53 36.5 90t88 37t87 -36.5t35.5 -90.5q0 -51 -35.5 -88t-87.5 -37q-53 0 -88.5 37t-35.5 88zM109 858q0 53 36.5 90t88 37t87 -37t35.5 -90q0 -51 -35.5 -88t-87.5 -37q-53 0 -88.5 37t-35.5 88z" />
<glyph unicode=";" horiz-adv-x="462" d="M102 -307l45 483l175 6l20 -20l-115 -469h-125zM117 858q0 53 36.5 90t88 37t87.5 -37t36 -90q0 -51 -36 -88t-87 -37q-53 0 -89 37t-36 88z" />
<glyph unicode="&#x3c;" d="M164 602v141l774 392l66 -140l-633 -321l633 -324l-66 -139z" />
<glyph unicode="=" d="M164 391v156h840v-156h-840zM164 801v153h840v-153h-840z" />
<glyph unicode="&#x3e;" d="M164 350l633 324l-633 321l65 140l775 -392v-141l-775 -391z" />
<glyph unicode="?" horiz-adv-x="743" d="M35 1305v24q178 92 348 92q156 0 258 -90t102 -246q0 -84 -30.5 -155.5t-67.5 -110.5t-93 -94t-83 -90q-51 -66 -51 -148v-86h-162v91q0 82 24.5 133t79.5 116q16 20 65.5 71.5t72 79.5t45 79t22.5 102q0 90 -54 142.5t-159 52.5q-117 0 -248 -80zM217 98q0 51 35 88 t86 37t87 -36.5t36 -88.5q0 -49 -36 -86t-87 -37t-86 37t-35 86z" />
<glyph unicode="@" horiz-adv-x="1671" d="M160 412q0 348 186 548.5t514 200.5q303 0 477 -149.5t174 -433.5q0 -205 -91 -330t-249 -125q-127 0 -225 110h-6q-104 -88 -217 -88q-78 0 -129 48.5t-53 119.5q0 10 4 35l43 246q35 203 256 203q133 0 299 -107q-51 -248 -74 -385q10 -25 43 -40t66 -15q90 0 136 86 t46 242q0 221 -133 333.5t-375 112.5q-256 0 -397.5 -164t-141.5 -448q0 -240 138.5 -367t394.5 -127q109 0 194.5 18.5t202.5 77.5l27 -14l24 -115q-209 -100 -450 -100q-322 0 -503 159t-181 468zM688 326q0 -47 55 -47q49 0 104.5 19t84.5 48l51 275q-70 45 -145 45 q-90 0 -105 -82l-43 -228q-2 -10 -2 -30z" />
<glyph unicode="A" horiz-adv-x="1280" d="M55 0q315 893 496 1395h192q205 -590 478 -1395h-189l-141 414h-510l-145 -414h-181zM426 557q68 2 213 2q150 0 213 -2l-111 340q-27 82 -58.5 185.5t-37.5 123.5h-4q-47 -158 -98 -309z" />
<glyph unicode="B" horiz-adv-x="1261" d="M190 0v1393h435q39 0 68.5 -2t92 -11.5t109.5 -34t96 -63.5t76 -107.5t27 -158.5q0 -188 -152 -287l-8 -2l8 -2q211 -98 211 -340q0 -80 -21.5 -142.5t-53 -102.5t-81 -68.5t-88.5 -42t-91 -20.5t-75.5 -8t-56.5 -1h-496zM360 639q2 -164 2 -492q106 2 295 3q45 0 74 2 t81 14t84 35.5t57.5 72t25.5 118t-25.5 119.5t-57.5 73.5t-84 36t-81 14.5t-74 2q-191 0 -297 2zM360 778q86 2 236 2q37 0 60.5 1t68.5 7.5t73.5 21.5t60.5 38.5t48.5 66.5t16.5 99q0 66 -27 111.5t-58.5 68.5t-85 35t-83 13t-74.5 1q-147 0 -234 2q0 -309 -2 -467z" />
<glyph unicode="C" horiz-adv-x="1196" d="M109 719q0 186 56 342t186 261t315 105q227 0 409 -114l-88 -135q-133 96 -311 96q-137 0 -228.5 -91t-125 -210t-33.5 -254q0 -100 19.5 -196.5t61.5 -188.5t122.5 -149.5t189.5 -57.5q182 0 338 145l94 -116q-195 -180 -450 -181q-145 0 -256 64.5t-174.5 173.5 t-94 237t-30.5 269z" />
<glyph unicode="D" horiz-adv-x="1290" d="M190 0v1393h406q35 0 62.5 -2t92 -15.5t116 -37t112.5 -76t103 -123t71 -185t29 -258t-29 -258t-71 -185.5t-103 -123t-112.5 -75.5t-116 -37t-92 -15.5t-62.5 -2h-406zM362 150h162q55 0 88 2t89.5 12t92 29.5t78.5 59.5t69 97.5t43 145.5t17 200.5t-17 199.5t-43 144.5 t-69 97.5t-78.5 60.5t-92 30.5t-90 12t-87.5 2h-162v-1093z" />
<glyph unicode="E" horiz-adv-x="1134" d="M190 0v1393h814v-158q-426 0 -642 2q0 -336 -2 -438q197 2 570 2v-150q-373 0 -570 2q2 -219 2 -497q223 2 662 2v-158h-834z" />
<glyph unicode="F" horiz-adv-x="1064" d="M190 0v1393h814v-158q-426 0 -642 2q0 -340 -2 -440q197 4 551 4v-150q-354 0 -551 2q2 -223 2 -653h-172z" />
<glyph unicode="G" horiz-adv-x="1325" d="M109 717q0 315 159.5 512.5t464.5 197.5q207 0 385 -92l-71 -141q-137 80 -334 80q-219 0 -321.5 -154.5t-102.5 -402.5q0 -270 126 -429t388 -159q117 0 176 29q0 219 4 495q-168 -4 -231 -4v152h399v-760q-139 -57 -358 -57q-330 0 -507 198.5t-177 534.5z" />
<glyph unicode="H" horiz-adv-x="1380" d="M190 0v1393h172q0 -274 -4 -578h664q-4 303 -4 578h172v-1393h-172q0 393 4 666h-664q4 -545 4 -666h-172z" />
<glyph unicode="I" horiz-adv-x="552" d="M188 0v1393h174v-1393h-174z" />
<glyph unicode="J" horiz-adv-x="669" d="M72 -106l75 38q96 49 128 94.5t34 168.5q0 18 -2 230t-2 234v734h174v-1196q0 -178 -54 -257t-220 -153l-66 -29z" />
<glyph unicode="K" horiz-adv-x="1257" d="M190 0v1393h172q0 -438 -2 -666h5q45 68 98 121l514 545h225l-573 -590q328 -457 573 -803h-213q-8 12 -111.5 160.5t-215 308.5t-148.5 217l-154 -147q2 -182 2 -539h-172z" />
<glyph unicode="L" horiz-adv-x="1003" d="M190 0v1393h172q0 -842 -4 -1239q223 4 586 4v-158h-754z" />
<glyph unicode="M" horiz-adv-x="1675" d="M186 0q0 8 1 356.5t1 692.5l2 344h265l333 -797q39 -94 54 -154h4q10 51 51 154l324 797h264l2 -344q0 -344 1 -692.5t1 -356.5h-172v94q0 90 -1 228.5t-1 293.5v318v270h-6q-125 -328 -152 -387l-239 -557h-164l-244 557q-104 242 -145 387h-7v-278q0 -164 -1 -317.5 t-1 -291.5v-225v-92h-170z" />
<glyph unicode="N" horiz-adv-x="1380" d="M190 0v1393h199l494 -844q84 -139 137 -277h6q-6 236 -6 422v699h170v-1393h-193l-493 842q-51 88 -146 288h-6q6 -154 6 -421l2 -709h-170z" />
<glyph unicode="O" horiz-adv-x="1363" d="M109 717q0 188 58 345t191.5 261t321.5 104t322.5 -104t193.5 -261t59 -345q0 -111 -19 -215.5t-63.5 -200.5t-109 -168t-163.5 -115t-220 -43q-150 0 -263.5 64.5t-179 173.5t-97 236t-31.5 268zM289 716.5q0 -98.5 19.5 -195.5t61.5 -190t122.5 -151.5t187.5 -58.5 q109 0 189.5 58.5t122.5 152.5t61.5 190t19.5 194.5t-20.5 193t-63.5 179.5t-123 137t-186 52q-104 0 -183 -52t-123 -137t-64.5 -179.5t-20.5 -193z" />
<glyph unicode="P" horiz-adv-x="1191" d="M190 0v1393h455q33 0 56.5 -1t76.5 -9.5t92 -22.5t88.5 -46t81 -75t54 -113.5t22.5 -156.5q0 -106 -37 -187.5t-89 -125.5t-118.5 -71.5t-115.5 -35.5t-90 -8q-205 0 -306 2q2 -182 2 -543h-172zM360 684q100 2 254 2q35 0 57.5 2t66.5 8t75 24.5t63.5 47.5t49 80 t16.5 117q0 80 -26.5 136t-58.5 82.5t-85 41t-83 16.5t-75 2q-162 0 -252 2q0 -348 -2 -561z" />
<glyph unicode="Q" horiz-adv-x="1363" d="M109 717q0 188 58 345t191.5 261t321.5 104t322.5 -104t193.5 -261t59 -345q0 -207 -69.5 -385t-210.5 -273q74 -63 340 -139l-62 -162q-334 96 -460 230q-51 -12 -113 -13q-150 0 -263.5 64.5t-179 173.5t-97 236t-31.5 268zM289 716.5q0 -98.5 19.5 -195.5t61.5 -190 t122.5 -151.5t187.5 -58.5q109 0 189.5 58.5t122.5 152.5t61.5 190t19.5 194.5t-20.5 193t-63.5 179.5t-123 137t-186 52q-104 0 -183 -52t-123 -137t-64.5 -179.5t-20.5 -193z" />
<glyph unicode="R" horiz-adv-x="1253" d="M190 0v1393h445q33 0 56.5 -1t75.5 -8.5t91 -21.5t88 -44t81 -71t53.5 -106.5t21.5 -147.5q0 -272 -268 -366v-4q109 -43 170 -209l153 -414h-190l-144 399q-39 109 -95 149t-146 40q-119 0 -222 2q2 -186 2 -590h-172zM360 733q102 2 244 2q45 0 75 2t83 15.5t85 38 t58.5 76t26.5 124.5q0 72 -26.5 123t-58.5 74.5t-85 37t-83 15.5t-75 2q-156 0 -242 2q0 -342 -2 -512z" />
<glyph unicode="S" horiz-adv-x="1159" d="M86 143l84 138q188 -154 418 -154q111 0 192.5 65.5t81.5 176.5q0 68 -39 118t-100 82.5t-135 62.5t-148.5 64.5t-136 80.5t-100.5 122t-39 174q0 160 133 257t313 97q209 0 363 -92l-70 -141q-154 84 -305 84q-106 0 -185 -52t-79 -153q0 -55 30.5 -100t81 -75 t114 -60.5t130 -56t130 -62.5t113.5 -80t80.5 -108.5t30.5 -145.5q0 -195 -134 -302.5t-335 -107.5q-284 0 -489 168z" />
<glyph unicode="T" horiz-adv-x="1161" d="M53 1237v156h1051v-156q-227 0 -438 4v-1241h-172v1241q-210 -4 -441 -4z" />
<glyph unicode="U" horiz-adv-x="1345" d="M176 473v920h172v-926q0 -113 27.5 -186.5t82 -106.5t104.5 -43t122 -10q164 0 238.5 77.5t74.5 196.5v998h172v-983q0 -199 -136 -317t-355 -118q-109 0 -188.5 18.5t-155.5 68t-117 152.5t-41 259z" />
<glyph unicode="V" horiz-adv-x="1245" d="M59 1393h189l291 -887q63 -203 86 -293h8q41 156 86 293l291 887h180l-477 -1393h-178z" />
<glyph unicode="W" horiz-adv-x="1806" d="M66 1393h182l209 -877q39 -170 67 -334h8q27 168 66 328l207 883h203l209 -883q43 -186 65 -328h8q33 188 68 334l209 877h174l-355 -1393h-217l-194 788q-51 203 -70 369h-6q-23 -180 -70 -369l-198 -788h-217z" />
<glyph unicode="X" horiz-adv-x="1218" d="M51 0l447 748l-387 645h198l168 -283q119 -205 133 -227h8q47 86 134 227l168 283h188l-391 -643l450 -750h-198l-242 403q-96 164 -121 209h-8q-39 -70 -121 -209l-237 -403h-189z" />
<glyph unicode="Y" horiz-adv-x="1110" d="M12 1393h203l221 -426q92 -172 121 -262h4q35 98 121 262l221 426h195l-457 -838v-555h-172v551z" />
<glyph unicode="Z" horiz-adv-x="1101" d="M84 0v137l565 883q66 104 146 219q-231 -2 -686 -2v156h899v-138l-574 -890q-45 -70 -139 -209q236 2 709 2v-158h-920z" />
<glyph unicode="[" horiz-adv-x="659" d="M182 -223v1839h398v-135h-236v-1567h236v-137h-398z" />
<glyph unicode="\" horiz-adv-x="741" d="M59 1509h160l463 -1833h-160z" />
<glyph unicode="]" horiz-adv-x="659" d="M80 -88h235v1567h-235v137h397v-1839h-397v135z" />
<glyph unicode="^" d="M115 776l403 733h131l404 -733l-131 -71l-334 604h-8l-334 -604z" />
<glyph unicode="_" horiz-adv-x="1003" d="M0 -154h1004v-102h-1004v102z" />
<glyph unicode="`" horiz-adv-x="1046" d="M213 1386l10 29h209l242 -299h-156z" />
<glyph unicode="a" horiz-adv-x="993" d="M98 268q0 63 16.5 112.5t43 83.5t72.5 58.5t89 38.5t110 23.5t119 12.5t130 7v82q0 150 -141 150q-135 0 -336 -78l-47 106v25q229 86 417 86q279 0 279 -289v-450q0 -113 6 -236h-121l-20 20l-27 91l-8 2q-137 -137 -309 -138q-82 0 -139.5 30t-84 78t-38 93t-11.5 92z M272 274q0 -172 136 -172q131 0 270 154q0 10 2 110.5t2 110.5l-2 2q-68 -2 -94.5 -3t-78.5 -5t-72.5 -9t-55.5 -15.5t-48.5 -24.5t-30.5 -34.5t-22.5 -48.5t-5.5 -65z" />
<glyph unicode="b" horiz-adv-x="1038" d="M137 0q6 123 6 236v956q0 174 -6 235l158 7l20 -21q0 -401 -4 -545l4 -2q143 109 271 109q186 0 270 -128t84 -333q0 -82 -9 -155.5t-35 -145.5t-64.5 -123t-102 -83t-145.5 -32q-141 0 -275 129l-8 -2l-22 -82l-21 -20h-121zM311 709q0 -25 2 -231t2 -214 q59 -70 129 -116t125 -46q66 0 109 38t59.5 107.5t21.5 121t5 125.5q0 55 -3 97t-14.5 91t-32 81t-56 53.5t-85.5 21.5q-63 0 -138 -35t-124 -94z" />
<glyph unicode="c" horiz-adv-x="876" d="M94 483q0 205 111.5 348.5t322.5 143.5q78 0 153 -25.5t118 -60.5v-25l-64 -100q-88 74 -203 74q-133 0 -196.5 -106.5t-63.5 -248.5q0 -68 10.5 -128t35 -120.5t74.5 -96.5t120 -36q123 0 219 115l80 -84v-24q-133 -133 -313 -134q-111 0 -192 43t-126 118t-65.5 161 t-20.5 186z" />
<glyph unicode="d" horiz-adv-x="1044" d="M98 483q0 203 93.5 347.5t267.5 144.5q143 0 270 -109l4 2q-4 152 -4 324q0 174 -6 235l158 7l20 -21v-1177q0 -113 6 -236h-121l-20 20l-27 91l-8 2q-154 -137 -285 -138q-98 0 -168.5 44t-108.5 120t-54.5 160t-16.5 184zM274 483q0 -381 193 -381q61 0 134 46.5 t128 113.5q0 10 2 222t2 225q-113 129 -248 129q-115 0 -163 -106t-48 -249z" />
<glyph unicode="e" horiz-adv-x="974" d="M92 481q0 221 104.5 357.5t307.5 136.5q182 0 282.5 -116t100.5 -333q0 -55 -13 -96q-63 0 -210.5 1t-270.5 2t-127 1q0 -57 13.5 -110.5t40 -105.5t76.5 -84t118 -32q131 0 246 125l84 -77v-25q-150 -150 -336 -150q-205 0 -310.5 141.5t-105.5 364.5zM268 555 q10 0 223.5 1t223.5 1q0 283 -213.5 283t-233.5 -285z" />
<glyph unicode="f" horiz-adv-x="657" d="M59 811v137q94 0 156 -2q0 6 -2 114.5t-2 113.5q0 145 74.5 211.5t193.5 66.5q94 0 199 -45v-29l-41 -96q-63 29 -133 29q-57 0 -90 -30t-33 -110v-225q72 2 246 2v-137q-176 0 -248 2q4 -193 4 -813h-172q0 428 4 813q-62 -2 -156 -2z" />
<glyph unicode="g" horiz-adv-x="1052" d="M98 483q0 203 93.5 347.5t267.5 144.5q143 0 272 -111l6 4l21 72l22 21l127 -7q-6 -61 -6 -186v-809q0 -190 -116.5 -289.5t-290.5 -99.5q-182 0 -338 96l53 119h24q127 -84 261 -84q104 0 169.5 58.5t65.5 179.5q0 78 10 170l-8 4q-154 -137 -285 -138q-98 0 -168.5 44 t-108.5 120t-54.5 160t-16.5 184zM274 483q0 -381 193 -381q61 0 134 46.5t128 113.5q0 10 2 222t2 225q-113 129 -248 129q-115 0 -163 -106t-48 -249z" />
<glyph unicode="h" horiz-adv-x="1030" d="M137 1427l158 7l20 -21v-221q0 -10 -2 -166t-2 -166q197 115 340 115q102 0 164 -64.5t62 -205.5q0 -10 -3.5 -352.5t-3.5 -352.5h-172q0 10 3.5 346t3.5 346q0 82 -31 112t-90 30q-115 0 -269 -113v-721h-172v1192q0 174 -6 235z" />
<glyph unicode="i" horiz-adv-x="501" d="M162 954l157 7l21 -21v-940h-172v719q0 112 -6 235zM168 1155v219l20 21h152v-240h-172z" />
<glyph unicode="j" horiz-adv-x="501" d="M0 -309q104 74 136 127t32 172v729q0 113 -6 235l157 7l21 -21v-948q0 -170 -53.5 -254t-210.5 -174l-76 98v29zM168 1155v219l20 21h152v-240h-172z" />
<glyph unicode="k" horiz-adv-x="987" d="M137 1427l158 7l20 -21q0 -702 -2 -858l4 -4q88 98 166 172l238 231l174 7l14 -27l-358 -346l399 -588h-205q-174 264 -311 485l-119 -108v-377h-172v1192q0 174 -6 235z" />
<glyph unicode="l" horiz-adv-x="477" d="M137 1427l158 7l20 -21v-1177q0 -174 7 -236h-172q-6 61 -7 236v956q0 174 -6 235z" />
<glyph unicode="m" horiz-adv-x="1527" d="M145 954l127 7l23 -21l14 -82l4 -2q158 119 318 119q137 0 188 -121q174 121 336 121q96 0 157.5 -65.5t61.5 -204.5q0 -10 -3 -352.5t-3 -352.5h-172q0 10 3 346t3 346q0 80 -30.5 111t-86.5 31q-119 0 -239 -105q0 -10 -1 -364.5t-1 -364.5h-166q0 10 1 346t1 346 q0 141 -109 142q-57 0 -126.5 -34t-120.5 -79v-721h-172v717q-1 114 -7 237z" />
<glyph unicode="n" horiz-adv-x="1038" d="M145 954l127 7l23 -21l14 -82l4 -2q193 119 346 119q102 0 164 -64.5t62 -205.5q0 -10 -3 -352.5t-3 -352.5h-172q0 10 3 346t3 346q0 82 -31 112t-90 30q-115 0 -268 -113v-721h-172v717q-1 114 -7 237z" />
<glyph unicode="o" horiz-adv-x="1046" d="M88 481q0 217 115.5 355.5t318.5 138.5q201 0 318.5 -139.5t117.5 -354.5q0 -86 -23.5 -170t-72.5 -161.5t-137 -126t-202.5 -48.5t-203 48.5t-136.5 126t-71.5 161.5t-23.5 170zM264 481q0 -160 65.5 -272.5t192.5 -112.5t193.5 114t66.5 271q0 152 -61.5 255.5 t-198.5 103.5q-135 0 -196.5 -103.5t-61.5 -255.5z" />
<glyph unicode="p" horiz-adv-x="1046" d="M145 954l127 7l23 -21l14 -82l6 -2q127 119 279 119q186 0 270 -128t84 -333q0 -82 -9 -155.5t-34.5 -145.5t-64.5 -123t-102.5 -83t-145.5 -32q-141 0 -275 129l-8 -2q14 -162 15 -526h-152l-20 21v1122q-1 112 -7 235zM319 709q0 -25 2.5 -231t2.5 -214 q59 -70 128.5 -116t125.5 -46q66 0 108.5 38t59 107.5t21.5 121t5 125.5q0 55 -3 97t-14.5 91t-32 81t-56 53.5t-84.5 21.5q-63 0 -138.5 -35t-124.5 -94z" />
<glyph unicode="q" horiz-adv-x="1052" d="M98 483q0 203 93.5 347.5t267.5 144.5q143 0 272 -111l6 4l21 72l22 21l127 -7q-6 -61 -6 -186v-1171l-20 -21h-152v350q0 94 10 183l-8 4q-154 -137 -285 -138q-98 0 -168.5 44t-108.5 120t-54.5 160t-16.5 184zM274 483q0 -381 193 -381q61 0 134 46.5t128 113.5 q0 10 2 222t2 225q-113 129 -248 129q-115 0 -163 -106t-48 -249z" />
<glyph unicode="r" horiz-adv-x="684" d="M145 954l131 7l23 -21q14 -170 14 -201l9 -2q53 86 133 146.5t155 77.5l23 -21l24 -129q-238 -80 -333 -256v-555h-172v616q-1 215 -7 338z" />
<glyph unicode="s" horiz-adv-x="872" d="M76 109v24l78 94q127 -127 270 -127q76 0 129 42t53 118q0 23 -5 42.5t-20 34.5l-26 25q-10 10 -35.5 21.5t-36 15.5t-43 15.5t-39.5 13.5q-68 23 -105.5 40t-84.5 48t-69.5 76t-22.5 106q0 133 93 205t249 72q176 0 287 -86v-25l-64 -100q-88 80 -235 80q-76 0 -120 -36 t-44 -95q0 -25 8 -43.5t18.5 -29.5t36 -24.5t42 -19.5t58 -20.5t64.5 -22.5q131 -47 198.5 -104.5t67.5 -167.5q0 -143 -98 -224.5t-262 -81.5q-186 1 -342 134z" />
<glyph unicode="t" horiz-adv-x="677" d="M51 811v137q92 0 156 -2q-4 213 -4 314l20 20h150q0 -178 -4 -334q72 2 237 2v-137q-168 0 -239 2q4 -178 4 -543q0 -82 15 -102.5t87 -20.5h121v-127l-21 -20h-141q-66 0 -112 15.5t-68.5 36t-33.5 58t-13 61.5t-2 67q0 383 4 575q-64 -2 -156 -2z" />
<glyph unicode="u" horiz-adv-x="1048" d="M147 250q0 10 3.5 351t3.5 353h151l21 -20q0 -10 -3.5 -338t-3.5 -346q0 -147 127 -148q68 0 146 47.5t133 118.5v686h152l20 -20v-698q0 -113 6 -236h-121l-20 20l-27 91l-8 2q-143 -137 -340 -138q-240 1 -240 275z" />
<glyph unicode="v" horiz-adv-x="925" d="M10 954h189l192 -528q14 -39 72 -256h8q27 133 72 256l192 528h180l-370 -954h-166z" />
<glyph unicode="w" horiz-adv-x="1417" d="M43 954h184l154 -528q29 -100 53 -256h8q16 119 52 256l131 528h178l131 -528q20 -84 49 -256h8q16 117 56 256l153 528h174l-305 -954h-172l-121 442q-41 158 -65 293h-6q-20 -131 -64 -293l-123 -442h-172z" />
<glyph unicode="x" horiz-adv-x="944" d="M37 0l332 502l-303 452h198l80 -131q127 -209 131 -219h6q55 102 129 219l84 131h185l-316 -456l340 -498h-194l-107 160q-102 154 -139 227h-6q-90 -158 -133 -227l-101 -160h-186z" />
<glyph unicode="y" horiz-adv-x="960" d="M45 954h191l167 -530q37 -119 78 -281h8q45 184 82 281l191 530h180l-424 -1079q-66 -166 -144.5 -227.5t-260.5 -73.5l-33 117l10 26q78 8 125 23.5t81 52.5t50 69t45 105z" />
<glyph unicode="z" horiz-adv-x="858" d="M76 0v139l338 463q100 135 170 213l-2 6q-10 0 -235.5 -3t-235.5 -3v139h649v-143l-334 -459q-82 -113 -166 -207l2 -6q10 0 259 3t259 3v-125l-20 -20h-684z" />
<glyph unicode="{" horiz-adv-x="659" d="M51 616v160h39q82 0 107.5 32t25.5 112v438q0 258 262 258h95v-135h-62q-82 0 -108.5 -30t-26.5 -114v-407q0 -84 -18.5 -138.5t-73.5 -89.5v-12q55 -35 73.5 -89t18.5 -138v-408q0 -84 26.5 -113.5t108.5 -29.5h62v-135h-95q-262 0 -262 258v438q0 80 -25.5 111.5 t-107.5 31.5h-39z" />
<glyph unicode="|" horiz-adv-x="659" d="M250 -614v2457h160v-2457h-160z" />
<glyph unicode="}" horiz-adv-x="659" d="M80 -88h61q82 0 108.5 29.5t26.5 113.5v408q0 84 18.5 138t74.5 89v12q-55 35 -74 89.5t-19 138.5v407q0 84 -26.5 114t-108.5 30h-61v135h94q262 0 262 -258v-438q0 -80 25.5 -112t107.5 -32h39v-160h-39q-82 0 -107.5 -31.5t-25.5 -111.5v-438q0 -258 -262 -258h-94 v135z" />
<glyph unicode="~" horiz-adv-x="1026" d="M59 625q106 184 279 184q80 0 194.5 -59.5t153.5 -59.5q76 0 164 117l119 -82q-109 -184 -281 -184q-80 0 -194.5 59t-153.5 59q-74 0 -164 -116z" />
<glyph unicode="&#xa1;" horiz-adv-x="534" d="M106 862q0 49 36 86t87.5 37t86 -37t34.5 -86q0 -51 -34.5 -88t-86 -37t-87.5 37t-36 88zM139 -432q0 172 4 496.5t4 494.5h162q0 -170 5 -494.5t5 -496.5h-180z" />
<glyph unicode="&#xa2;" d="M197 674q0 186 94 325.5t282 161.5l-4 248h158l-4 -248q137 -14 219 -63v-25l-74 -106q-98 66 -217 65q-145 0 -213.5 -108.5t-68.5 -249.5q0 -68 11 -128.5t40 -122t87 -97t142 -35.5q127 0 217 90l88 -86v-25q-113 -88 -231 -100l4 -246h-158l4 246 q-199 20 -287.5 162.5t-88.5 341.5z" />
<glyph unicode="&#xa3;" d="M86 541v137h176v215q0 61 6 117.5t32 134.5t69 133t123.5 95t189.5 40q197 0 338 -108l-92 -134q-102 92 -236 93q-74 0 -127 -32t-77.5 -70t-38 -96t-15.5 -86t-2 -62v-240h461v-137h-461q0 -238 -72 -383l2 -4q201 4 656 4v-158h-828v145q72 119 72 396h-176z" />
<glyph unicode="&#xa4;" d="M121 289l168 153q-35 80 -35 220q0 119 33 198l-166 154l108 112l160 -151q68 41 195 41q125 0 194 -41l160 151l109 -112l-168 -154q35 -78 34 -198q0 -133 -34 -220l168 -153l-109 -111l-162 152q-72 -43 -192 -43q-125 0 -195 43l-160 -152zM408 659 q0 -125 33.5 -190.5t142 -65.5t142.5 66t34 190q0 123 -34 182.5t-142.5 59.5t-142 -59.5t-33.5 -182.5z" />
<glyph unicode="&#xa5;" d="M51 1380h201l215 -428q78 -158 119 -264h4q53 129 119 264l215 428h192l-295 -551h244v-135h-317l-78 -151v-64h385v-135h-385v-344h-172v344h-385v135h385v60l-80 155h-316v135h242z" />
<glyph unicode="&#xa6;" horiz-adv-x="659" d="M250 383h160v-997h-160v997zM250 846v997h160v-997h-160z" />
<glyph unicode="&#xa7;" d="M127 725q0 223 201 344q-43 82 -43 174q0 152 93 241t259 89q172 0 297 -90l-86 -133q-102 74 -223 73q-74 -2 -121 -46t-47 -128q0 -74 60.5 -143.5t146.5 -128.5t171 -124t145 -154t60 -191q0 -219 -204 -350q43 -82 43 -176q0 -143 -97.5 -234.5t-249.5 -91.5 q-164 0 -288 92l67 137q113 -80 228 -80q70 0 119 45.5t49 120.5q0 80 -59.5 153t-144.5 133t-171 123.5t-145.5 153t-59.5 191.5zM307 750q0 -90 65.5 -164t192.5 -163t178 -138q117 68 117 200q0 92 -67.5 166t-194.5 160t-178 135q-113 -67 -113 -196z" />
<glyph unicode="&#xa8;" horiz-adv-x="1046" d="M231 1157v215l21 21h143v-236h-164zM649 1157v215l21 21h143v-236h-164z" />
<glyph unicode="&#xa9;" horiz-adv-x="1474" d="M0 700q0 348 195.5 553t541.5 205t542 -204.5t196 -553.5q0 -342 -202 -548.5t-536 -206.5t-535.5 206.5t-201.5 548.5zM127 700q0 -297 166 -470t444.5 -173t445.5 173t167 470q0 303 -161 474.5t-452 171.5t-450.5 -171.5t-159.5 -474.5zM389 709q0 176 90 302t260 126 q139 0 252 -72l-73 -119q-72 53 -168 53q-104 0 -150.5 -86t-46.5 -204q0 -76 15.5 -141.5t62.5 -119t121 -53.5q96 0 184 78l82 -98q-125 -115 -281 -115q-176 0 -262 132.5t-86 316.5z" />
<glyph unicode="&#xaa;" horiz-adv-x="675" d="M100 496v118h555v-118h-555zM115 897q0 53 20.5 91t48 58.5t79.5 33t90 15.5t106 7v45q0 76 -86 76t-195 -41l-37 82v14q137 51 273 51q190 0 190 -178v-274q0 -68 6 -142h-112l-13 13l-16 49l-4 2q-84 -78 -193 -78q-88 0 -122.5 54t-34.5 122zM254 911q0 -92 67.5 -92 t137.5 70q0 6 2 65.5t2 63.5l-4 2q-51 -2 -74 -3t-54.5 -7t-44 -17.5t-22.5 -31t-10 -50.5z" />
<glyph unicode="&#xab;" horiz-adv-x="958" d="M100 471l287 424l109 -68l-222 -356l222 -354l-109 -70zM463 471l285 424l110 -70l-219 -354l219 -354l-110 -68z" />
<glyph unicode="&#xac;" d="M164 625v153h840v-418h-158v265h-682z" />
<glyph unicode="&#xad;" horiz-adv-x="686" d="M80 451v149h526v-149h-526z" />
<glyph unicode="&#xae;" horiz-adv-x="1429" d="M98 1001q0 311 177.5 496.5t488.5 185.5t488.5 -185t177.5 -497q0 -309 -182.5 -496.5t-483.5 -187.5t-483.5 187.5t-182.5 496.5zM217 1001q0 -264 149.5 -421.5t397.5 -157.5q246 0 395.5 157.5t149.5 421.5q0 268 -143.5 423t-401.5 155t-402.5 -155t-144.5 -423z M500 618v773h274q283 0 283 -226q0 -152 -144 -202v-5q68 -18 103 -129l74 -211h-162l-70 207q-16 53 -44 73t-71 20q-47 0 -96 2q2 -121 2 -302h-149zM647 1036q49 2 115 2q150 0 149.5 113t-149.5 113q-72 0 -113 2q0 -142 -2 -230z" />
<glyph unicode="&#xaf;" horiz-adv-x="1046" d="M231 1206v123l35 21h547v-123l-20 -21h-562z" />
<glyph unicode="&#xb0;" horiz-adv-x="675" d="M84 1200q0 129 71.5 209t213.5 80q139 0 212.5 -80t73.5 -209q0 -119 -69.5 -210t-216.5 -91q-150 0 -217.5 91t-67.5 210zM231 1198q0 -94 35 -149.5t102.5 -55.5t102.5 55.5t35 149.5q0 186 -137.5 186t-137.5 -186z" />
<glyph unicode="&#xb1;" d="M164 78v153h840v-153h-840zM205 664v153h299v303h160v-303h299v-153h-299v-302h-160v302h-299z" />
<glyph unicode="&#xb2;" horiz-adv-x="716" d="M96 903v109l116 115q95 95 144 149q72 80 72 147q0 45 -28.5 71t-73.5 26q-84 0 -152 -62l-70 88v15q106 82 238 81q98 0 165.5 -53t67.5 -151q0 -104 -88 -211q-74 -86 -208 -201l2 -6q90 8 305 8v-125h-490z" />
<glyph unicode="&#xb3;" horiz-adv-x="716" d="M100 934v14l35 109q86 -43 170 -43q141 0 141 108q0 98 -161 99h-45l-11 10l7 108h34q152 0 152 97q0 86 -107 86q-70 0 -137 -43l-61 92v14q100 57 227 57q102 0 160.5 -52t58.5 -122q0 -115 -106 -174v-6q131 -39 131 -184q0 -109 -76 -162t-195 -53q-111 0 -217 45z " />
<glyph unicode="&#xb4;" horiz-adv-x="1046" d="M373 1116l243 299h207l11 -29l-304 -270h-157z" />
<glyph unicode="&#xb5;" horiz-adv-x="2990" d="M25 440v805h309q29 0 53.5 -2t76.5 -23.5t88 -60.5t64.5 -121t28.5 -194q0 -115 -30.5 -197t-67.5 -121t-91.5 -60.5t-80 -23.5t-53.5 -2h-297zM31 -68h26l-2 86q23 -23 45 -22q57 0 58 88q0 76 -58 76q-25 0 -45 -21l-4 17h-20v-224zM55 41v76q23 23 45 22q31 0 31 -57 q0 -63 -33 -64q-20 0 -43 23zM199 0v236h26v-236h-26zM236 625h40q31 0 49.5 4t45 22.5t40 67.5t13.5 125q0 78 -11.5 126t-36 66.5t-42 22.5t-47.5 4h-51v-438zM266 80q0 80 66 80q63 0 63 -74l-4 -12h-98q0 -55 41 -56q23 0 41 21l14 -16q-27 -27 -57 -27q-66 0 -66 84z M295 92h72q0 47 -35 47q-37 0 -37 -47zM330 1606q0 33 14 58.5t43 25.5q10 0 41 -19l6 17h21v-164q0 -61 -64 -62q-35 0 -53 17l8 20q23 -14 45 -14q35 0 35 35l2 26q-25 -20 -45 -20q-53 0 -53 80zM356 1606q0 -57 29 -57.5t43 24.5v72q-18 23 -41 22q-31 0 -31 -61z M426 43q0 35 22.5 44t71.5 11v15q0 25 -24 24q-16 0 -54 -12l-10 20q37 14 70 15q45 0 45 -47v-113h-21l-4 18h-2q-23 -23 -51 -22q-43 0 -43 47zM453 45q0 -27 18 -27q27 0 49 23v39q-57 -2 -65 -21q-2 -6 -2 -14zM494 1610q0 80 65 80q63 0 64 -74l-5 -12h-98 q0 -55 41 -56q23 0 41 21l14 -17q-27 -27 -57 -26q-65 0 -65 84zM522 1622h72q0 47 -35 47q-37 0 -37 -47zM584 18v5l12 16q20 -20 45 -21q31 0 31 25q0 6 -4 11t-8.5 7t-12.5 4.5t-10 4.5q-45 18 -45 45q0 45 55 45q29 0 45 -15v-4l-10 -16q-14 14 -37 14q-29 0 -29 -20 q0 -6 1 -9.5t6.5 -6.5t8.5 -5t10 -4t11 -4q43 -16 43 -43q0 -51 -57 -51q-28 -1 -55 22zM655 1686h25q2 -27 2 -35q16 29 47 37l6 -23q-37 -14 -53 -41v-94h-25v102q0 46 -2 54zM729 80q0 80 66 80q63 0 63 -74l-4 -12h-98q0 -55 41 -56q23 0 41 21l14 -16q-27 -27 -57 -27 q-66 0 -66 84zM735 440v805h479v-182q-145 0 -274 2q0 -63 -2 -131q86 2 192 2v-166h-192q2 -82 2 -147q129 2 287 2v-185h-492zM758 92h71q0 47 -34 47q-37 0 -37 -47zM764 1530v156h22l2 -17q35 20 52 21q20 0 28 -19q29 18 52 19q35 0 34 -45v-115h-26v115q0 23 -19 22 q-14 0 -35 -16v-121h-26v115q0 23 -19 22q-20 0 -38 -18v-119h-27zM958 0v233h25v-233h-25zM991 1573q0 35 22.5 44t71.5 11v14q0 25 -24 25q-16 0 -53 -12l-11 20q37 14 70 15q45 0 45 -48v-112h-20l-5 18h-2q-23 -23 -51 -22q-43 0 -43 47zM1018 1575q0 -27 18 -27 q27 0 49 23v39q-57 -2 -65 -21q-2 -6 -2 -14zM1036 0v156h27v-156h-27zM1036 188v39h27v-39h-27zM1106 80q0 33 18.5 56.5t51.5 23.5q29 0 45 -17l-13 -18q-14 14 -32 14q-43 0 -43 -59q0 -61 41 -62q18 0 34 17l15 -17q-27 -23 -52 -22q-65 0 -65 84zM1159 1530v156h23 l2 -17q33 20 57 21q35 0 35 -45v-115h-27v115q0 23 -18.5 22.5t-44.5 -18.5v-119h-27zM1247 80q0 80 66 80q63 0 63 -74l-4 -12h-98q0 -55 41 -56q23 0 41 21l14 -16q-27 -27 -57 -27q-66 0 -66 84zM1276 92h72q0 47 -35 47q-37 0 -37 -47zM1305 1663v23h26v53h25v-53h39 v-23h-39v-88q0 -14 2 -17.5t14 -3.5h23v-24h-29q-35 0 -35 39v94h-26zM1335 440q0 6 2 207t4 400l2 198h299l89 -268q16 -51 26 -109h4q10 57 27 109l86 268h291l2 -198q0 -199 2 -400t2 -207h-217q0 381 14 580h-4q-18 -80 -51 -184l-80 -246h-168l-82 246q-35 113 -49 184 h-4q16 -268 16 -580h-211zM1415 0v156h23l2 -17q33 20 57 21q35 0 35 -45v-115h-27v115q0 23 -18 22q-16 0 -45 -18v-119h-27zM1417 1679h29q33 -106 39 -129h2q6 27 43 129h26l-65 -170q-16 -43 -66 -45l-4 17l2 4q33 2 47 39zM1571 18v5l12 16q20 -20 45 -21q31 0 31 25 q0 16 -33 27q-47 16 -47 45q0 45 53 45q27 0 47 -15v-4l-10 -16q-14 14 -39 14q-27 0 -26 -20q0 -12 6 -16.5t30 -12.5q43 -16 43 -43q0 -51 -57 -51q-28 -1 -55 22zM1583 1462h25v86q23 -23 45 -22q57 0 57 88q0 76 -57 76q-25 0 -45 -21l-4 17h-21v-224zM1608 1571v76 q23 23 45 22q31 0 30 -57q0 -63 -32 -64q-20 0 -43 23zM1716 80q0 80 66 80q63 0 63 -74l-4 -12h-98q0 -55 41 -56q23 0 41 21l14 -16q-27 -27 -57 -27q-66 0 -66 84zM1741 1610q0 80 65 80q63 0 64 -74l-4 -12h-99q0 -55 41 -56q23 0 41 21l15 -17q-27 -27 -58 -26 q-65 0 -65 84zM1745 92h72q0 47 -35 47q-37 0 -37 -47zM1769 1622h72q0 47 -35 47q-37 0 -37 -47zM1919 1546q0 23 23 23q25 0 24 -23q0 -25 -24 -24q-23 -1 -23 24zM1927 133v23h27v53h24v-53h39v-23h-39v-88q0 -12 2 -16t15 -4h22v-25h-28q-35 0 -35 39v94h-27zM2007 1610 q0 33 18.5 56.5t51.5 23.5q29 0 45 -17l-13 -18q-14 14 -32 14q-43 0 -43 -59q0 -61 41 -62q18 0 34 17l15 -17q-27 -23 -51 -22q-66 0 -66 84zM2052 0v236h27l-2 -97q33 20 57 21q35 0 35 -45v-115h-27v115q0 23 -18.5 22.5t-44.5 -18.5v-119h-27zM2144 1610 q0 35 19.5 57.5t50.5 22.5q33 0 52.5 -22.5t19.5 -57.5q0 -31 -18.5 -57.5t-53.5 -26.5t-52.5 26.5t-17.5 57.5zM2173 1610q0 -63 41 -64q45 0 45 64q0 59 -45 59q-41 0 -41 -59zM2210 80q0 80 65 80q63 0 64 -74l-4 -12h-99q0 -55 41 -56q23 0 41 21l15 -16 q-27 -27 -58 -27q-65 0 -65 84zM2238 92h72q0 47 -35 47q-37 0 -37 -47zM2255 856q0 184 89 298t267 114q180 0 269.5 -114t89.5 -298q0 -82 -19.5 -155.5t-59.5 -136t-112 -100.5t-168 -38q-182 0 -269 126t-87 304zM2318 1530v156h23l2 -17q37 20 51 21q18 0 29 -19 q29 18 51 19q35 0 35 -45v-115h-27v115q0 23 -18 22q-14 0 -35 -16v-121h-27v115q0 23 -18 22q-20 0 -39 -18v-119h-27zM2425 133v23h24v37q0 43 43 43q20 0 35 -9l-8 -18q-8 6 -22 6q-20 0 -21 -22v-37h41v-23h-41v-133h-27v133h-24zM2478 856q0 -244 133 -244t133 244 q0 104 -27.5 162.5t-105.5 58.5q-133 0 -133 -221zM2535 80q0 35 19.5 57.5t50.5 22.5q33 0 52.5 -22.5t19.5 -57.5q0 -31 -18.5 -57.5t-53.5 -26.5t-52.5 26.5t-17.5 57.5zM2564 80q0 -63 41 -64q45 0 45 64q0 59 -45 59q-41 0 -41 -59zM2716 0v156h22l2 -17q33 20 58 21 q35 0 34 -45v-115h-26v115q0 23 -18.5 22.5t-45.5 -18.5v-119h-26zM2865 133v23h27v53h24v-53h39v-23h-39v-88q0 -12 2 -16t15 -4h22v-25h-28q-35 0 -35 39v94h-27z" />
<glyph unicode="&#xb6;" horiz-adv-x="1417" d="M-14 963q0 102 27.5 180t76.5 123t97.5 72.5t111.5 39t94 13.5t70 2h749v-1864h-172v1712h-376v-1712h-172v1001h-52q-43 0 -93 8.5t-116.5 36t-119 72.5t-89 127.5t-36.5 188.5z" />
<glyph unicode="&#xb7;" horiz-adv-x="462" d="M109 649q0 53 36.5 90t88 37t87 -37t35.5 -90q0 -51 -35.5 -88t-87.5 -37q-53 0 -88.5 37t-35.5 88z" />
<glyph unicode="&#xb8;" horiz-adv-x="1046" d="M324 -412l41 107h24q43 -43 113 -43q35 0 59.5 19.5t24.5 52.5q0 47 -34 71.5t-101 46.5l45 166l26 19l82 -27l-24 -86q141 -70 141 -201q0 -84 -60.5 -133t-152.5 -49q-110 0 -184 57z" />
<glyph unicode="&#xb9;" horiz-adv-x="716" d="M113 1485v16l227 125h117v-604q6 0 76.5 -1t74.5 -1v-117h-458v117q6 0 81.5 1t79.5 1v354l6 80l-4 2l-147 -72z" />
<glyph unicode="&#xba;" horiz-adv-x="675" d="M100 496v118h555v-118h-555zM100 1028q0 135 70 218t207 83q135 0 206.5 -84t71.5 -217q0 -121 -67.5 -214t-211 -93t-210 93t-66.5 214zM248 1026q0 -96 32.5 -153.5t96.5 -57.5q66 0 98.5 57.5t32.5 153.5q0 199 -131 199q-129 0 -129 -199z" />
<glyph unicode="&#xbb;" horiz-adv-x="958" d="M100 117l219 354l-219 354l111 68l285 -422l-285 -424zM463 115l221 356l-221 354l108 70l287 -424l-287 -424z" />
<glyph unicode="&#xbc;" horiz-adv-x="1597" d="M113 1264v16l227 125h117v-604q6 0 76.5 -1t74.5 -1v-117h-458v117q6 0 81.5 1t79.5 1v354l6 80l-4 2l-147 -72zM225 -35l985 1477h162l-985 -1477h-162zM958 133v121l170 469h158l-188 -465l2 -4q111 2 170 2v164l143 10v-174q63 2 92 2v-125q-29 0 -92 2v-135h-143v135 q-142 -2 -312 -2z" />
<glyph unicode="&#xbd;" horiz-adv-x="1597" d="M113 1264v16l227 125h117v-604q6 0 76.5 -1t74.5 -1v-117h-458v117q6 0 81.5 1t79.5 1v354l6 80l-4 2l-147 -72zM225 -35l985 1477h162l-985 -1477h-162zM977 0v109q20 23 115.5 116.5t144.5 147.5q72 80 72 147q0 45 -29 70.5t-74 25.5q-84 0 -151 -61l-70 88v14 q106 82 238 82q98 0 165.5 -53t67.5 -151q0 -104 -88 -211q-74 -86 -209 -201l2 -6q90 8 305 8v-125h-489z" />
<glyph unicode="&#xbe;" horiz-adv-x="1597" d="M100 713v14l35 109q86 -43 170 -43q141 0 141 108q0 98 -161 98h-45l-11 11l7 108h34q152 0 152 96q0 86 -107 86q-70 0 -137 -43l-61 93v14q100 57 227 57q102 0 160.5 -52t58.5 -122q0 -115 -106 -174v-6q131 -39 131 -184q0 -109 -76 -162t-195 -53q-111 0 -217 45z M225 -35l985 1477h162l-985 -1477h-162zM958 133v121l170 469h158l-188 -465l2 -4q111 2 170 2v164l143 10v-174q63 2 92 2v-125q-29 0 -92 2v-135h-143v135q-142 -2 -312 -2z" />
<glyph unicode="&#xbf;" horiz-adv-x="743" d="M0 -125q0 84 30.5 155.5t67.5 110.5t93.5 94.5t82.5 90.5q31 41 41.5 69.5t10.5 77.5v86h161v-90q0 -82 -24.5 -133t-79.5 -117q-16 -20 -65.5 -71.5t-72 -79t-45 -78.5t-22.5 -103q0 -90 54.5 -142t158.5 -52q117 0 248 80l70 -117v-25q-178 -92 -349 -92 q-156 0 -258 90t-102 246zM283 862q0 49 35.5 86t87 37t86 -37t34.5 -86q0 -51 -34.5 -88t-86 -37t-87 37t-35.5 88z" />
<glyph unicode="&#xc0;" horiz-adv-x="1280" d="M55 0q315 893 496 1395h192q205 -590 478 -1395h-189l-141 414h-510l-145 -414h-181zM287 1755l10 29h209l242 -279h-160zM426 557q68 2 213 2q150 0 213 -2l-111 340q-27 82 -58.5 185.5t-37.5 123.5h-4q-47 -158 -98 -309z" />
<glyph unicode="&#xc1;" horiz-adv-x="1280" d="M55 0q315 893 496 1395h192q205 -590 478 -1395h-189l-141 414h-510l-145 -414h-181zM426 557q68 2 213 2q150 0 213 -2l-111 340q-27 82 -58.5 185.5t-37.5 123.5h-4q-47 -158 -98 -309zM549 1505l244 279h206l11 -29l-299 -250h-162z" />
<glyph unicode="&#xc2;" horiz-adv-x="1280" d="M55 0q315 893 496 1395h192q205 -590 478 -1395h-189l-141 414h-510l-145 -414h-181zM307 1503l248 281h180l248 -281h-158l-178 152h-6l-178 -152h-156zM426 557q68 2 213 2q150 0 213 -2l-111 340q-27 82 -58.5 185.5t-37.5 123.5h-4q-47 -158 -98 -309z" />
<glyph unicode="&#xc3;" horiz-adv-x="1280" d="M55 0q315 893 496 1395h192q205 -590 478 -1395h-189l-141 414h-510l-145 -414h-181zM293 1593q90 162 229 162q47 0 138.5 -41t119.5 -41q31 0 51.5 16.5t65.5 71.5l98 -63q-88 -162 -229 -162q-47 0 -138 41t-120 41q-31 0 -51.5 -16.5t-63.5 -71.5zM426 557 q68 2 213 2q150 0 213 -2l-111 340q-27 82 -58.5 185.5t-37.5 123.5h-4q-47 -158 -98 -309z" />
<glyph unicode="&#xc4;" horiz-adv-x="1280" d="M55 0q315 893 496 1395h192q205 -590 478 -1395h-189l-141 414h-510l-145 -414h-181zM352 1526v215l21 20h143v-235h-164zM426 557q68 2 213 2q150 0 213 -2l-111 340q-27 82 -58.5 185.5t-37.5 123.5h-4q-47 -158 -98 -309zM774 1526v215l21 20h143v-235h-164z" />
<glyph unicode="&#xc5;" horiz-adv-x="1280" d="M55 0q315 893 496 1395h192q205 -590 478 -1395h-189l-141 414h-510l-145 -414h-181zM426 557q68 2 213 2q150 0 213 -2l-111 340q-27 82 -58.5 185.5t-37.5 123.5h-4q-47 -158 -98 -309zM436 1663q0 176 207 176t207 -176q0 -84 -60.5 -125t-146.5 -41t-146.5 41 t-60.5 125zM565 1663q0 -88 78 -88t78 88q0 98 -78 98t-78 -98z" />
<glyph unicode="&#xc6;" horiz-adv-x="1804" d="M8 0l807 1393h858v-158q-406 0 -620 2q0 -336 -2 -438q197 2 548 2v-150q-352 0 -548 2q2 -219 2 -497q223 2 641 2v-158h-813v346h-484l-198 -346h-191zM477 492q55 2 202.5 2t201.5 -2q0 477 2 716h-6q-47 -102 -154 -286z" />
<glyph unicode="&#xc7;" horiz-adv-x="1196" d="M109 719q0 186 56 342t186 261t315 105q227 0 409 -114l-88 -135q-133 96 -311 96q-137 0 -228.5 -91t-125 -210t-33.5 -254q0 -100 19.5 -196.5t61.5 -188.5t122.5 -149.5t189.5 -57.5q182 0 338 145l94 -116q-170 -156 -377 -176l-18 -66q141 -70 141 -201 q0 -84 -60.5 -133t-152.5 -49q-111 0 -184 57l41 107h24q43 -43 113 -43q35 0 59.5 19.5t24.5 52.5q0 47 -34 71.5t-101 46.5l37 135q-135 8 -238.5 75t-163 174.5t-88 231.5t-28.5 261z" />
<glyph unicode="&#xc8;" horiz-adv-x="1134" d="M190 0v1393h814v-158q-426 0 -642 2q0 -336 -2 -438q197 2 570 2v-150q-373 0 -570 2q2 -219 2 -497q223 2 662 2v-158h-834zM311 1755l11 29h208l242 -279h-160z" />
<glyph unicode="&#xc9;" horiz-adv-x="1134" d="M190 0v1393h814v-158q-426 0 -642 2q0 -336 -2 -438q197 2 570 2v-150q-373 0 -570 2q2 -219 2 -497q223 2 662 2v-158h-834zM432 1505l244 279h207l10 -29l-299 -250h-162z" />
<glyph unicode="&#xca;" horiz-adv-x="1134" d="M190 0v1393h814v-158q-426 0 -642 2q0 -336 -2 -438q197 2 570 2v-150q-373 0 -570 2q2 -219 2 -497q223 2 662 2v-158h-834zM276 1503l248 281h181l247 -281h-157l-179 152h-6l-178 -152h-156z" />
<glyph unicode="&#xcb;" horiz-adv-x="1134" d="M190 0v1393h814v-158q-426 0 -642 2q0 -336 -2 -438q197 2 570 2v-150q-373 0 -570 2q2 -219 2 -497q223 2 662 2v-158h-834zM311 1526v215l21 20h143v-235h-164zM733 1526v215l21 20h143v-235h-164z" />
<glyph unicode="&#xcc;" horiz-adv-x="552" d="M-70 1755l11 29h206l222 -279h-162zM188 0v1393h174v-1393h-174z" />
<glyph unicode="&#xcd;" horiz-adv-x="552" d="M182 1505l221 279h207l11 -29l-277 -250h-162zM188 0v1393h174v-1393h-174z" />
<glyph unicode="&#xce;" horiz-adv-x="552" d="M-20 1503l204 281h183l204 -281h-157l-135 152h-9l-137 -152h-153zM188 0v1393h174v-1393h-174z" />
<glyph unicode="&#xcf;" horiz-adv-x="552" d="M29 1526v215l20 20h144v-235h-164zM188 0v1393h174v-1393h-174zM358 1526v215l21 20h143v-235h-164z" />
<glyph unicode="&#xd0;" horiz-adv-x="1290" d="M29 659v148h164v211q0 141 -1.5 256t-1.5 119h406q35 0 62.5 -2t92 -15.5t116 -37t112.5 -76t103 -123t71 -185t29 -258t-29 -258t-71 -185.5t-103 -123t-112.5 -75.5t-116 -37t-92 -15.5t-62.5 -2h-406q0 4 1.5 137t1.5 293v229h-164zM360 468q0 -122 1 -218t1 -100h162 q55 0 88 2t89.5 12t92 29.5t78.5 59.5t69 97.5t43 145.5t17 200.5t-17 199.5t-43 144.5t-69 97.5t-78.5 60.5t-92 30.5t-90 12t-87.5 2h-162q0 -4 -1 -82t-1 -181v-173h316v-148h-316v-191z" />
<glyph unicode="&#xd1;" horiz-adv-x="1380" d="M190 0v1393h199l494 -844q84 -139 137 -277h6q-6 236 -6 422v699h170v-1393h-193l-493 842q-51 88 -146 288h-6q6 -154 6 -421l2 -709h-170zM358 1593q90 162 230 162q47 0 138 -41t120 -41q31 0 51.5 16.5t65.5 71.5l98 -63q-88 -162 -230 -162q-47 0 -138 41t-120 41 q-31 0 -51 -16.5t-63 -71.5z" />
<glyph unicode="&#xd2;" horiz-adv-x="1363" d="M109 717q0 188 58 345t191.5 261t321.5 104t322.5 -104t193.5 -261t59 -345q0 -111 -19 -215.5t-63.5 -200.5t-109 -168t-163.5 -115t-220 -43q-150 0 -263.5 64.5t-179 173.5t-97 236t-31.5 268zM289 716.5q0 -98.5 19.5 -195.5t61.5 -190t122.5 -151.5t187.5 -58.5 q109 0 189.5 58.5t122.5 152.5t61.5 190t19.5 194.5t-20.5 193t-63.5 179.5t-123 137t-186 52q-104 0 -183 -52t-123 -137t-64.5 -179.5t-20.5 -193zM330 1755l10 29h209l242 -279h-160z" />
<glyph unicode="&#xd3;" horiz-adv-x="1363" d="M109 717q0 188 58 345t191.5 261t321.5 104t322.5 -104t193.5 -261t59 -345q0 -111 -19 -215.5t-63.5 -200.5t-109 -168t-163.5 -115t-220 -43q-150 0 -263.5 64.5t-179 173.5t-97 236t-31.5 268zM289 716.5q0 -98.5 19.5 -195.5t61.5 -190t122.5 -151.5t187.5 -58.5 q109 0 189.5 58.5t122.5 152.5t61.5 190t19.5 194.5t-20.5 193t-63.5 179.5t-123 137t-186 52q-104 0 -183 -52t-123 -137t-64.5 -179.5t-20.5 -193zM573 1505l244 279h207l10 -29l-299 -250h-162z" />
<glyph unicode="&#xd4;" horiz-adv-x="1363" d="M109 717q0 188 58 345t191.5 261t321.5 104t322.5 -104t193.5 -261t59 -345q0 -111 -19 -215.5t-63.5 -200.5t-109 -168t-163.5 -115t-220 -43q-150 0 -263.5 64.5t-179 173.5t-97 236t-31.5 268zM289 716.5q0 -98.5 19.5 -195.5t61.5 -190t122.5 -151.5t187.5 -58.5 q109 0 189.5 58.5t122.5 152.5t61.5 190t19.5 194.5t-20.5 193t-63.5 179.5t-123 137t-186 52q-104 0 -183 -52t-123 -137t-64.5 -179.5t-20.5 -193zM344 1503l248 281h180l248 -281h-158l-178 152h-6l-178 -152h-156z" />
<glyph unicode="&#xd5;" horiz-adv-x="1363" d="M109 717q0 188 58 345t191.5 261t321.5 104t322.5 -104t193.5 -261t59 -345q0 -111 -19 -215.5t-63.5 -200.5t-109 -168t-163.5 -115t-220 -43q-150 0 -263.5 64.5t-179 173.5t-97 236t-31.5 268zM289 716.5q0 -98.5 19.5 -195.5t61.5 -190t122.5 -151.5t187.5 -58.5 q109 0 189.5 58.5t122.5 152.5t61.5 190t19.5 194.5t-20.5 193t-63.5 179.5t-123 137t-186 52q-104 0 -183 -52t-123 -137t-64.5 -179.5t-20.5 -193zM330 1593q90 162 229 162q47 0 138 -41t120 -41q31 0 51.5 16.5t65.5 71.5l98 -63q-88 -162 -229 -162q-47 0 -138.5 41 t-119.5 41q-31 0 -51.5 -16.5t-63.5 -71.5z" />
<glyph unicode="&#xd6;" horiz-adv-x="1363" d="M109 717q0 188 58 345t191.5 261t321.5 104t322.5 -104t193.5 -261t59 -345q0 -111 -19 -215.5t-63.5 -200.5t-109 -168t-163.5 -115t-220 -43q-150 0 -263.5 64.5t-179 173.5t-97 236t-31.5 268zM289 716.5q0 -98.5 19.5 -195.5t61.5 -190t122.5 -151.5t187.5 -58.5 q109 0 189.5 58.5t122.5 152.5t61.5 190t19.5 194.5t-20.5 193t-63.5 179.5t-123 137t-186 52q-104 0 -183 -52t-123 -137t-64.5 -179.5t-20.5 -193zM389 1526v215l21 20h143v-235h-164zM811 1526v215l20 20h144v-235h-164z" />
<glyph unicode="&#xd7;" d="M164 338l315 336l-315 336l112 104l308 -328l307 328l113 -104l-316 -336l316 -336l-113 -105l-307 328l-308 -328z" />
<glyph unicode="&#xd8;" horiz-adv-x="1363" d="M109 717q0 188 58 345t191.5 261t321.5 104q190 0 332 -110l75 110h166l-145 -213q147 -197 147 -497q0 -111 -19 -215.5t-63.5 -200.5t-109 -168t-163.5 -115t-220 -43q-197 0 -332 113l-72 -113h-165l143 215q-145 203 -145 527zM289 717q0 -207 73 -369l558 834 q-96 96 -240 96q-104 0 -183 -52t-123 -137t-64.5 -179.5t-20.5 -192.5zM442 223q98 -102 238 -102q109 0 189.5 58.5t122.5 152.5t61.5 190t19.5 195q0 195 -69 342z" />
<glyph unicode="&#xd9;" horiz-adv-x="1345" d="M176 473v920h172v-926q0 -113 27.5 -186.5t82 -106.5t104.5 -43t122 -10q164 0 238.5 77.5t74.5 196.5v998h172v-983q0 -199 -136 -317t-355 -118q-109 0 -188.5 18.5t-155.5 68t-117 152.5t-41 259zM342 1755l10 29h209l242 -279h-160z" />
<glyph unicode="&#xda;" horiz-adv-x="1345" d="M176 473v920h172v-926q0 -113 27.5 -186.5t82 -106.5t104.5 -43t122 -10q164 0 238.5 77.5t74.5 196.5v998h172v-983q0 -199 -136 -317t-355 -118q-109 0 -188.5 18.5t-155.5 68t-117 152.5t-41 259zM545 1505l243 279h207l11 -29l-299 -250h-162z" />
<glyph unicode="&#xdb;" horiz-adv-x="1345" d="M176 473v920h172v-926q0 -113 27.5 -186.5t82 -106.5t104.5 -43t122 -10q164 0 238.5 77.5t74.5 196.5v998h172v-983q0 -199 -136 -317t-355 -118q-109 0 -188.5 18.5t-155.5 68t-117 152.5t-41 259zM336 1503l248 281h180l248 -281h-158l-178 152h-6l-178 -152h-156z " />
<glyph unicode="&#xdc;" horiz-adv-x="1345" d="M176 473v920h172v-926q0 -113 27.5 -186.5t82 -106.5t104.5 -43t122 -10q164 0 238.5 77.5t74.5 196.5v998h172v-983q0 -199 -136 -317t-355 -118q-109 0 -188.5 18.5t-155.5 68t-117 152.5t-41 259zM381 1526v215l20 20h144v-235h-164zM803 1526v215l20 20h144v-235 h-164z" />
<glyph unicode="&#xdd;" horiz-adv-x="1110" d="M12 1393h203l221 -426q92 -172 121 -262h4q35 98 121 262l221 426h195l-457 -838v-555h-172v551zM406 1505l243 279h207l10 -29l-299 -250h-161z" />
<glyph unicode="&#xde;" horiz-adv-x="1196" d="M190 0v1393h172q0 -115 -2 -271q100 2 285 2q33 0 56.5 -1t76.5 -9t92 -22.5t88.5 -46t81 -74.5t54 -114t22.5 -157q0 -106 -37 -187t-89 -125t-118.5 -71.5t-115.5 -36t-90 -8.5q-205 0 -306 2q2 -156 2 -274h-172zM360 416q100 2 254 2q35 0 57.5 2t66.5 8t75 24.5 t63.5 47t49 80t16.5 116.5q0 80 -26.5 136.5t-58.5 83t-85 41t-83 16.5t-75 2q-162 0 -252 2q0 -348 -2 -561z" />
<glyph unicode="&#xdf;" horiz-adv-x="1155" d="M141 0v1012q0 119 30 206t71 131t102.5 68.5t104.5 29.5t98 5q201 0 295 -98.5t94 -214.5q0 -125 -31 -179.5t-119 -115.5l-24 -17q-18 -12 -25.5 -18t-19.5 -18.5t-17.5 -22.5t-10.5 -27.5t-5 -38.5q0 -29 8 -50t32 -39.5t39 -29t53 -29.5t52 -28q68 -39 99.5 -60.5 t63.5 -75.5t32 -128q0 -129 -90 -208t-238 -79q-156 0 -297 109v25l72 94q115 -102 225 -103q63 0 109.5 39t46.5 103q0 27 -7 50t-15.5 36.5t-29 30t-29.5 21.5t-34.5 18.5t-32.5 17.5q-66 35 -93 52t-66 51t-53.5 77t-14.5 102q0 70 31 124.5t59.5 77t81.5 52.5 q51 33 70.5 70t19.5 104q0 20 -7 46t-28.5 61t-71.5 58.5t-124 23.5q-51 0 -85 -9.5t-72 -37t-57.5 -92t-19.5 -164.5v-1012h-172z" />
<glyph unicode="&#xe0;" horiz-adv-x="993" d="M98 268q0 63 16.5 112.5t43 83.5t72.5 58.5t89 38.5t110 23.5t119 12.5t130 7v82q0 150 -141 150q-135 0 -336 -78l-47 106v25q229 86 417 86q279 0 279 -289v-450q0 -113 6 -236h-121l-20 20l-27 91l-8 2q-137 -137 -309 -138q-82 0 -139.5 30t-84 78t-38 93t-11.5 92z M209 1386l10 29h209l242 -299h-156zM272 274q0 -172 136 -172q131 0 270 154q0 10 2 110.5t2 110.5l-2 2q-68 -2 -94.5 -3t-78.5 -5t-72.5 -9t-55.5 -15.5t-48.5 -24.5t-30.5 -34.5t-22.5 -48.5t-5.5 -65z" />
<glyph unicode="&#xe1;" horiz-adv-x="993" d="M98 268q0 63 16.5 112.5t43 83.5t72.5 58.5t89 38.5t110 23.5t119 12.5t130 7v82q0 150 -141 150q-135 0 -336 -78l-47 106v25q229 86 417 86q279 0 279 -289v-450q0 -113 6 -236h-121l-20 20l-27 91l-8 2q-137 -137 -309 -138q-82 0 -139.5 30t-84 78t-38 93t-11.5 92z M272 274q0 -172 136 -172q131 0 270 154q0 10 2 110.5t2 110.5l-2 2q-68 -2 -94.5 -3t-78.5 -5t-72.5 -9t-55.5 -15.5t-48.5 -24.5t-30.5 -34.5t-22.5 -48.5t-5.5 -65zM352 1116l244 299h207l10 -29l-303 -270h-158z" />
<glyph unicode="&#xe2;" horiz-adv-x="993" d="M98 268q0 63 16.5 112.5t43 83.5t72.5 58.5t89 38.5t110 23.5t119 12.5t130 7v82q0 150 -141 150q-135 0 -336 -78l-47 106v25q229 86 417 86q279 0 279 -289v-450q0 -113 6 -236h-121l-20 20l-27 91l-8 2q-137 -137 -309 -138q-82 0 -139.5 30t-84 78t-38 93t-11.5 92z M164 1114l248 301h180l248 -301h-158l-178 170h-6l-179 -170h-155zM272 274q0 -172 136 -172q131 0 270 154q0 10 2 110.5t2 110.5l-2 2q-68 -2 -94.5 -3t-78.5 -5t-72.5 -9t-55.5 -15.5t-48.5 -24.5t-30.5 -34.5t-22.5 -48.5t-5.5 -65z" />
<glyph unicode="&#xe3;" horiz-adv-x="993" d="M98 268q0 63 16.5 112.5t43 83.5t72.5 58.5t89 38.5t110 23.5t119 12.5t130 7v82q0 150 -141 150q-135 0 -336 -78l-47 106v25q229 86 417 86q279 0 279 -289v-450q0 -113 6 -236h-121l-20 20l-27 91l-8 2q-137 -137 -309 -138q-82 0 -139.5 30t-84 78t-38 93t-11.5 92z M150 1223q90 162 229 161q47 0 138 -40.5t120 -40.5q31 0 51.5 16t65.5 72l98 -64q-88 -160 -229 -160q-47 0 -138.5 40t-119.5 40q-31 0 -51.5 -16.5t-63.5 -69.5zM272 274q0 -172 136 -172q131 0 270 154q0 10 2 110.5t2 110.5l-2 2q-68 -2 -94.5 -3t-78.5 -5t-72.5 -9 t-55.5 -15.5t-48.5 -24.5t-30.5 -34.5t-22.5 -48.5t-5.5 -65z" />
<glyph unicode="&#xe4;" horiz-adv-x="993" d="M98 268q0 63 16.5 112.5t43 83.5t72.5 58.5t89 38.5t110 23.5t119 12.5t130 7v82q0 150 -141 150q-135 0 -336 -78l-47 106v25q229 86 417 86q279 0 279 -289v-450q0 -113 6 -236h-121l-20 20l-27 91l-8 2q-137 -137 -309 -138q-82 0 -139.5 30t-84 78t-38 93t-11.5 92z M211 1157v215l20 21h144v-236h-164zM272 274q0 -172 136 -172q131 0 270 154q0 10 2 110.5t2 110.5l-2 2q-68 -2 -94.5 -3t-78.5 -5t-72.5 -9t-55.5 -15.5t-48.5 -24.5t-30.5 -34.5t-22.5 -48.5t-5.5 -65zM629 1157v215l20 21h144v-236h-164z" />
<glyph unicode="&#xe5;" horiz-adv-x="993" d="M98 268q0 63 16.5 112.5t43 83.5t72.5 58.5t89 38.5t110 23.5t119 12.5t130 7v82q0 150 -141 150q-135 0 -336 -78l-47 106v25q229 86 417 86q279 0 279 -289v-450q0 -113 6 -236h-121l-20 20l-27 91l-8 2q-137 -137 -309 -138q-82 0 -139.5 30t-84 78t-38 93t-11.5 92z M272 274q0 -172 136 -172q131 0 270 154q0 10 2 110.5t2 110.5l-2 2q-68 -2 -94.5 -3t-78.5 -5t-72.5 -9t-55.5 -15.5t-48.5 -24.5t-30.5 -34.5t-22.5 -48.5t-5.5 -65zM295 1282q0 186 207 186t207 -186q0 -88 -59.5 -131t-147.5 -43t-147.5 43t-59.5 131zM424 1282 q0 -96 78 -96t78 96q0 109 -78 109t-78 -109z" />
<glyph unicode="&#xe6;" horiz-adv-x="1548" d="M98 268q0 74 19.5 128.5t63.5 89t91 57t124 35t137.5 17.5t156.5 9v82q0 150 -153 150q-135 0 -336 -78l-47 106v25q229 86 417 86q182 0 240 -117q92 117 268 117q178 0 279.5 -116t101.5 -316q0 -68 -12 -113q-63 0 -207.5 1t-264.5 2t-124 1q2 -129 59.5 -230.5 t180.5 -101.5q125 0 239 125l86 -77v-25q-150 -150 -330 -150q-221 0 -321 179q-178 -178 -395 -179q-82 0 -139.5 30t-84 78t-38 93t-11.5 92zM272 274q0 -172 136 -172q154 0 309 170q-29 86 -29 207q-86 -2 -127 -4t-100.5 -8t-85 -19.5t-54 -35t-39 -56.5t-10.5 -82z M852 555q10 0 218 1t216 1q0 283 -207 283q-100 0 -159.5 -71t-67.5 -214z" />
<glyph unicode="&#xe7;" horiz-adv-x="876" d="M94 483q0 205 111.5 348.5t322.5 143.5q78 0 153 -25.5t118 -60.5v-25l-64 -100q-88 74 -203 74q-133 0 -196.5 -106.5t-63.5 -248.5q0 -68 10.5 -128t35 -120.5t74.5 -96.5t120 -36q123 0 219 115l80 -84v-24q-104 -104 -236 -127l-18 -68q141 -70 141 -201 q0 -84 -60 -133t-153 -49q-111 0 -184 57l41 107h25q43 -43 112 -43q35 0 59.5 19.5t24.5 52.5q0 47 -33.5 71.5t-101.5 46.5l37 135q-100 6 -175 51.5t-116 119t-60.5 156.5t-19.5 179z" />
<glyph unicode="&#xe8;" horiz-adv-x="974" d="M92 481q0 221 104.5 357.5t307.5 136.5q182 0 282.5 -116t100.5 -333q0 -55 -13 -96q-63 0 -210.5 1t-270.5 2t-127 1q0 -57 13.5 -110.5t40 -105.5t76.5 -84t118 -32q131 0 246 125l84 -77v-25q-150 -150 -336 -150q-205 0 -310.5 141.5t-105.5 364.5zM174 1386l10 29 h209l242 -299h-156zM268 555q10 0 223.5 1t223.5 1q0 283 -213.5 283t-233.5 -285z" />
<glyph unicode="&#xe9;" horiz-adv-x="974" d="M92 481q0 221 104.5 357.5t307.5 136.5q182 0 282.5 -116t100.5 -333q0 -55 -13 -96q-63 0 -210.5 1t-270.5 2t-127 1q0 -57 13.5 -110.5t40 -105.5t76.5 -84t118 -32q131 0 246 125l84 -77v-25q-150 -150 -336 -150q-205 0 -310.5 141.5t-105.5 364.5zM268 555 q10 0 223.5 1t223.5 1q0 283 -213.5 283t-233.5 -285zM379 1116l244 299h206l11 -29l-303 -270h-158z" />
<glyph unicode="&#xea;" horiz-adv-x="974" d="M92 481q0 221 104.5 357.5t307.5 136.5q182 0 282.5 -116t100.5 -333q0 -55 -13 -96q-63 0 -210.5 1t-270.5 2t-127 1q0 -57 13.5 -110.5t40 -105.5t76.5 -84t118 -32q131 0 246 125l84 -77v-25q-150 -150 -336 -150q-205 0 -310.5 141.5t-105.5 364.5zM164 1114l248 301 h180l248 -301h-158l-178 170h-6l-179 -170h-155zM268 555q10 0 223.5 1t223.5 1q0 283 -213.5 283t-233.5 -285z" />
<glyph unicode="&#xeb;" horiz-adv-x="974" d="M92 481q0 221 104.5 357.5t307.5 136.5q182 0 282.5 -116t100.5 -333q0 -55 -13 -96q-63 0 -210.5 1t-270.5 2t-127 1q0 -57 13.5 -110.5t40 -105.5t76.5 -84t118 -32q131 0 246 125l84 -77v-25q-150 -150 -336 -150q-205 0 -310.5 141.5t-105.5 364.5zM211 1157v215 l20 21h144v-236h-164zM268 555q10 0 223.5 1t223.5 1q0 283 -213.5 283t-233.5 -285zM629 1157v215l20 21h144v-236h-164z" />
<glyph unicode="&#xec;" horiz-adv-x="501" d="M-59 1386l10 29h192l201 -299h-154zM162 954l157 7l21 -21v-940h-172v719q0 112 -6 235z" />
<glyph unicode="&#xed;" horiz-adv-x="501" d="M156 1116l200 299h193l10 -29l-248 -270h-155zM162 954l157 7l21 -21v-940h-172v719q0 112 -6 235z" />
<glyph unicode="&#xee;" horiz-adv-x="501" d="M-41 1114l203 301h180l199 -301h-156l-131 170h-6l-137 -170h-152zM162 954l157 7l21 -21v-940h-172v719q0 112 -6 235z" />
<glyph unicode="&#xef;" horiz-adv-x="501" d="M23 1157v215l20 21h143v-236h-163zM162 954l157 7l21 -21v-940h-172v719q0 112 -6 235zM313 1157v215l21 21h143v-236h-164z" />
<glyph unicode="&#xf0;" horiz-adv-x="1046" d="M88 471q0 209 113.5 346t296.5 137q135 0 215 -92l6 4q-53 156 -172 271l-246 -125l-57 110l202 101q-80 59 -206 120l57 115q172 -74 289 -162l239 123l56 -110l-195 -99q272 -266 272 -686q0 -106 -23.5 -199.5t-72.5 -174t-137 -128t-202.5 -47.5t-203 47.5 t-136.5 123t-71.5 158.5t-23.5 167zM264 471q0 -156 65.5 -265.5t192.5 -109.5t193.5 109.5t66.5 265.5q0 145 -61.5 246.5t-198.5 101.5q-135 0 -196.5 -101.5t-61.5 -246.5z" />
<glyph unicode="&#xf1;" horiz-adv-x="1038" d="M145 954l127 7l23 -21l14 -82l4 -2q193 119 346 119q102 0 164 -64.5t62 -205.5q0 -10 -3 -352.5t-3 -352.5h-172q0 10 3 346t3 346q0 82 -31 112t-90 30q-115 0 -268 -113v-721h-172v717q-1 114 -7 237zM178 1223q90 162 230 161q47 0 138 -40.5t120 -40.5q31 0 51 16 t65 72l99 -64q-88 -160 -230 -160q-47 0 -138 40t-120 40q-31 0 -51 -16.5t-63 -69.5z" />
<glyph unicode="&#xf2;" horiz-adv-x="1046" d="M88 481q0 217 115.5 355.5t318.5 138.5q201 0 318.5 -139.5t117.5 -354.5q0 -86 -23.5 -170t-72.5 -161.5t-137 -126t-202.5 -48.5t-203 48.5t-136.5 126t-71.5 161.5t-23.5 170zM170 1386l10 29h209l242 -299h-156zM264 481q0 -160 65.5 -272.5t192.5 -112.5t193.5 114 t66.5 271q0 152 -61.5 255.5t-198.5 103.5q-135 0 -196.5 -103.5t-61.5 -255.5z" />
<glyph unicode="&#xf3;" horiz-adv-x="1046" d="M88 481q0 217 115.5 355.5t318.5 138.5q201 0 318.5 -139.5t117.5 -354.5q0 -86 -23.5 -170t-72.5 -161.5t-137 -126t-202.5 -48.5t-203 48.5t-136.5 126t-71.5 161.5t-23.5 170zM264 481q0 -160 65.5 -272.5t192.5 -112.5t193.5 114t66.5 271q0 152 -61.5 255.5 t-198.5 103.5q-135 0 -196.5 -103.5t-61.5 -255.5zM414 1116l243 299h207l10 -29l-303 -270h-157z" />
<glyph unicode="&#xf4;" horiz-adv-x="1046" d="M88 481q0 217 115.5 355.5t318.5 138.5q201 0 318.5 -139.5t117.5 -354.5q0 -86 -23.5 -170t-72.5 -161.5t-137 -126t-202.5 -48.5t-203 48.5t-136.5 126t-71.5 161.5t-23.5 170zM184 1114l248 301h180l248 -301h-158l-178 170h-6l-178 -170h-156zM264 481 q0 -160 65.5 -272.5t192.5 -112.5t193.5 114t66.5 271q0 152 -61.5 255.5t-198.5 103.5q-135 0 -196.5 -103.5t-61.5 -255.5z" />
<glyph unicode="&#xf5;" horiz-adv-x="1046" d="M88 481q0 217 115.5 355.5t318.5 138.5q201 0 318.5 -139.5t117.5 -354.5q0 -86 -23.5 -170t-72.5 -161.5t-137 -126t-202.5 -48.5t-203 48.5t-136.5 126t-71.5 161.5t-23.5 170zM170 1223q90 162 229 161q47 0 138.5 -40.5t119.5 -40.5q31 0 51.5 16t65.5 72l98 -64 q-88 -160 -229 -160q-47 0 -138 40t-120 40q-31 0 -51.5 -16.5t-63.5 -69.5zM264 481q0 -160 65.5 -272.5t192.5 -112.5t193.5 114t66.5 271q0 152 -61.5 255.5t-198.5 103.5q-135 0 -196.5 -103.5t-61.5 -255.5z" />
<glyph unicode="&#xf6;" horiz-adv-x="1046" d="M88 481q0 217 115.5 355.5t318.5 138.5q201 0 318.5 -139.5t117.5 -354.5q0 -86 -23.5 -170t-72.5 -161.5t-137 -126t-202.5 -48.5t-203 48.5t-136.5 126t-71.5 161.5t-23.5 170zM231 1157v215l21 21h143v-236h-164zM264 481q0 -160 65.5 -272.5t192.5 -112.5t193.5 114 t66.5 271q0 152 -61.5 255.5t-198.5 103.5q-135 0 -196.5 -103.5t-61.5 -255.5zM649 1157v215l21 21h143v-236h-164z" />
<glyph unicode="&#xf7;" d="M164 596v154h840v-154h-840zM461 272q0 51 35.5 88t87 37t87.5 -36.5t36 -88.5q0 -53 -36 -89t-87.5 -36t-87 36t-35.5 89zM461 1075q0 51 35.5 88t87 37t87.5 -37t36 -88q0 -53 -36 -89t-87.5 -36t-87 36t-35.5 89z" />
<glyph unicode="&#xf8;" horiz-adv-x="1046" d="M88 481q0 217 115.5 355.5t318.5 138.5q131 0 228 -62l63 93h141l-114 -170q119 -135 118 -355q0 -86 -23.5 -170t-72.5 -161.5t-137 -126t-203 -48.5q-127 0 -225 62l-64 -92h-141l117 170q-121 143 -121 366zM264 481q0 -125 41 -225l363 537q-61 47 -146 47 q-135 0 -196.5 -103.5t-61.5 -255.5zM377 152q59 -55 145 -56q127 0 193.5 114t66.5 271q0 129 -39 213z" />
<glyph unicode="&#xf9;" horiz-adv-x="1048" d="M147 250q0 10 3.5 351t3.5 353h151l21 -20q0 -10 -3.5 -338t-3.5 -346q0 -147 127 -148q68 0 146 47.5t133 118.5v686h152l20 -20v-698q0 -113 6 -236h-121l-20 20l-27 91l-8 2q-143 -137 -340 -138q-240 1 -240 275zM190 1386l11 29h209l241 -299h-155z" />
<glyph unicode="&#xfa;" horiz-adv-x="1048" d="M147 250q0 10 3.5 351t3.5 353h151l21 -20q0 -10 -3.5 -338t-3.5 -346q0 -147 127 -148q68 0 146 47.5t133 118.5v686h152l20 -20v-698q0 -113 6 -236h-121l-20 20l-27 91l-8 2q-143 -137 -340 -138q-240 1 -240 275zM393 1116l244 299h207l10 -29l-303 -270h-158z" />
<glyph unicode="&#xfb;" horiz-adv-x="1048" d="M147 250q0 10 3.5 351t3.5 353h151l21 -20q0 -10 -3.5 -338t-3.5 -346q0 -147 127 -148q68 0 146 47.5t133 118.5v686h152l20 -20v-698q0 -113 6 -236h-121l-20 20l-27 91l-8 2q-143 -137 -340 -138q-240 1 -240 275zM184 1114l248 301h180l248 -301h-158l-178 170h-6 l-178 -170h-156z" />
<glyph unicode="&#xfc;" horiz-adv-x="1048" d="M147 250q0 10 3.5 351t3.5 353h151l21 -20q0 -10 -3.5 -338t-3.5 -346q0 -147 127 -148q68 0 146 47.5t133 118.5v686h152l20 -20v-698q0 -113 6 -236h-121l-20 20l-27 91l-8 2q-143 -137 -340 -138q-240 1 -240 275zM238 1157v215l20 21h143v-236h-163zM655 1157v215 l21 21h143v-236h-164z" />
<glyph unicode="&#xfd;" horiz-adv-x="960" d="M45 954h191l167 -530q37 -119 78 -281h8q45 184 82 281l191 530h180l-424 -1079q-66 -166 -144.5 -227.5t-260.5 -73.5l-33 117l10 26q78 8 125 23.5t81 52.5t50 69t45 105zM356 1116l244 299h207l10 -29l-303 -270h-158z" />
<glyph unicode="&#xfe;" horiz-adv-x="1038" d="M137 1427l158 7l20 -21q0 -401 -4 -545l4 -2q143 109 271 109q186 0 270 -128t84 -333q0 -82 -9 -155.5t-35 -145.5t-64.5 -123t-102 -83t-145.5 -32q-141 0 -275 129l-8 -2q14 -162 14 -526h-151l-21 21v1595q0 174 -6 235zM311 709q0 -25 2 -231t2 -214 q59 -70 129 -116t125 -46q66 0 109 38t59.5 107.5t21.5 121t5 125.5q0 55 -3 97t-14.5 91t-32 81t-56 53.5t-85.5 21.5q-63 0 -138 -35t-124 -94z" />
<glyph unicode="&#xff;" horiz-adv-x="960" d="M45 954h191l167 -530q37 -119 78 -281h8q45 184 82 281l191 530h180l-424 -1079q-66 -166 -144.5 -227.5t-260.5 -73.5l-33 117l10 26q78 8 125 23.5t81 52.5t50 69t45 105zM195 1157v215l20 21h143v-236h-163zM612 1157v215l21 21h143v-236h-164z" />
<glyph unicode="&#x152;" horiz-adv-x="1839" d="M109 717q0 301 149.5 505.5t429.5 204.5q117 0 248 -34h772v-158q-406 0 -621 2q0 -338 -2 -438q197 2 549 2v-150q-352 0 -549 2q2 -217 2 -497q223 2 642 2v-158h-811q-123 -25 -226 -25q-154 0 -269.5 62.5t-182 170t-99 236t-32.5 273.5zM289 717q0 -80 12 -159 t41 -159t73 -141t114.5 -99t158.5 -38q125 0 230 41v1069q-96 47 -228 47q-106 0 -187 -50t-126 -134t-66.5 -179.5t-21.5 -197.5z" />
<glyph unicode="&#x153;" horiz-adv-x="1630" d="M88 481q0 217 113.5 355.5t312.5 138.5q219 0 332 -180q104 180 317 180q176 0 277.5 -116t101.5 -316q0 -68 -12 -113q-63 0 -206.5 1t-263.5 2t-126 1q2 -80 21.5 -149.5t77 -126t143.5 -56.5q121 0 239 125l84 -77v-25q-150 -150 -330 -150q-219 0 -323 189 q-113 -188 -332 -189q-92 0 -166 33t-122 84t-79.5 119t-45 135t-13.5 135zM264 481q0 -160 63.5 -272.5t186.5 -112.5q121 0 186.5 114t65.5 271q0 150 -60.5 254.5t-191.5 104.5t-190.5 -103.5t-59.5 -255.5zM936 555q10 0 217 1t217 1q0 283 -207 283q-209 0 -227 -285z " />
<glyph unicode="&#x178;" horiz-adv-x="1110" d="M12 1393h203l221 -426q92 -172 121 -262h4q35 98 121 262l221 426h195l-457 -838v-555h-172v551zM262 1526v215l21 20h143v-235h-164zM684 1526v215l21 20h143v-235h-164z" />
<glyph unicode="&#x2c6;" horiz-adv-x="1046" d="M184 1114l248 301h180l248 -301h-158l-178 170h-6l-178 -170h-156z" />
<glyph unicode="&#x2dc;" horiz-adv-x="1046" d="M172 1223q90 162 229 161q47 0 138.5 -40.5t119.5 -40.5q31 0 51.5 16t65.5 72l98 -64q-88 -160 -229 -160q-47 0 -138 40t-120 40q-31 0 -51.5 -16.5t-63.5 -69.5z" />
<glyph unicode="&#x2000;" horiz-adv-x="921" />
<glyph unicode="&#x2001;" horiz-adv-x="1843" />
<glyph unicode="&#x2002;" horiz-adv-x="921" />
<glyph unicode="&#x2003;" horiz-adv-x="1843" />
<glyph unicode="&#x2004;" horiz-adv-x="614" />
<glyph unicode="&#x2005;" horiz-adv-x="460" />
<glyph unicode="&#x2006;" horiz-adv-x="307" />
<glyph unicode="&#x2007;" horiz-adv-x="307" />
<glyph unicode="&#x2008;" horiz-adv-x="229" />
<glyph unicode="&#x2009;" horiz-adv-x="368" />
<glyph unicode="&#x200a;" horiz-adv-x="102" />
<glyph unicode="&#x2010;" horiz-adv-x="686" d="M80 451v149h526v-149h-526z" />
<glyph unicode="&#x2011;" horiz-adv-x="686" d="M80 451v149h526v-149h-526z" />
<glyph unicode="&#x2012;" horiz-adv-x="686" d="M80 451v149h526v-149h-526z" />
<glyph unicode="&#x2013;" horiz-adv-x="983" d="M-20 528l40 150h984l-41 -150h-983z" />
<glyph unicode="&#x2014;" horiz-adv-x="2007" d="M-20 528l40 150h2008l-41 -150h-2007z" />
<glyph unicode="&#x2018;" horiz-adv-x="462" d="M117 989l112 426h115l-39 -440l-168 -6z" />
<glyph unicode="&#x2019;" horiz-adv-x="462" d="M119 969l39 440l168 6l20 -20l-113 -426h-114z" />
<glyph unicode="&#x201a;" horiz-adv-x="462" d="M119 -266l39 440l168 6l20 -20l-113 -426h-114z" />
<glyph unicode="&#x201c;" horiz-adv-x="815" d="M117 989l112 426h115l-39 -440l-168 -6zM469 989l113 426h114l-39 -440l-168 -6z" />
<glyph unicode="&#x201d;" horiz-adv-x="815" d="M119 969l39 440l168 6l20 -20l-113 -426h-114zM471 969l39 440l168 6l20 -20l-112 -426h-115z" />
<glyph unicode="&#x201e;" horiz-adv-x="815" d="M119 -266l39 440l168 6l20 -20l-113 -426h-114zM471 -266l39 440l168 6l20 -20l-112 -426h-115z" />
<glyph unicode="&#x2022;" horiz-adv-x="808" d="M184 680q0 98 60.5 164.5t158.5 66.5q100 0 161 -65.5t61 -165.5q0 -98 -60.5 -163.5t-161.5 -65.5q-98 0 -158.5 65.5t-60.5 163.5z" />
<glyph unicode="&#x2026;" horiz-adv-x="2007" d="M209 100q0 53 37 90t88 37t87 -36.5t36 -90.5q0 -51 -36 -88t-87 -37t-88 37t-37 88zM879 100q0 53 36.5 90t88 37t87 -36.5t35.5 -90.5q0 -51 -35.5 -88t-86.5 -37q-53 0 -89 37t-36 88zM1546 100q0 53 37 90t88 37t87 -36.5t36 -90.5q0 -51 -36 -88t-87 -37 q-53 0 -89 37t-36 88z" />
<glyph unicode="&#x202f;" horiz-adv-x="368" />
<glyph unicode="&#x2039;" horiz-adv-x="595" d="M100 471l287 424l109 -68l-222 -356l222 -354l-109 -70z" />
<glyph unicode="&#x203a;" horiz-adv-x="595" d="M100 115l222 356l-222 354l109 70l287 -424l-287 -424z" />
<glyph unicode="&#x205f;" horiz-adv-x="460" />
<glyph unicode="&#x20ac;" d="M53 457v135h178q-4 39 -4 119q0 63 2 94h-176v135h191q41 211 158.5 342t314.5 131q209 0 373 -106l-99 -129q-111 86 -262 86q-242 0 -311 -324h459v-135h-476q-2 -31 -2 -94q0 -78 2 -119h435v-135h-422q57 -336 303 -336q170 0 284 127l107 -107q-162 -166 -410 -166 q-377 0 -456 482h-189z" />
<glyph unicode="&#x2122;" horiz-adv-x="1765" d="M82 1257v136h676v-136q-150 0 -264 3v-644h-150v644q-112 -3 -262 -3zM918 616v777h235l125 -303q53 -129 61 -160h15q8 45 55 160l121 303h235v-777h-151q0 72 4 609h-16q-76 -197 -84 -217l-107 -246h-145l-107 242q-51 119 -80 217h-14q4 -528 4 -605h-151z" />
<glyph unicode="&#xe000;" horiz-adv-x="955" d="M0 955h955v-955h-955v955z" />
<glyph unicode="&#xfb01;" horiz-adv-x="1159" d="M59 811v137q94 0 156 -2q0 6 -2 114.5t-2 113.5q0 145 74.5 211.5t193.5 66.5q94 0 199 -45v-29l-41 -96q-63 29 -133 29q-57 0 -90 -30t-33 -110v-225q72 2 246 2v-137q-176 0 -248 2q4 -193 4 -813h-172q0 428 4 813q-62 -2 -156 -2zM819 954l158 7l20 -21v-940h-172 v719q0 112 -6 235zM825 1155v219l21 21h151v-240h-172z" />
<glyph unicode="&#xfb02;" horiz-adv-x="1134" d="M59 811v137q94 0 156 -2q0 6 -2 114.5t-2 113.5q0 145 74.5 211.5t193.5 66.5q94 0 199 -45v-29l-41 -96q-63 29 -133 29q-57 0 -90 -30t-33 -110v-225q72 2 246 2v-137q-176 0 -248 2q4 -193 4 -813h-172q0 428 4 813q-62 -2 -156 -2zM795 1427l157 7l21 -21v-1177 q0 -174 6 -236h-172q-6 61 -6 236v956q0 174 -6 235z" />
<glyph unicode="&#xfb03;" horiz-adv-x="1816" d="M1477 954l157 7l21 -21v-940h-172v719q0 112 -6 235zM1483 1155v219l20 21h152v-240h-172zM716 811v137q94 0 156 -2q0 6 -2 114.5t-2 113.5q0 145 74.5 211.5t193.5 66.5q94 0 199 -45v-29l-41 -96q-63 29 -133 29q-57 0 -90 -30t-33 -110v-225q72 2 246 2v-137 q-176 0 -248 2q4 -193 4 -813h-172q0 428 4 813q-62 -2 -156 -2zM59 811v137q94 0 156 -2q0 6 -2 114.5t-2 113.5q0 145 74.5 211.5t193.5 66.5q94 0 199 -45v-29l-41 -96q-63 29 -133 29q-57 0 -90 -30t-33 -110v-225q72 2 246 2v-137q-176 0 -248 2q4 -193 4 -813h-172 q0 428 4 813q-62 -2 -156 -2z" />
<glyph unicode="&#xfb04;" horiz-adv-x="1792" d="M1452 1427l158 7l20 -21v-1177q0 -174 7 -236h-172q-6 61 -7 236v956q0 174 -6 235zM716 811v137q94 0 156 -2q0 6 -2 114.5t-2 113.5q0 145 74.5 211.5t193.5 66.5q94 0 199 -45v-29l-41 -96q-63 29 -133 29q-57 0 -90 -30t-33 -110v-225q72 2 246 2v-137q-176 0 -248 2 q4 -193 4 -813h-172q0 428 4 813q-62 -2 -156 -2zM59 811v137q94 0 156 -2q0 6 -2 114.5t-2 113.5q0 145 74.5 211.5t193.5 66.5q94 0 199 -45v-29l-41 -96q-63 29 -133 29q-57 0 -90 -30t-33 -110v-225q72 2 246 2v-137q-176 0 -248 2q4 -193 4 -813h-172q0 428 4 813 q-62 -2 -156 -2z" />
</font>
</defs>
</svg>
